<?xml version="1.0" encoding="utf-8"?>
<!-- Generator: Adobe Illustrator 18.0.0, SVG Export Plug-In . SVG Version: 6.00 Build 0)  -->
<!DOCTYPE svg PUBLIC "-//W3C//DTD SVG 1.1//EN" "http://www.w3.org/Graphics/SVG/1.1/DTD/svg11.dtd">
<svg version="1.1" id="Layer_1" xmlns="http://www.w3.org/2000/svg" xmlns:xlink="http://www.w3.org/1999/xlink" x="0px" y="0px"
	 viewBox="56.1 4.2 209.3 87.3" enable-background="new 56.1 4.2 209.3 87.3" xml:space="preserve">
<g enable-background="new    ">
	<path fill="#0E0C0A" d="M58.8,4.3h4.6l7.7,20.4l7.7-20.4h4.6l0,0h0.1l2.7,34.5h-4.3l-2-25.1l-6.9,18.4h-3.6l-6.9-18.3l-2,25h-4.3
		L58.8,4.3L58.8,4.3L58.8,4.3z"/>
	<path fill="#0E0C0A" d="M89.9,4.3h4.3h21.6v4.3H94.2v6.5h17.2v4.3H94.2v15.1h21.6v4.3H89.9v-4.3V19.4v-4.3V8.6V4.3z"/>
	<path fill="#0E0C0A" d="M123.3,4.2c4,0,8.1,0.1,8.1,0.1h0v0c7.8,0,15.4,6.8,15.4,17.1c0,10.3-7.4,17.3-15.2,17.4h0h0h-8.7h-0.1v0
		h-4.3V4.3h1C120.6,4.3,122,4.2,123.3,4.2z M123.3,8.6c-0.2,0-0.3,0-0.5,0v25.9h0.1h8.7c5.2-0.1,10.9-4.8,10.9-13.1
		c0-8.2-5.8-12.8-11.1-12.8h0h0C131.4,8.6,127.2,8.6,123.3,8.6z"/>
	<path fill="#0E0C0A" d="M154.5,4.3v34.5h-4.3V4.3H154.5z"/>
	<path fill="#0E0C0A" d="M165.4,4.3h8.6l8.6,34.5h-4.3l-1.1-4.3h-15.1l-1.1,4.3h-4.3L165.4,4.3z M168.4,8.6l-4.9,21.6h12.4L171,8.6
		H168.4z"/>
	<path fill="#0E0C0A" d="M184.9,4.3h4.3v30.2h17.2v4.3h-21.6V4.3z"/>
	<path fill="#0E0C0A" d="M215.7,4.3h8.6l8.6,34.5h-4.3l-1.1-4.3h-15.1l-1.1,4.3H207L215.7,4.3z M218.7,8.6l-4.9,21.6h12.4l-4.9-21.6
		H218.7z"/>
	<path fill="#0E0C0A" d="M251.1,4.3c2.1,0,2.9,0.1,4.1,0.7c2.1,0.9,4.5,3.2,4.5,6.8c0,1.8-0.6,3.3-1.4,4.4c0.2,0.1,0.4,0.2,0.7,0.3
		c3.1,1.4,6.4,4.8,6.4,10.4c0,5.5-2.8,8.9-5.5,10.4c-2.7,1.5-5.4,1.6-5.4,1.6h0h0l-15.2,0v-0.1h-4.1V8.6V4.3h4.3h9.7
		c0,0,0.1,0,0.4,0c0.2,0,0.4,0,0.6,0C250.5,4.3,250.8,4.3,251.1,4.3z M239.5,8.6v6.5h9.7h0.2c0.7,0,3.8,0,4.5-0.4
		c0.9-0.5,1.6-0.9,1.6-2.9c0-1.8-0.8-2.2-1.9-2.7c-0.8-0.3-2.7-0.4-3.7-0.4h-0.6H239.5z M239.5,19.4v15.1c0.6,0,10.1,0.1,15,0.1h0
		c0,0,1.7,0,3.4-0.9c1.7-0.9,3.3-2.6,3.3-6.8c0-4.1-1.8-5.6-3.9-6.6c-2.1-1-4.2-0.9-4.2-0.9v0h-3.7h-0.2H239.5z"/>
</g>
<g enable-background="new    ">
	<path fill="#0E0C0A" d="M68.9,55.9c3.5,0,7.6,0.7,11.1,2.8c3.4,2.1,6.1,6,6.1,11.2c0,5.2-2.6,9.1-6,11.2c-3.4,2.1-7.5,2.8-11,2.8
		h-8.6v6.5h-4.3V56h1v0C61.6,55.9,68.9,55.9,68.9,55.9z M68.9,60.3c0,0-4.5,0-8.5,0v19.4H69c2.9,0,6.3-0.7,8.7-2.2
		c2.4-1.5,4-3.6,4-7.6c0-3.9-1.6-6-4-7.5S71.9,60.3,68.9,60.3z"/>
	<path fill="#0E0C0A" d="M101.5,56c3.6,0,7.7,0.9,11.1,3.2s6,6.2,6,11.5c0,5.2-2.6,9.1-6,11.4c-1.4,0.9-2.9,1.6-4.4,2.1l6.4,6.4
		h-6.1l-5.5-5.5c-0.5,0-1,0.1-1.5,0.1l-8.6,0.1v5.3h-4.3V56.1h3.5C96.4,56,101.5,56,101.5,56z M101.5,60.3c0,0-4.5,0-8.6,0v20.5
		l8.6-0.1c2.9,0,6.3-0.8,8.7-2.4c2.5-1.6,4.1-3.9,4.1-7.8s-1.6-6.2-4.1-7.9C107.7,61.1,104.4,60.3,101.5,60.3z"/>
	<path fill="#0E0C0A" d="M128.6,56h8.6l8.6,34.5h-4.3l-1.1-4.3h-15.1l-1.1,4.3h-4.3L128.6,56z M131.5,60.3l-4.9,21.6h12.4l-4.9-21.6
		H131.5z"/>
	<path fill="#0E0C0A" d="M152.9,56c4,0,8.1,0.1,8.1,0.1h0v0c7.8,0,15.4,6.8,15.4,17.1c0,10.3-7.4,17.3-15.2,17.4h0h0h-8.7h-0.1v0
		h-4.3V56h1C150.3,56,151.6,56,152.9,56z M152.9,60.3c-0.2,0-0.3,0-0.5,0v25.9h0.1h8.7c5.2-0.1,10.9-4.8,10.9-13.1
		c0-8.2-5.8-12.8-11.1-12.8h0h0C161,60.3,156.8,60.3,152.9,60.3z"/>
	<path fill="#0E0C0A" d="M197.7,55c10.1,0,18.3,8.2,18.3,18.3c0,10.1-8.2,18.3-18.3,18.3s-18.3-8.2-18.3-18.3
		C179.4,63.2,187.6,55,197.7,55z M197.7,59.3c-7.8,0-14.1,6.3-14.1,14s6.3,14,14.1,14c7.8,0,14.1-6.3,14.1-14S205.5,59.3,197.7,59.3
		z"/>
</g>
</svg>
