<?xml version="1.0" encoding="utf-8"?>
<!-- Generator: Adobe Illustrator 18.0.0, SVG Export Plug-In . SVG Version: 6.00 Build 0)  -->
<!DOCTYPE svg PUBLIC "-//W3C//DTD SVG 1.1//EN" "http://www.w3.org/Graphics/SVG/1.1/DTD/svg11.dtd">
<svg version="1.1" id="Layer_1" xmlns="http://www.w3.org/2000/svg" xmlns:xlink="http://www.w3.org/1999/xlink" x="0px" y="0px"
	 viewBox="2 23.2 300 55.4" enable-background="new 2 23.2 300 55.4" xml:space="preserve">
<title>standard-logo-rgb</title>
<g>
	<path fill="#7AB800" d="M41.6,36.8L41,36.3c0.1-0.2,9.2-12.2,9.2-12.2l0.6,0.5L41.6,36.8"/>
	
		<rect x="38.8" y="32.9" transform="matrix(-0.5243 0.8515 -0.8515 -0.5243 91.5343 15.483)" fill="#7AB800" width="5.3" height="0.8"/>
	
		<rect x="36.8" y="31.4" transform="matrix(-0.4456 0.8952 -0.8952 -0.4456 86.6066 9.9504)" fill="#7AB800" width="6.9" height="0.8"/>
	
		<rect x="34.7" y="30.2" transform="matrix(-0.3636 0.9316 -0.9316 -0.3636 81.1447 5.7675)" fill="#7AB800" width="7.8" height="0.8"/>
	
		<rect x="31.8" y="28.2" transform="matrix(-0.2788 0.9603 -0.9603 -0.2788 75.0327 0.7345)" fill="#7AB800" width="10.8" height="0.8"/>
	
		<rect x="31.1" y="29.3" transform="matrix(-0.1917 0.9815 -0.9815 -0.1917 70.6963 1.1004)" fill="#7AB800" width="7.5" height="0.8"/>
	
		<rect x="29.6" y="29.3" transform="matrix(-0.1031 0.9947 -0.9947 -0.1031 66.0351 -0.1104)" fill="#7AB800" width="6.9" height="0.8"/>
	
		<rect x="28.5" y="30" transform="matrix(-1.000046e-02 0.9999 -0.9999 -1.000046e-02 61.7114 -0.2837)" fill="#7AB800" width="5.1" height="0.8"/>
	
		<rect x="28.8" y="25.4" transform="matrix(-0.9971 7.636797e-02 -7.636797e-02 -0.9971 60.6167 56.14)" fill="#7AB800" width="0.8" height="7.7"/>
	
		<rect x="27.2" y="27.2" transform="matrix(-0.9856 0.1692 -0.1692 -0.9856 59.8418 55.2406)" fill="#7AB800" width="0.8" height="5.9"/>
	
		<rect x="25.4" y="28.4" transform="matrix(-0.9674 0.2533 -0.2533 -0.9674 58.5157 54.5941)" fill="#7AB800" width="0.8" height="5.3"/>
	
		<rect x="23.3" y="27.1" transform="matrix(-0.9408 0.3389 -0.3389 -0.9408 56.3931 51.5366)" fill="#7AB800" width="0.8" height="7.2"/>
	
		<rect x="22.3" y="31.4" transform="matrix(-0.9066 0.422 -0.422 -0.9066 57.1651 53.5803)" fill="#7AB800" width="0.8" height="3.5"/>
	
		<rect x="20.5" y="31.1" transform="matrix(-0.8652 0.5014 -0.5014 -0.8652 55.7905 51.8155)" fill="#7AB800" width="0.8" height="4.5"/>
	<rect x="20" y="35" transform="matrix(-0.8167 0.577 -0.577 -0.8167 57.5821 53.0055)" fill="#7AB800" width="0.8" height="1.4"/>
	
		<rect x="16.8" y="31" transform="matrix(-0.7618 0.6479 -0.6479 -0.7618 52.6088 49.6965)" fill="#7AB800" width="0.8" height="7"/>
	
		<rect x="16" y="33.4" transform="matrix(-0.7005 0.7136 -0.7136 -0.7005 53.6649 49.9604)" fill="#7AB800" width="0.8" height="5.7"/>
	
		<rect x="13.8" y="32.9" transform="matrix(-0.6338 0.7735 -0.7735 -0.6338 51.7457 49.3366)" fill="#7AB800" width="0.8" height="8"/>
	
		<rect x="13.1" y="35.3" transform="matrix(-0.5619 0.8272 -0.8272 -0.5619 53.1416 49.3172)" fill="#7AB800" width="0.8" height="6.8"/>
	
		<rect x="9.8" y="33" transform="matrix(-0.4856 0.8742 -0.8742 -0.4856 49.2796 49.1957)" fill="#7AB800" width="0.8" height="12.2"/>
	
		<rect x="12.4" y="40.5" transform="matrix(-0.4051 0.9143 -0.9143 -0.4051 56.8925 48.1711)" fill="#7AB800" width="0.8" height="4.3"/>
	
		<rect x="8.7" y="37.8" transform="matrix(-0.3216 0.9469 -0.9469 -0.3216 52.8891 48.4324)" fill="#7AB800" width="0.8" height="10.7"/>
	<rect x="7.5" y="39" transform="matrix(-0.2355 0.9719 -0.9719 -0.2355 53.462 47.9314)" fill="#7AB800" width="0.8" height="12"/>
	
		<rect x="10.6" y="45.2" transform="matrix(-0.1475 0.9891 -0.9891 -0.1475 59.7716 43.7482)" fill="#7AB800" width="0.8" height="4.8"/>
	
		<rect x="8.5" y="44.9" transform="matrix(-5.808805e-02 0.9983 -0.9983 -5.808805e-02 58.6678 43.238)" fill="#7AB800" width="0.8" height="8.7"/>
	
		<rect x="6.6" y="50.8" transform="matrix(-0.9996 2.998371e-02 -2.998371e-02 -0.9996 21.3613 102.1481)" fill="#7AB800" width="6.6" height="0.8"/>
	
		<rect x="5" y="52.8" transform="matrix(-0.9927 0.121 -0.121 -0.9927 24.8199 104.9404)" fill="#7AB800" width="8.5" height="0.8"/>
	
		<rect x="8.5" y="54.4" transform="matrix(-0.9778 0.2096 -0.2096 -0.9778 33.4345 106.0199)" fill="#7AB800" width="5.1" height="0.8"/>
	
		<rect x="12.3" y="55.8" transform="matrix(-0.9545 0.2983 -0.2983 -0.9545 42.7111 105.794)" fill="#7AB800" width="2" height="0.8"/>
	
		<rect x="8.6" y="58" transform="matrix(-0.9246 0.3809 -0.3809 -0.9246 44.7423 108.0114)" fill="#7AB800" width="6.2" height="0.8"/>
	
		<rect x="8.5" y="59.9" transform="matrix(-0.8867 0.4624 -0.4624 -0.8867 50.6648 108.209)" fill="#7AB800" width="7.2" height="0.8"/>
	
		<rect x="8.3" y="62" transform="matrix(-0.8418 0.5398 -0.5398 -0.8418 56.757 108.0587)" fill="#7AB800" width="8.5" height="0.8"/>
	
		<rect x="10" y="63.3" transform="matrix(-0.7915 0.6112 -0.6112 -0.7915 63.7189 105.7221)" fill="#7AB800" width="7.7" height="0.8"/>
	
		<rect x="11.7" y="64.6" transform="matrix(-0.7318 0.6815 -0.6815 -0.7318 70.9275 102.1022)" fill="#7AB800" width="7.3" height="0.8"/>
	
		<rect x="12.9" y="66.1" transform="matrix(-0.668 0.7442 -0.7442 -0.668 77.1923 98.5236)" fill="#7AB800" width="7.5" height="0.8"/>
	
		<rect x="14.9" y="67" transform="matrix(-0.5986 0.801 -0.801 -0.5986 83.2169 93.0555)" fill="#7AB800" width="6.8" height="0.8"/>
	
		<rect x="18.9" y="66.6" transform="matrix(-0.5241 0.8516 -0.8516 -0.5241 88.609 84.5392)" fill="#7AB800" width="3.5" height="0.8"/>
	
		<rect x="16.4" y="70" transform="matrix(-0.4457 0.8952 -0.8952 -0.4457 93.3359 83.0157)" fill="#7AB800" width="9.1" height="0.8"/>
	
		<rect x="19.9" y="69.7" transform="matrix(-0.3637 0.9315 -0.9315 -0.3637 96.9604 73.9057)" fill="#7AB800" width="6.8" height="0.8"/>
	<rect x="23.2" y="69.2" transform="matrix(-0.28 0.96 -0.96 -0.28 99.2571 64.7357)" fill="#7AB800" width="4.3" height="0.8"/>
	
		<rect x="23.7" y="70.5" transform="matrix(-0.1917 0.9815 -0.9815 -0.1917 101.5525 58.143)" fill="#7AB800" width="6.2" height="0.8"/>
	
		<rect x="25.5" y="70.8" transform="matrix(-0.1031 0.9947 -0.9947 -0.1031 102.4155 50.0277)" fill="#7AB800" width="6.3" height="0.8"/>
	
		<rect x="28.4" y="69.9" transform="matrix(-1.343882e-02 0.9999 -0.9999 -1.343882e-02 101.2943 40.6811)" fill="#7AB800" width="4.3" height="0.8"/>
	
		<rect x="32" y="68" transform="matrix(-0.9971 7.636797e-02 -7.636797e-02 -0.9971 70.1332 140.1383)" fill="#7AB800" width="0.8" height="6.8"/>
	
		<rect x="34" y="67.8" transform="matrix(-0.9862 0.1656 -0.1656 -0.9862 80.1989 137.2996)" fill="#7AB800" width="0.8" height="8.3"/>
	
		<rect x="36.3" y="67.4" transform="matrix(-0.9674 0.2533 -0.2533 -0.9674 90.7113 134.3977)" fill="#7AB800" width="0.8" height="11.3"/>
	
		<rect x="37.3" y="66.9" transform="matrix(-0.9408 0.3389 -0.3389 -0.9408 96.6094 122.0207)" fill="#7AB800" width="0.8" height="5.1"/>
	
		<rect x="39.2" y="66.2" transform="matrix(-0.9067 0.4218 -0.4218 -0.9067 104.9196 115.9705)" fill="#7AB800" width="0.8" height="6.8"/>
	
		<rect x="42.6" y="64.9" transform="matrix(-0.8652 0.5015 -0.5015 -0.8652 116.0643 111.9957)" fill="#7AB800" width="0.8" height="13.4"/>
	
		<rect x="42.7" y="64.2" transform="matrix(-0.8167 0.577 -0.577 -0.8167 117.5591 98.5958)" fill="#7AB800" width="0.8" height="7.5"/>
	<polygon fill="#7AB800" points="42.4,64.7 41.9,64.2 42.5,63.7 43,64.1 	"/>
	
		<rect x="45.5" y="61.8" transform="matrix(-0.7005 0.7136 -0.7136 -0.7005 124.6779 78.4088)" fill="#7AB800" width="0.8" height="7.2"/>
	
		<rect x="46.2" y="60.7" transform="matrix(-0.6338 0.7735 -0.7735 -0.6338 125.1788 67.6517)" fill="#7AB800" width="0.8" height="5.6"/>
	
		<rect x="47.8" y="58.9" transform="matrix(-0.5619 0.8272 -0.8272 -0.5619 126.7545 57.4312)" fill="#7AB800" width="0.8" height="6.8"/>
	
		<rect x="48" y="57.8" transform="matrix(-0.4854 0.8743 -0.8743 -0.4854 124.6577 47.2542)" fill="#7AB800" width="0.8" height="5"/>
	
		<rect x="50.8" y="54.9" transform="matrix(-0.4051 0.9143 -0.9143 -0.4051 126.5384 36.9828)" fill="#7AB800" width="0.8" height="9.5"/>
	
		<rect x="48.1" y="55.4" transform="matrix(-0.3214 0.9469 -0.9469 -0.3214 117.6208 28.8108)" fill="#7AB800" width="0.8" height="2.3"/>
	<path fill="#7AB800" d="M56,57c0,0-8-1.9-8.2-2l0.2-0.8l8.2,2L56,57z"/>
	
		<rect x="51.1" y="50.2" transform="matrix(-0.1473 0.9891 -0.9891 -0.1473 112.1289 10.574)" fill="#7AB800" width="0.8" height="6.8"/>
	
		<rect x="50.8" y="48.9" transform="matrix(-5.808805e-02 0.9983 -0.9983 -5.808805e-02 105.8332 3.6937)" fill="#7AB800" width="0.8" height="5.8"/>
	
		<rect x="48.3" y="49.6" transform="matrix(-0.9995 3.158512e-02 -3.158512e-02 -0.9995 102.4702 98.3012)" fill="#7AB800" width="4.3" height="0.8"/>
	
		<rect x="48.3" y="47.9" transform="matrix(-0.9927 0.121 -0.121 -0.9927 105.6703 90.0801)" fill="#7AB800" width="3.7" height="0.8"/>
	
		<rect x="47.9" y="45.9" transform="matrix(-0.9778 0.2094 -0.2094 -0.9778 109.7654 80.9962)" fill="#7AB800" width="5.4" height="0.8"/>
	
		<rect x="47.6" y="44.6" transform="matrix(-0.955 0.2965 -0.2965 -0.955 108.9239 73.5396)" fill="#7AB800" width="2.5" height="0.8"/>
	
		<rect x="46.9" y="42.8" transform="matrix(-0.9247 0.3807 -0.3807 -0.9247 110.3002 64.497)" fill="#7AB800" width="3.7" height="0.8"/>
	
		<rect x="45.9" y="40.2" transform="matrix(-0.8868 0.4622 -0.4622 -0.8868 113.2512 53.3599)" fill="#7AB800" width="8.4" height="0.8"/>
	
		<rect x="44.8" y="37.8" transform="matrix(-0.8418 0.5398 -0.5398 -0.8418 112.9389 43.3138)" fill="#7AB800" width="10.7" height="0.8"/>
	
		<rect x="44.5" y="38.7" transform="matrix(-0.7899 0.6132 -0.6132 -0.7899 105.8043 41.9556)" fill="#7AB800" width="2.4" height="0.8"/>
	<path fill="#7AB800" d="M44,38.9l-0.5-0.6c0.1-0.1,1.3-1.2,1.3-1.2l0.5,0.6L44,38.9"/>
	
		<rect x="40.3" y="32" transform="matrix(-0.6678 0.7443 -0.7443 -0.6678 102.7862 18.8185)" fill="#7AB800" width="13.8" height="0.8"/>
	
		<rect x="37" y="41.9" transform="matrix(-0.5987 0.8009 -0.8009 -0.5987 93.0779 37.5179)" fill="#FF0000" width="0.3" height="0.4"/>
	
		<rect x="34.2" y="42.4" transform="matrix(-0.5243 0.8515 -0.8515 -0.5243 90.7117 34.5005)" fill="#FF0000" width="3" height="0.4"/>
	
		<rect x="33.8" y="41.9" transform="matrix(-0.4456 0.8952 -0.8952 -0.4456 88.3902 29.4282)" fill="#FF0000" width="2.6" height="0.4"/>
	
		<rect x="33.1" y="41.5" transform="matrix(-0.3634 0.9316 -0.9316 -0.3634 85.6621 24.8422)" fill="#FF0000" width="2.4" height="0.4"/>
	
		<rect x="32.9" y="40.7" transform="matrix(-0.2788 0.9603 -0.9603 -0.2788 82.3491 20.0119)" fill="#FF0000" width="1.5" height="0.4"/>
	
		<rect x="31.5" y="40.9" transform="matrix(-0.1915 0.9815 -0.9815 -0.1915 79.3001 16.9272)" fill="#FF0000" width="2.4" height="0.4"/>
	
		<rect x="30.5" y="41" transform="matrix(-0.1031 0.9947 -0.9947 -0.1031 76.0873 13.7937)" fill="#FF0000" width="2.6" height="0.4"/>
	
		<rect x="29.4" y="41.1" transform="matrix(-1.326455e-02 0.9999 -0.9999 -1.326455e-02 72.5686 10.933)" fill="#FF0000" width="3" height="0.4"/>
	
		<rect x="30" y="39.7" transform="matrix(-0.9968 7.974769e-02 -7.974769e-02 -0.9968 63.6183 79.2183)" fill="#FF0000" width="0.4" height="2.4"/>
	
		<rect x="29.1" y="39.9" transform="matrix(-0.9862 0.1654 -0.1654 -0.9862 64.9969 77.1841)" fill="#FF0000" width="0.4" height="2.8"/>
	
		<rect x="28.2" y="40.1" transform="matrix(-0.9674 0.2533 -0.2533 -0.9674 66.5219 74.5901)" fill="#FF0000" width="0.4" height="3"/>
	
		<rect x="27.3" y="40.3" transform="matrix(-0.9408 0.3389 -0.3389 -0.9408 67.5793 71.2933)" fill="#FF0000" width="0.4" height="2.4"/>
	
		<rect x="26.8" y="40.6" transform="matrix(-0.9066 0.422 -0.422 -0.9066 69.3941 69.3442)" fill="#FF0000" width="0.4" height="3.6"/>
	
		<rect x="26" y="41.1" transform="matrix(-0.8652 0.5015 -0.5015 -0.8652 70.2691 66.5393)" fill="#FF0000" width="0.4" height="3.3"/>
	
		<rect x="25.6" y="41.4" transform="matrix(-0.8167 0.577 -0.577 -0.8167 72.0013 64.1958)" fill="#FF0000" width="0.4" height="4.2"/>
	
		<rect x="24.5" y="42" transform="matrix(-0.7618 0.6479 -0.6479 -0.7618 71.507 60.2571)" fill="#FF0000" width="0.4" height="2.6"/>
	
		<rect x="23.9" y="42.6" transform="matrix(-0.7007 0.7135 -0.7135 -0.7007 72.5518 57.7413)" fill="#FF0000" width="0.4" height="3"/>
	
		<rect x="23.2" y="43.3" transform="matrix(-0.6338 0.7735 -0.7735 -0.6338 72.642 54.5858)" fill="#FF0000" width="0.4" height="2.4"/>
	
		<rect x="22.8" y="43.8" transform="matrix(-0.5593 0.829 -0.829 -0.5593 73.2885 51.2955)" fill="#FF0000" width="0.4" height="2.6"/>
	
		<rect x="21.7" y="45.1" transform="matrix(-0.4854 0.8743 -0.8743 -0.4854 72.479 48.6583)" fill="#FF0000" width="0.4" height="1.2"/>
	
		<rect x="22.3" y="45.2" transform="matrix(-0.4051 0.9143 -0.9143 -0.4051 74.5851 45.3161)" fill="#FF0000" width="0.4" height="3.4"/>
	
		<rect x="21.1" y="46.6" transform="matrix(-0.3214 0.9469 -0.9469 -0.3214 73.0931 42.4483)" fill="#FF0000" width="0.4" height="1.5"/>
	<path fill="#FF0000" d="M21.4,48.5l-1.2-0.3l0.1-0.4c0.1,0,1.2,0.3,1.2,0.3L21.4,48.5z"/>
	
		<rect x="21.5" y="47.6" transform="matrix(-0.1473 0.9891 -0.9891 -0.1473 73.5511 34.9717)" fill="#FF0000" width="0.4" height="3.2"/>
	
		<rect x="20.9" y="49" transform="matrix(-5.808805e-02 0.9983 -0.9983 -5.808805e-02 72.2794 31.878)" fill="#FF0000" width="0.4" height="2.2"/>
	
		<rect x="20" y="50.6" transform="matrix(-0.9995 3.141116e-02 -3.141116e-02 -0.9995 44.2759 100.9938)" fill="#FF0000" width="2.7" height="0.4"/>
	
		<rect x="20.2" y="51.5" transform="matrix(-0.9927 0.121 -0.121 -0.9927 48.5765 100.5154)" fill="#FF0000" width="2.2" height="0.4"/>
	
		<rect x="20.2" y="52.2" transform="matrix(-0.9778 0.2094 -0.2094 -0.9778 54.0659 99.1656)" fill="#FF0000" width="3.2" height="0.4"/>
	<rect x="20.4" y="53" transform="matrix(-0.955 0.2965 -0.2965 -0.955 59.6802 97.3728)" fill="#FF0000" width="4" height="0.4"/>
	
		<rect x="20.8" y="53.9" transform="matrix(-0.9247 0.3807 -0.3807 -0.9247 63.2963 95.7883)" fill="#FF0000" width="2.8" height="0.4"/>
	
		<rect x="21.1" y="54.8" transform="matrix(-0.8868 0.4621 -0.4621 -0.8868 67.5946 93.4543)" fill="#FF0000" width="2.6" height="0.4"/>
	
		<rect x="21.6" y="55.6" transform="matrix(-0.8417 0.5399 -0.5399 -0.8417 71.9297 90.5782)" fill="#FF0000" width="2.2" height="0.4"/>
	<rect x="22" y="56.2" transform="matrix(-0.7901 0.613 -0.613 -0.7901 76.138 86.8303)" fill="#FF0000" width="2.4" height="0.4"/>
	
		<rect x="22.5" y="56.8" transform="matrix(-0.7321 0.6812 -0.6812 -0.7321 80.1253 82.5913)" fill="#FF0000" width="2.5" height="0.4"/>
	
		<rect x="23.1" y="57.4" transform="matrix(-0.6678 0.7443 -0.7443 -0.6678 83.6279 78.0113)" fill="#FF0000" width="2.5" height="0.4"/>
	
		<rect x="23.9" y="58" transform="matrix(-0.5982 0.8014 -0.8014 -0.5982 86.8178 72.8121)" fill="#FF0000" width="2.6" height="0.4"/>
	
		<rect x="24.2" y="58" transform="matrix(-0.5243 0.8515 -0.8515 -0.5243 89.2672 66.6138)" fill="#FF0000" width="3.6" height="0.4"/>
	
		<rect x="25.4" y="59.2" transform="matrix(-0.4457 0.8952 -0.8952 -0.4457 91.3255 62.2)" fill="#FF0000" width="2.1" height="0.4"/>
	
		<rect x="26" y="59.2" transform="matrix(-0.3641 0.9314 -0.9314 -0.3641 92.6411 55.619)" fill="#FF0000" width="2.7" height="0.4"/>
	
		<rect x="26.5" y="59.1" transform="matrix(-0.2788 0.9603 -0.9603 -0.2788 93.1524 48.7694)" fill="#FF0000" width="3.4" height="0.4"/>
	
		<rect x="27.6" y="59.5" transform="matrix(-0.1915 0.9815 -0.9815 -0.1915 93.2086 42.7455)" fill="#FF0000" width="2.9" height="0.4"/>
	
		<rect x="28.5" y="59.7" transform="matrix(-0.103 0.9947 -0.9947 -0.103 92.5639 36.368)" fill="#FF0000" width="2.8" height="0.4"/>
	
		<rect x="29" y="59.5" transform="matrix(-1.343882e-02 0.9999 -0.9999 -1.343882e-02 90.8363 29.8692)" fill="#FF0000" width="3.4" height="0.4"/>
	
		<rect x="31.3" y="58.6" transform="matrix(-0.9971 7.636797e-02 -7.636797e-02 -0.9971 67.5985 117.3155)" fill="#FF0000" width="0.4" height="2.7"/>
	
		<rect x="32.2" y="59" transform="matrix(-0.9862 0.1654 -0.1654 -0.9862 74.3761 114.0407)" fill="#FF0000" width="0.4" height="2.2"/>
	
		<rect x="33.2" y="59.5" transform="matrix(-0.9674 0.2531 -0.2531 -0.9674 80.9239 110.1489)" fill="#FF0000" width="0.4" height="1.5"/>
	
		<rect x="33.7" y="57.7" transform="matrix(-0.9408 0.3389 -0.3389 -0.9408 85.924 103.4527)" fill="#FF0000" width="0.4" height="3.2"/>
	
		<rect x="34.6" y="57.9" transform="matrix(-0.9067 0.4218 -0.4218 -0.9067 91.3763 98.2448)" fill="#FF0000" width="0.4" height="2.6"/>
	
		<rect x="35.8" y="59.3" transform="matrix(-0.8652 0.5014 -0.5014 -0.8652 97.1172 93.1804)" fill="#FF0000" width="0.4" height="0.8"/>
	
		<rect x="36.1" y="57.2" transform="matrix(-0.8168 0.5769 -0.5769 -0.8168 99.7281 85.0777)" fill="#FF0000" width="0.4" height="2.4"/>
	
		<rect x="36.2" y="55" transform="matrix(-0.7618 0.6479 -0.6479 -0.7618 101.1421 77.1891)" fill="#FF0000" width="0.4" height="4.4"/>
	
		<rect x="37.4" y="56" transform="matrix(-0.7005 0.7136 -0.7136 -0.7005 104.8636 70.5257)" fill="#FF0000" width="0.4" height="2.5"/>
	
		<rect x="37.8" y="55.1" transform="matrix(-0.6339 0.7734 -0.7734 -0.6339 105.8182 63.005)" fill="#FF0000" width="0.4" height="3"/>
	
		<rect x="38.5" y="54.7" transform="matrix(-0.5619 0.8272 -0.8272 -0.5619 106.7418 55.3802)" fill="#FF0000" width="0.4" height="2.6"/>
	
		<rect x="38.7" y="53.5" transform="matrix(-0.4856 0.8742 -0.8742 -0.4856 106.0119 47.7971)" fill="#FF0000" width="0.4" height="3.2"/>
	
		<rect x="39.6" y="53.7" transform="matrix(-0.4051 0.9143 -0.9143 -0.4051 105.9678 40.3089)" fill="#FF0000" width="0.4" height="1.9"/>
	
		<rect x="39" y="51.5" transform="matrix(-0.3218 0.9468 -0.9468 -0.3218 102.4118 33.5288)" fill="#FF0000" width="0.4" height="3.9"/>
	
		<rect x="40" y="51.8" transform="matrix(-0.2357 0.9718 -0.9718 -0.2357 101.1129 26.1974)" fill="#FF0000" width="0.4" height="2.2"/>
	
		<rect x="40" y="50.6" transform="matrix(-0.1476 0.989 -0.989 -0.1476 97.5108 19.8338)" fill="#FF0000" width="0.4" height="2.6"/>
	
		<rect x="39.9" y="49.7" transform="matrix(-5.808805e-02 0.9983 -0.9983 -5.808805e-02 93.5378 14.0501)" fill="#FF0000" width="0.4" height="2.9"/>
	
		<rect x="38.3" y="50.1" transform="matrix(-0.9995 3.106300e-02 -3.106300e-02 -0.9995 81.481 99.3145)" fill="#FF0000" width="3.3" height="0.4"/>
	
		<rect x="38" y="49.2" transform="matrix(-0.9927 0.121 -0.121 -0.9927 85.2471 93.7495)" fill="#FF0000" width="3.5" height="0.4"/>
	
		<rect x="38.4" y="48.4" transform="matrix(-0.9778 0.2094 -0.2094 -0.9778 89.0689 87.8362)" fill="#FF0000" width="3" height="0.4"/>
	
		<rect x="37.7" y="47.7" transform="matrix(-0.9545 0.2983 -0.2983 -0.9545 91.7734 81.8236)" fill="#FF0000" width="3.9" height="0.4"/>
	
		<rect x="37.5" y="46.9" transform="matrix(-0.9247 0.3806 -0.3806 -0.9247 93.4549 75.8088)" fill="#FF0000" width="3.5" height="0.4"/>
	<path fill="#FF0000" d="M40.4,45.6l0.1,0.2l-2,1.1l-0.2-0.3l2-1.1L40.4,45.6z"/>
	
		<rect x="38.6" y="44.9" transform="matrix(-0.8419 0.5397 -0.5397 -0.8419 96.8099 61.9502)" fill="#FF0000" width="1.5" height="0.4"/>
	
		<rect x="35.9" y="44.9" transform="matrix(-0.7901 0.613 -0.613 -0.7901 95.409 57.6585)" fill="#FF0000" width="3.9" height="0.4"/>
	
		<rect x="35.3" y="44.3" transform="matrix(-0.7318 0.6815 -0.6815 -0.7318 94.9036 51.7282)" fill="#FF0000" width="4" height="0.4"/>
	
		<rect x="37.5" y="42.6" transform="matrix(-0.6681 0.7441 -0.7441 -0.6681 95.0118 43.306)" fill="#FF0000" width="0.7" height="0.4"/>
</g>
<rect x="63.4" y="46.5" fill="none" width="238.6" height="15.5"/>
<g enable-background="new    ">
	<path fill="#7AB800" d="M73.7,51.6c0,0.7-0.1,1.4-0.3,2c-0.2,0.6-0.6,1.1-1,1.6c-0.4,0.4-0.9,0.8-1.5,1c-0.6,0.2-1.3,0.4-2,0.4
		c-0.7,0-1.4-0.1-2-0.4c-0.6-0.2-1.1-0.6-1.5-1c-0.4-0.4-0.8-1-1-1.6c-0.2-0.6-0.4-1.3-0.4-2c0-0.7,0.1-1.4,0.4-2s0.6-1.1,1-1.6
		s0.9-0.8,1.5-1c0.6-0.2,1.3-0.4,2-0.4c0.5,0,0.9,0.1,1.4,0.2c0.4,0.1,0.8,0.3,1.2,0.5c0.4,0.2,0.7,0.5,1,0.8c0.3,0.3,0.5,0.6,0.7,1
		s0.4,0.8,0.5,1.2C73.6,50.7,73.7,51.1,73.7,51.6z M71.8,51.6c0-0.5-0.1-1-0.2-1.4c-0.1-0.4-0.3-0.8-0.6-1.1c-0.3-0.3-0.6-0.5-1-0.7
		c-0.4-0.2-0.8-0.2-1.3-0.2s-0.9,0.1-1.3,0.2c-0.4,0.2-0.7,0.4-1,0.7c-0.3,0.3-0.5,0.6-0.6,1.1c-0.1,0.4-0.2,0.9-0.2,1.4
		c0,0.5,0.1,1,0.2,1.4c0.1,0.4,0.3,0.8,0.6,1.1c0.3,0.3,0.6,0.5,1,0.7c0.4,0.2,0.8,0.2,1.3,0.2s0.9-0.1,1.3-0.2
		c0.4-0.2,0.7-0.4,1-0.7c0.3-0.3,0.5-0.6,0.6-1.1C71.8,52.6,71.8,52.1,71.8,51.6z"/>
	<path fill="#7AB800" d="M80.6,46.8c0.6,0,1.2,0.1,1.7,0.2c0.5,0.2,0.9,0.4,1.2,0.6c0.3,0.3,0.5,0.6,0.7,1c0.1,0.4,0.2,0.8,0.2,1.2
		c0,0.5-0.1,0.9-0.2,1.3c-0.2,0.4-0.4,0.7-0.7,1c-0.3,0.3-0.7,0.5-1.2,0.7c-0.5,0.2-1,0.2-1.6,0.2h-1.3v3.4h-1.8v-9.6H80.6z
		 M80.6,51.6c0.3,0,0.6,0,0.9-0.1s0.4-0.2,0.6-0.4c0.2-0.2,0.3-0.3,0.4-0.6c0.1-0.2,0.1-0.5,0.1-0.7c0-0.3,0-0.5-0.1-0.7
		c-0.1-0.2-0.2-0.4-0.4-0.5c-0.2-0.1-0.4-0.3-0.6-0.3c-0.2-0.1-0.5-0.1-0.9-0.1h-1.3v3.4H80.6z"/>
	<path fill="#7AB800" d="M89.7,48.2v2.7H93v1.4h-3.4v2.7h4.3v1.4h-6.1v-9.6h6.1v1.4H89.7z"/>
	<path fill="#7AB800" d="M105.8,46.8v9.6h-0.9c-0.1,0-0.3,0-0.4-0.1c-0.1,0-0.2-0.1-0.3-0.2l-5-6.4c0,0.3,0,0.6,0,0.8v5.9h-1.6v-9.6
		h0.9c0.1,0,0.1,0,0.2,0c0.1,0,0.1,0,0.1,0c0,0,0.1,0,0.1,0.1c0,0,0.1,0.1,0.1,0.1l5,6.4c0-0.2,0-0.3,0-0.5s0-0.3,0-0.4v-5.8H105.8z
		"/>
	<path fill="#7AB800" d="M117.4,50.8h0.4c0.2,0,0.3,0,0.4-0.1c0.1,0,0.2-0.1,0.3-0.2l2.7-3.4c0.1-0.1,0.2-0.2,0.3-0.3
		c0.1-0.1,0.3-0.1,0.5-0.1h1.5l-3.2,4c-0.2,0.2-0.4,0.4-0.6,0.5c0.1,0.1,0.3,0.1,0.4,0.2c0.1,0.1,0.2,0.2,0.3,0.4l3.3,4.5h-1.6
		c-0.2,0-0.4,0-0.5-0.1s-0.2-0.1-0.3-0.3l-2.7-3.5c-0.1-0.1-0.2-0.2-0.3-0.3s-0.3-0.1-0.5-0.1h-0.6v4.2h-1.8v-9.6h1.8V50.8z"/>
	<path fill="#7AB800" d="M135,46.8v9.6h-0.9c-0.1,0-0.3,0-0.4-0.1c-0.1,0-0.2-0.1-0.3-0.2l-5-6.4c0,0.3,0,0.6,0,0.8v5.9h-1.6v-9.6
		h0.9c0.1,0,0.1,0,0.2,0c0.1,0,0.1,0,0.1,0c0,0,0.1,0,0.1,0.1c0,0,0.1,0.1,0.1,0.1l5,6.4c0-0.2,0-0.3,0-0.5s0-0.3,0-0.4v-5.8H135z"
		/>
	<path fill="#7AB800" d="M148.5,51.6c0,0.7-0.1,1.4-0.3,2c-0.2,0.6-0.6,1.1-1,1.6c-0.4,0.4-0.9,0.8-1.5,1c-0.6,0.2-1.3,0.4-2,0.4
		c-0.7,0-1.4-0.1-2-0.4c-0.6-0.2-1.1-0.6-1.5-1c-0.4-0.4-0.8-1-1-1.6c-0.2-0.6-0.4-1.3-0.4-2c0-0.7,0.1-1.4,0.4-2s0.6-1.1,1-1.6
		s0.9-0.8,1.5-1c0.6-0.2,1.3-0.4,2-0.4c0.5,0,0.9,0.1,1.4,0.2c0.4,0.1,0.8,0.3,1.2,0.5c0.4,0.2,0.7,0.5,1,0.8c0.3,0.3,0.5,0.6,0.7,1
		s0.4,0.8,0.5,1.2C148.5,50.7,148.5,51.1,148.5,51.6z M146.7,51.6c0-0.5-0.1-1-0.2-1.4c-0.1-0.4-0.3-0.8-0.6-1.1
		c-0.3-0.3-0.6-0.5-1-0.7c-0.4-0.2-0.8-0.2-1.3-0.2s-0.9,0.1-1.3,0.2c-0.4,0.2-0.7,0.4-1,0.7c-0.3,0.3-0.5,0.6-0.6,1.1
		c-0.1,0.4-0.2,0.9-0.2,1.4c0,0.5,0.1,1,0.2,1.4c0.1,0.4,0.3,0.8,0.6,1.1c0.3,0.3,0.6,0.5,1,0.7c0.4,0.2,0.8,0.2,1.3,0.2
		s0.9-0.1,1.3-0.2c0.4-0.2,0.7-0.4,1-0.7c0.3-0.3,0.5-0.6,0.6-1.1C146.6,52.6,146.7,52.1,146.7,51.6z"/>
	<path fill="#7AB800" d="M164.9,46.8l-3,9.6h-1.6l-2.1-6.6c-0.1-0.2-0.1-0.4-0.2-0.6c0,0.1-0.1,0.2-0.1,0.3c0,0.1-0.1,0.2-0.1,0.3
		l-2.1,6.6h-1.6l-3-9.6h1.5c0.2,0,0.3,0,0.4,0.1c0.1,0.1,0.2,0.2,0.2,0.3l1.6,5.7c0,0.1,0.1,0.3,0.1,0.5s0.1,0.3,0.1,0.5
		c0-0.2,0.1-0.4,0.1-0.5c0-0.2,0.1-0.3,0.1-0.5l1.9-5.7c0-0.1,0.1-0.2,0.2-0.3c0.1-0.1,0.2-0.1,0.4-0.1h0.5c0.2,0,0.3,0,0.4,0.1
		c0.1,0.1,0.2,0.2,0.2,0.3l1.9,5.7c0.1,0.3,0.2,0.6,0.3,1c0.1-0.3,0.1-0.7,0.2-1l1.6-5.7c0-0.1,0.1-0.2,0.2-0.3s0.2-0.1,0.4-0.1
		H164.9z"/>
	<path fill="#7AB800" d="M173.9,54.9v1.5h-5.6v-9.6h1.8v8.1H173.9z"/>
	<path fill="#7AB800" d="M179.1,48.2v2.7h3.4v1.4h-3.4v2.7h4.3v1.4h-6.1v-9.6h6.1v1.4H179.1z"/>
	<path fill="#7AB800" d="M195.7,51.6c0,0.7-0.1,1.4-0.4,1.9c-0.2,0.6-0.6,1.1-1,1.5c-0.4,0.4-0.9,0.8-1.5,1c-0.6,0.2-1.3,0.4-2,0.4
		h-3.7v-9.6h3.7c0.7,0,1.4,0.1,2,0.4s1.1,0.6,1.5,1c0.4,0.4,0.8,0.9,1,1.5C195.6,50.2,195.7,50.9,195.7,51.6z M193.9,51.6
		c0-0.5-0.1-1-0.2-1.4c-0.1-0.4-0.3-0.8-0.6-1.1c-0.3-0.3-0.6-0.5-1-0.7c-0.4-0.2-0.8-0.2-1.3-0.2H189v6.8h1.9
		c0.5,0,0.9-0.1,1.3-0.2c0.4-0.2,0.7-0.4,1-0.7c0.3-0.3,0.5-0.6,0.6-1.1C193.8,52.6,193.9,52.1,193.9,51.6z"/>
	<path fill="#7AB800" d="M207.4,51.6v3.9c-0.5,0.4-1,0.6-1.6,0.8c-0.6,0.2-1.1,0.2-1.8,0.2c-0.8,0-1.5-0.1-2.1-0.4
		c-0.6-0.2-1.2-0.6-1.6-1c-0.5-0.4-0.8-1-1-1.6c-0.2-0.6-0.4-1.3-0.4-2c0-0.7,0.1-1.4,0.4-2c0.2-0.6,0.6-1.1,1-1.6s1-0.8,1.6-1
		c0.6-0.2,1.3-0.4,2.1-0.4c0.4,0,0.8,0,1.1,0.1s0.7,0.1,0.9,0.3s0.6,0.2,0.8,0.4c0.2,0.2,0.5,0.3,0.7,0.5l-0.5,0.8
		c-0.1,0.1-0.2,0.2-0.3,0.2c-0.1,0-0.3,0-0.4-0.1c-0.1-0.1-0.3-0.2-0.4-0.3c-0.1-0.1-0.3-0.2-0.5-0.2s-0.4-0.1-0.6-0.2
		s-0.5-0.1-0.8-0.1c-0.5,0-0.9,0.1-1.3,0.2c-0.4,0.2-0.7,0.4-1,0.7c-0.3,0.3-0.5,0.7-0.6,1.1s-0.2,0.9-0.2,1.4c0,0.5,0.1,1,0.2,1.5
		s0.4,0.8,0.7,1.1c0.3,0.3,0.6,0.5,1,0.7c0.4,0.2,0.9,0.2,1.3,0.2c0.4,0,0.7,0,1-0.1s0.6-0.2,0.8-0.3v-1.7h-1.2
		c-0.1,0-0.2,0-0.3-0.1c-0.1-0.1-0.1-0.1-0.1-0.2v-1H207.4z"/>
	<path fill="#7AB800" d="M213.1,48.2v2.7h3.4v1.4h-3.4v2.7h4.3v1.4h-6.1v-9.6h6.1v1.4H213.1z"/>
	<path fill="#7AB800" d="M228.4,48.2v2.7h3.4v1.4h-3.4v2.7h4.3v1.4h-6.1v-9.6h6.1v1.4H228.4z"/>
	<path fill="#7AB800" d="M241.6,48.5c-0.1,0.1-0.1,0.2-0.2,0.2s-0.1,0.1-0.2,0.1c-0.1,0-0.2,0-0.3-0.1s-0.2-0.1-0.4-0.2
		c-0.2-0.1-0.3-0.2-0.5-0.2c-0.2-0.1-0.4-0.1-0.7-0.1c-0.2,0-0.5,0-0.7,0.1c-0.2,0.1-0.3,0.1-0.5,0.2c-0.1,0.1-0.2,0.2-0.3,0.4
		c-0.1,0.1-0.1,0.3-0.1,0.5c0,0.2,0.1,0.4,0.2,0.6c0.1,0.2,0.3,0.3,0.5,0.4c0.2,0.1,0.4,0.2,0.7,0.3s0.5,0.2,0.8,0.3
		c0.3,0.1,0.6,0.2,0.8,0.3s0.5,0.3,0.7,0.5s0.4,0.4,0.5,0.7c0.1,0.3,0.2,0.6,0.2,1c0,0.4-0.1,0.8-0.2,1.2s-0.4,0.7-0.7,1
		c-0.3,0.3-0.6,0.5-1,0.7c-0.4,0.2-0.9,0.2-1.4,0.2c-0.3,0-0.6,0-0.9-0.1c-0.3-0.1-0.6-0.1-0.9-0.3c-0.3-0.1-0.5-0.2-0.8-0.4
		s-0.5-0.3-0.6-0.5l0.5-0.9c0-0.1,0.1-0.1,0.2-0.2s0.1-0.1,0.2-0.1c0.1,0,0.2,0,0.4,0.1c0.1,0.1,0.3,0.2,0.5,0.3
		c0.2,0.1,0.4,0.2,0.6,0.3c0.2,0.1,0.5,0.1,0.9,0.1c0.5,0,0.9-0.1,1.2-0.4c0.3-0.2,0.4-0.6,0.4-1c0-0.3-0.1-0.5-0.2-0.6
		s-0.3-0.3-0.5-0.4c-0.2-0.1-0.4-0.2-0.7-0.3s-0.5-0.2-0.8-0.2c-0.3-0.1-0.5-0.2-0.8-0.3s-0.5-0.3-0.7-0.5c-0.2-0.2-0.4-0.4-0.5-0.7
		s-0.2-0.7-0.2-1.1c0-0.4,0.1-0.7,0.2-1c0.1-0.3,0.3-0.6,0.6-0.9s0.6-0.5,1-0.6c0.4-0.2,0.8-0.2,1.3-0.2c0.6,0,1.1,0.1,1.6,0.3
		c0.5,0.2,0.9,0.4,1.2,0.7L241.6,48.5z"/>
	<path fill="#7AB800" d="M249.1,46.8c0.6,0,1.2,0.1,1.7,0.2c0.5,0.2,0.9,0.4,1.2,0.6s0.5,0.6,0.7,1s0.2,0.8,0.2,1.2
		c0,0.5-0.1,0.9-0.2,1.3s-0.4,0.7-0.7,1c-0.3,0.3-0.7,0.5-1.2,0.7c-0.5,0.2-1,0.2-1.6,0.2h-1.3v3.4H246v-9.6H249.1z M249.1,51.6
		c0.3,0,0.6,0,0.9-0.1s0.4-0.2,0.6-0.4c0.2-0.2,0.3-0.3,0.4-0.6c0.1-0.2,0.1-0.5,0.1-0.7c0-0.3,0-0.5-0.1-0.7
		c-0.1-0.2-0.2-0.4-0.4-0.5c-0.2-0.1-0.4-0.3-0.6-0.3c-0.2-0.1-0.5-0.1-0.9-0.1h-1.3v3.4H249.1z"/>
	<path fill="#7AB800" d="M264,56.4h-1.4c-0.2,0-0.3,0-0.4-0.1c-0.1-0.1-0.2-0.2-0.2-0.3l-0.7-2h-4l-0.7,2c0,0.1-0.1,0.2-0.2,0.3
		s-0.2,0.1-0.4,0.1h-1.4l3.8-9.6h1.8L264,56.4z M260.8,52.7l-1.2-3.2c-0.1-0.1-0.1-0.3-0.2-0.5c-0.1-0.2-0.1-0.4-0.2-0.6
		c-0.1,0.2-0.1,0.4-0.2,0.6c-0.1,0.2-0.1,0.4-0.2,0.5l-1.2,3.2H260.8z"/>
	<path fill="#7AB800" d="M275.3,46.8v9.6h-0.9c-0.1,0-0.3,0-0.4-0.1c-0.1,0-0.2-0.1-0.3-0.2l-5-6.4c0,0.3,0,0.6,0,0.8v5.9h-1.6v-9.6
		h0.9c0.1,0,0.1,0,0.2,0c0.1,0,0.1,0,0.1,0s0.1,0,0.1,0.1s0.1,0.1,0.1,0.1l5,6.4c0-0.2,0-0.3,0-0.5s0-0.3,0-0.4v-5.8H275.3z
		 M272.1,45.1c0.1,0,0.2,0,0.3-0.1c0.1,0,0.1-0.1,0.2-0.1c0-0.1,0.1-0.1,0.1-0.2c0-0.1,0-0.1,0-0.2h1c0,0.2,0,0.4-0.1,0.6
		c-0.1,0.2-0.1,0.4-0.3,0.5c-0.1,0.2-0.3,0.3-0.4,0.4c-0.2,0.1-0.4,0.1-0.6,0.1c-0.2,0-0.4,0-0.6-0.1c-0.2-0.1-0.3-0.1-0.5-0.2
		c-0.1-0.1-0.3-0.2-0.4-0.2c-0.1-0.1-0.2-0.1-0.3-0.1c-0.1,0-0.2,0-0.3,0.1c-0.1,0-0.1,0.1-0.2,0.2c0,0.1-0.1,0.1-0.1,0.2
		c0,0.1,0,0.1,0,0.2h-1c0-0.2,0-0.4,0.1-0.6c0.1-0.2,0.2-0.4,0.3-0.5s0.3-0.3,0.4-0.4c0.2-0.1,0.4-0.1,0.6-0.1c0.2,0,0.4,0,0.6,0.1
		c0.2,0.1,0.3,0.1,0.5,0.2s0.3,0.2,0.4,0.2S272,45.1,272.1,45.1z"/>
	<path fill="#7AB800" d="M287.8,56.4h-1.4c-0.2,0-0.3,0-0.4-0.1c-0.1-0.1-0.2-0.2-0.2-0.3l-0.7-2h-4l-0.7,2c0,0.1-0.1,0.2-0.2,0.3
		s-0.2,0.1-0.4,0.1h-1.4l3.8-9.6h1.8L287.8,56.4z M284.7,52.7l-1.2-3.2c-0.1-0.1-0.1-0.3-0.2-0.5c-0.1-0.2-0.1-0.4-0.2-0.6
		c-0.1,0.2-0.1,0.4-0.2,0.6c-0.1,0.2-0.1,0.4-0.2,0.5l-1.2,3.2H284.7z"/>
</g>
</svg>
