<?xml version="1.0" encoding="utf-8"?>
<!-- Generator: Adobe Illustrator 18.0.0, SVG Export Plug-In . SVG Version: 6.00 Build 0)  -->
<!DOCTYPE svg PUBLIC "-//W3C//DTD SVG 1.1//EN" "http://www.w3.org/Graphics/SVG/1.1/DTD/svg11.dtd">
<svg version="1.1" id="Layer_1" xmlns="http://www.w3.org/2000/svg" xmlns:xlink="http://www.w3.org/1999/xlink" x="0px" y="0px"
	 viewBox="2 0.9 542 100" enable-background="new 2 0.9 542 100" xml:space="preserve">
<title>standard-logo-rgb</title>
<g>
	<path fill="#7AB800" d="M73.6,25.4l-1.1-0.9c0.2-0.3,16.6-22.1,16.6-22.1l1.1,0.9L73.6,25.4"/>
	
		<rect x="68.5" y="18.4" transform="matrix(0.5243 -0.8515 0.8515 0.5243 18.5647 71.5185)" fill="#7AB800" width="9.6" height="1.4"/>
	
		<rect x="64.8" y="15.7" transform="matrix(0.4456 -0.8952 0.8952 0.4456 24.7138 72.6737)" fill="#7AB800" width="12.5" height="1.4"/>
	
		<rect x="61.1" y="13.5" transform="matrix(0.3636 -0.9316 0.9316 0.3636 30.12 72.553)" fill="#7AB800" width="14.1" height="1.4"/>
	
		<rect x="55.9" y="9.8" transform="matrix(0.2788 -0.9603 0.9603 0.2788 37.2676 70.6686)" fill="#7AB800" width="19.6" height="1.4"/>
	
		<rect x="54.7" y="11.8" transform="matrix(0.1917 -0.9815 0.9815 0.1917 37.372 70.4965)" fill="#7AB800" width="13.6" height="1.4"/>
	
		<rect x="51.9" y="12" transform="matrix(0.1031 -0.9947 0.9947 0.1031 39.5003 69.1618)" fill="#7AB800" width="12.5" height="1.4"/>
	
		<rect x="49.8" y="13.2" transform="matrix(1.000002e-02 -0.9999 0.9999 1.000002e-02 39.9438 68.1312)" fill="#7AB800" width="9.2" height="1.4"/>
	
		<rect x="50.5" y="4.8" transform="matrix(0.9971 -7.636949e-02 7.636949e-02 0.9971 -0.7444 3.9419)" fill="#7AB800" width="1.4" height="13.9"/>
	
		<rect x="47.5" y="8.1" transform="matrix(0.9856 -0.1692 0.1692 0.9856 -1.5901 8.3468)" fill="#7AB800" width="1.4" height="10.7"/>
	
		<rect x="44.2" y="10.3" transform="matrix(0.9674 -0.2533 0.2533 0.9674 -2.352 11.8766)" fill="#7AB800" width="1.4" height="9.5"/>
	<rect x="40.5" y="7.9" transform="matrix(0.9408 -0.3389 0.3389 0.9408 -2.4421 14.806)" fill="#7AB800" width="1.4" height="13"/>
	<rect x="38.6" y="15.6" transform="matrix(0.9066 -0.422 0.422 0.9066 -4.2289 18.357)" fill="#7AB800" width="1.4" height="6.3"/>
	
		<rect x="35.5" y="15.2" transform="matrix(0.8652 -0.5014 0.5014 0.8652 -4.7958 20.7475)" fill="#7AB800" width="1.4" height="8.2"/>
	
		<rect x="34.5" y="22.1" transform="matrix(0.8167 -0.577 0.577 0.8167 -7.0262 24.5838)" fill="#7AB800" width="1.4" height="2.5"/>
	
		<rect x="28.7" y="15" transform="matrix(0.7618 -0.6479 0.6479 0.7618 -6.7959 24.1312)" fill="#7AB800" width="1.4" height="12.6"/>
	
		<rect x="27.2" y="19.3" transform="matrix(0.7005 -0.7136 0.7136 0.7005 -9.0667 27.1973)" fill="#7AB800" width="1.4" height="10.3"/>
	
		<rect x="23.3" y="18.4" transform="matrix(0.6338 -0.7735 0.7735 0.6338 -10.9823 27.9769)" fill="#7AB800" width="1.4" height="14.4"/>
	
		<rect x="22.1" y="22.8" transform="matrix(0.5619 -0.8272 0.8272 0.5619 -13.9617 31.5075)" fill="#7AB800" width="1.4" height="12.3"/>
	
		<rect x="16" y="18.5" transform="matrix(0.4856 -0.8742 0.8742 0.4856 -17.19 29.8255)" fill="#7AB800" width="1.4" height="22.1"/>
	
		<rect x="20.8" y="32" transform="matrix(0.4051 -0.9143 0.9143 0.4051 -20.0222 41.0307)" fill="#7AB800" width="1.4" height="7.7"/>
	
		<rect x="14.1" y="27.2" transform="matrix(0.3216 -0.9469 0.9469 0.3216 -24.883 39.0686)" fill="#7AB800" width="1.4" height="19.4"/>
	
		<rect x="12" y="29.4" transform="matrix(0.2355 -0.9719 0.9719 0.2355 -29.4401 43.1042)" fill="#7AB800" width="1.4" height="21.6"/>
	
		<rect x="17.6" y="40.6" transform="matrix(0.1475 -0.9891 0.9891 0.1475 -28.8419 56.4692)" fill="#7AB800" width="1.4" height="8.7"/>
	
		<rect x="13.9" y="40.1" transform="matrix(5.808737e-02 -0.9983 0.9983 5.808737e-02 -34.235 59.7885)" fill="#7AB800" width="1.4" height="15.8"/>
	
		<rect x="10.3" y="50.8" transform="matrix(0.9996 -2.998508e-02 2.998508e-02 0.9996 -1.5383 0.5132)" fill="#7AB800" width="12" height="1.4"/>
	<rect x="7.4" y="54.4" transform="matrix(0.9927 -0.121 0.121 0.9927 -6.556 2.2215)" fill="#7AB800" width="15.3" height="1.4"/>
	
		<rect x="13.8" y="57.2" transform="matrix(0.9778 -0.2096 0.2096 0.9778 -11.7365 5.1652)" fill="#7AB800" width="9.3" height="1.4"/>
	
		<rect x="20.6" y="59.7" transform="matrix(0.9545 -0.2983 0.2983 0.9545 -17.0146 9.4265)" fill="#7AB800" width="3.6" height="1.4"/>
	
		<rect x="13.9" y="63.8" transform="matrix(0.9246 -0.3809 0.3809 0.9246 -23.1043 12.3009)" fill="#7AB800" width="11.2" height="1.4"/>
	
		<rect x="13.7" y="67.2" transform="matrix(0.8867 -0.4624 0.4624 0.8867 -29.1108 17.0397)" fill="#7AB800" width="13" height="1.4"/>
	
		<rect x="13.4" y="70.9" transform="matrix(0.8418 -0.5398 0.5398 0.8418 -35.321 22.6701)" fill="#7AB800" width="15.3" height="1.4"/>
	
		<rect x="16.4" y="73.4" transform="matrix(0.7915 -0.6112 0.6112 0.7915 -40.4072 29.7015)" fill="#7AB800" width="13.9" height="1.4"/>
	
		<rect x="19.6" y="75.7" transform="matrix(0.7318 -0.6815 0.6815 0.7318 -45.041 38.2982)" fill="#7AB800" width="13.1" height="1.4"/>
	
		<rect x="21.6" y="78.4" transform="matrix(0.668 -0.7442 0.7442 0.668 -49.4281 47.3474)" fill="#7AB800" width="13.6" height="1.4"/>
	
		<rect x="25.3" y="80" transform="matrix(0.5986 -0.801 0.801 0.5986 -52.0279 57.5524)" fill="#7AB800" width="12.3" height="1.4"/>
	
		<rect x="32.6" y="79.3" transform="matrix(0.5241 -0.8516 0.8516 0.5241 -51.1064 68.5506)" fill="#7AB800" width="6.3" height="1.4"/>
	
		<rect x="28.1" y="85.4" transform="matrix(0.4457 -0.8952 0.8952 0.4457 -56.9905 80.2601)" fill="#7AB800" width="16.4" height="1.4"/>
	
		<rect x="34.3" y="84.9" transform="matrix(0.3637 -0.9315 0.9315 0.3637 -54.0588 92.0309)" fill="#7AB800" width="12.2" height="1.4"/>
	<rect x="40.3" y="83.9" transform="matrix(0.28 -0.96 0.96 0.28 -49.3875 103.3613)" fill="#7AB800" width="7.7" height="1.4"/>
	
		<rect x="41.3" y="86.3" transform="matrix(0.1917 -0.9815 0.9815 0.1917 -47.5154 116.3695)" fill="#7AB800" width="11.2" height="1.4"/>
	
		<rect x="44.5" y="86.8" transform="matrix(0.1031 -0.9947 0.9947 0.1031 -42.0596 128.4668)" fill="#7AB800" width="11.4" height="1.4"/>
	
		<rect x="49.8" y="85.2" transform="matrix(1.343873e-02 -0.9999 0.9999 1.343873e-02 -32.9813 138.4605)" fill="#7AB800" width="7.7" height="1.4"/>
	
		<rect x="56.2" y="81.8" transform="matrix(0.9971 -7.636949e-02 7.636949e-02 0.9971 -6.5522 4.6054)" fill="#7AB800" width="1.4" height="12.3"/>
	
		<rect x="59.8" y="81.5" transform="matrix(0.9862 -0.1656 0.1656 0.9862 -13.9113 11.2552)" fill="#7AB800" width="1.4" height="15"/>
	
		<rect x="64" y="80.7" transform="matrix(0.9674 -0.2533 0.2533 0.9674 -20.9173 19.3484)" fill="#7AB800" width="1.4" height="20.4"/>
	
		<rect x="65.7" y="79.8" transform="matrix(0.9408 -0.3389 0.3389 0.9408 -24.6627 27.5047)" fill="#7AB800" width="1.4" height="9.2"/>
	
		<rect x="69.3" y="78.5" transform="matrix(0.9067 -0.4218 0.4218 0.9067 -29.1852 37.4411)" fill="#7AB800" width="1.4" height="12.3"/>
	
		<rect x="75.3" y="76.2" transform="matrix(0.8652 -0.5015 0.5015 0.8652 -34.0073 50.0162)" fill="#7AB800" width="1.4" height="24.2"/>
	
		<rect x="75.6" y="74.9" transform="matrix(0.8167 -0.577 0.577 0.8167 -33.1617 59.0354)" fill="#7AB800" width="1.4" height="13.6"/>
	<polygon fill="#7AB800" points="74.9,75.9 74.1,75 75.2,74.1 76,74.8 	"/>
	
		<rect x="80.6" y="70.5" transform="matrix(0.7005 -0.7136 0.7136 0.7005 -30.609 81.1106)" fill="#7AB800" width="1.4" height="13"/>
	
		<rect x="81.8" y="68.5" transform="matrix(0.6338 -0.7735 0.7735 0.6338 -26.6472 90.7857)" fill="#7AB800" width="1.4" height="10.1"/>
	
		<rect x="84.7" y="65.4" transform="matrix(0.5619 -0.8272 0.8272 0.5619 -21.7189 101.9287)" fill="#7AB800" width="1.4" height="12.2"/>
	
		<rect x="85.2" y="63.4" transform="matrix(0.4854 -0.8743 0.8743 0.4854 -15.1916 110.0506)" fill="#7AB800" width="1.4" height="9"/>
	
		<rect x="90.2" y="58.2" transform="matrix(0.4051 -0.9143 0.9143 0.4051 -6.8982 122.7958)" fill="#7AB800" width="1.4" height="17.1"/>
	
		<rect x="85.3" y="59.1" transform="matrix(0.3214 -0.9469 0.9469 0.3214 0.4438 122.8867)" fill="#7AB800" width="1.4" height="4.1"/>
	<path fill="#7AB800" d="M99.5,62c0,0-14.5-3.5-14.8-3.6L85,57l14.8,3.6L99.5,62z"/>
	
		<rect x="90.7" y="49.8" transform="matrix(0.1473 -0.9891 0.9891 0.1473 22.6879 137.9846)" fill="#7AB800" width="1.4" height="12.2"/>
	
		<rect x="90.1" y="47.3" transform="matrix(5.808737e-02 -0.9983 0.9983 5.808737e-02 33.1561 140.0749)" fill="#7AB800" width="1.4" height="10.4"/>
	
		<rect x="85.7" y="48.5" transform="matrix(0.9995 -3.158516e-02 3.158516e-02 0.9995 -1.5105 2.8547)" fill="#7AB800" width="7.7" height="1.4"/>
	
		<rect x="85.6" y="45.4" transform="matrix(0.9927 -0.121 0.121 0.9927 -4.9279 11.1025)" fill="#7AB800" width="6.6" height="1.4"/>
	
		<rect x="84.9" y="41.9" transform="matrix(0.9778 -0.2094 0.2094 0.9778 -6.9321 19.7553)" fill="#7AB800" width="9.8" height="1.4"/>
	
		<rect x="84.4" y="39.6" transform="matrix(0.955 -0.2965 0.2965 0.955 -8.0414 27.5145)" fill="#7AB800" width="4.6" height="1.4"/>
	
		<rect x="83.2" y="36.2" transform="matrix(0.9247 -0.3807 0.3807 0.9247 -7.534 35.7201)" fill="#7AB800" width="6.6" height="1.4"/>
	
		<rect x="81.3" y="31.5" transform="matrix(0.8868 -0.4622 0.4622 0.8868 -4.8367 44.7376)" fill="#7AB800" width="15.2" height="1.4"/>
	
		<rect x="79.3" y="27.3" transform="matrix(0.8418 -0.5398 0.5398 0.8418 -1.0517 52.4129)" fill="#7AB800" width="19.3" height="1.4"/>
	
		<rect x="78.8" y="28.9" transform="matrix(0.7899 -0.6132 0.6132 0.7899 -1.1537 55.8726)" fill="#7AB800" width="4.4" height="1.4"/>
	<path fill="#7AB800" d="M77.9,29.2l-0.9-1.1c0.2-0.2,2.4-2.2,2.4-2.2l0.9,1.1L77.9,29.2"/>
	
		<rect x="71.2" y="16.7" transform="matrix(0.6678 -0.7443 0.7443 0.6678 14.8046 68.0558)" fill="#7AB800" width="25" height="1.4"/>
	
		<rect x="65.2" y="34.5" transform="matrix(0.5987 -0.8009 0.8009 0.5987 -1.6783 66.5194)" fill="#FF0000" width="0.6" height="0.8"/>
	
		<rect x="60.2" y="35.5" transform="matrix(0.5243 -0.8515 0.8515 0.5243 -0.6276 70.6187)" fill="#FF0000" width="5.4" height="0.8"/>
	
		<rect x="59.4" y="34.6" transform="matrix(0.4456 -0.8952 0.8952 0.4456 2.9223 74.6529)" fill="#FF0000" width="4.7" height="0.8"/>
	
		<rect x="58.2" y="33.9" transform="matrix(0.3634 -0.9316 0.9316 0.3634 6.5309 78.0607)" fill="#FF0000" width="4.4" height="0.8"/>
	
		<rect x="57.8" y="32.5" transform="matrix(0.2788 -0.9603 0.9603 0.2788 11.1149 80.5107)" fill="#FF0000" width="2.7" height="0.8"/>
	
		<rect x="55.2" y="32.9" transform="matrix(0.1915 -0.9815 0.9815 0.1915 13.7492 83.2014)" fill="#FF0000" width="4.4" height="0.8"/>
	
		<rect x="53.5" y="32.9" transform="matrix(0.1031 -0.9947 0.9947 0.1031 17.0016 85.4981)" fill="#FF0000" width="4.7" height="0.8"/>
	
		<rect x="51.5" y="33.1" transform="matrix(1.326434e-02 -0.9999 0.9999 1.326434e-02 19.978 87.3068)" fill="#FF0000" width="5.5" height="0.8"/>
	
		<rect x="52.6" y="30.6" transform="matrix(0.9968 -7.974654e-02 7.974654e-02 0.9968 -2.4488 4.3279)" fill="#FF0000" width="0.8" height="4.4"/>
	<rect x="50.9" y="31" transform="matrix(0.9862 -0.1654 0.1654 0.9862 -4.8469 8.9511)" fill="#FF0000" width="0.8" height="5.1"/>
	
		<rect x="49.4" y="31.3" transform="matrix(0.9674 -0.2533 0.2533 0.9674 -6.9983 13.7314)" fill="#FF0000" width="0.8" height="5.5"/>
	
		<rect x="47.8" y="31.8" transform="matrix(0.9408 -0.3389 0.3389 0.9408 -8.6817 18.3501)" fill="#FF0000" width="0.8" height="4.4"/>
	
		<rect x="46.8" y="32.2" transform="matrix(0.9066 -0.422 0.422 0.9066 -10.5434 23.2357)" fill="#FF0000" width="0.8" height="6.5"/>
	
		<rect x="45.3" y="33.1" transform="matrix(0.8652 -0.5015 0.5015 0.8652 -11.9415 27.7994)" fill="#FF0000" width="0.8" height="6"/>
	
		<rect x="44.6" y="33.8" transform="matrix(0.8167 -0.577 0.577 0.8167 -13.4374 32.846)" fill="#FF0000" width="0.8" height="7.6"/>
	
		<rect x="42.6" y="34.8" transform="matrix(0.7618 -0.6479 0.6479 0.7618 -13.8623 36.6856)" fill="#FF0000" width="0.8" height="4.7"/>
	
		<rect x="41.6" y="35.9" transform="matrix(0.7007 -0.7135 0.7135 0.7007 -14.9277 41.5153)" fill="#FF0000" width="0.8" height="5.4"/>
	
		<rect x="40.3" y="37.2" transform="matrix(0.6338 -0.7735 0.7735 0.6338 -15.571 45.8581)" fill="#FF0000" width="0.8" height="4.3"/>
	
		<rect x="39.6" y="38.1" transform="matrix(0.5593 -0.829 0.829 0.5593 -15.9489 51.0105)" fill="#FF0000" width="0.8" height="4.7"/>
	
		<rect x="37.6" y="40.4" transform="matrix(0.4854 -0.8743 0.8743 0.4854 -16.697 54.5357)" fill="#FF0000" width="0.8" height="2.1"/>
	
		<rect x="38.7" y="40.7" transform="matrix(0.4051 -0.9143 0.9143 0.4051 -16.7602 61.7223)" fill="#FF0000" width="0.8" height="6.2"/>
	
		<rect x="36.5" y="43.2" transform="matrix(0.3214 -0.9469 0.9469 0.3214 -17.1557 65.2078)" fill="#FF0000" width="0.8" height="2.8"/>
	<path fill="#FF0000" d="M37.1,46.6l-2.2-0.5l0.2-0.8c0.2,0,2.2,0.5,2.2,0.5L37.1,46.6z"/>
	
		<rect x="37.3" y="44.9" transform="matrix(0.1473 -0.9891 0.9891 0.1473 -15.2392 78.0592)" fill="#FF0000" width="0.8" height="5.8"/>
	
		<rect x="36.1" y="47.4" transform="matrix(5.808737e-02 -0.9983 0.9983 5.808737e-02 -14.8768 82.9122)" fill="#FF0000" width="0.8" height="3.9"/>
	
		<rect x="34.5" y="50.4" transform="matrix(0.9995 -3.141089e-02 3.141089e-02 0.9995 -1.5778 1.1861)" fill="#FF0000" width="4.9" height="0.8"/>
	<rect x="34.8" y="52" transform="matrix(0.9927 -0.121 0.121 0.9927 -6.068 4.8333)" fill="#FF0000" width="3.9" height="0.8"/>
	
		<rect x="34.9" y="53.3" transform="matrix(0.9778 -0.2094 0.2094 0.9778 -10.4149 9.0882)" fill="#FF0000" width="5.7" height="0.8"/>
	
		<rect x="35.3" y="54.7" transform="matrix(0.955 -0.2965 0.2965 0.955 -14.5771 14.0054)" fill="#FF0000" width="7.3" height="0.8"/>
	
		<rect x="35.9" y="56.4" transform="matrix(0.9247 -0.3807 0.3807 0.9247 -18.7293 18.8939)" fill="#FF0000" width="5.1" height="0.8"/>
	
		<rect x="36.4" y="57.9" transform="matrix(0.8868 -0.4621 0.4621 0.8868 -22.5326 24.5216)" fill="#FF0000" width="4.7" height="0.8"/>
	
		<rect x="37.4" y="59.4" transform="matrix(0.8417 -0.5399 0.5399 0.8417 -26.0305 30.7227)" fill="#FF0000" width="3.9" height="0.8"/>
	
		<rect x="38.1" y="60.5" transform="matrix(0.7901 -0.613 0.613 0.7901 -28.8677 37.5163)" fill="#FF0000" width="4.4" height="0.8"/>
	
		<rect x="39.1" y="61.6" transform="matrix(0.7321 -0.6812 0.6812 0.7321 -31.1184 44.8251)" fill="#FF0000" width="4.6" height="0.8"/>
	
		<rect x="40.2" y="62.7" transform="matrix(0.6678 -0.7443 0.7443 0.6678 -32.8661 52.6195)" fill="#FF0000" width="4.6" height="0.8"/>
	
		<rect x="41.5" y="63.6" transform="matrix(0.5982 -0.8014 0.8014 0.5982 -33.6892 60.8954)" fill="#FF0000" width="4.7" height="0.8"/>
	
		<rect x="42.2" y="63.8" transform="matrix(0.5243 -0.8515 0.8515 0.5243 -33.0862 69.2024)" fill="#FF0000" width="6.5" height="0.8"/>
	
		<rect x="44.2" y="65.8" transform="matrix(0.4457 -0.8952 0.8952 0.4457 -33.7167 77.9745)" fill="#FF0000" width="3.8" height="0.8"/>
	
		<rect x="45.3" y="66" transform="matrix(0.3641 -0.9314 0.9314 0.3641 -31.4626 86.6199)" fill="#FF0000" width="4.9" height="0.8"/>
	
		<rect x="46.3" y="65.8" transform="matrix(0.2788 -0.9603 0.9603 0.2788 -27.8941 95.17)" fill="#FF0000" width="6.2" height="0.8"/>
	
		<rect x="48.1" y="66.5" transform="matrix(0.1915 -0.9815 0.9815 0.1915 -24.594 103.863)" fill="#FF0000" width="5.2" height="0.8"/>
	
		<rect x="49.8" y="66.8" transform="matrix(0.103 -0.9947 0.9947 0.103 -19.8594 112.3488)" fill="#FF0000" width="5.1" height="0.8"/>
	
		<rect x="50.7" y="66.5" transform="matrix(1.343873e-02 -0.9999 0.9999 1.343873e-02 -13.7958 119.7781)" fill="#FF0000" width="6.2" height="0.8"/>
	
		<rect x="55" y="64.8" transform="matrix(0.9971 -7.636949e-02 7.636949e-02 0.9971 -4.977 4.4266)" fill="#FF0000" width="0.8" height="4.9"/>
	
		<rect x="56.6" y="65.6" transform="matrix(0.9862 -0.1654 0.1654 0.9862 -10.3919 10.3624)" fill="#FF0000" width="0.8" height="3.9"/>
	
		<rect x="58.3" y="66.5" transform="matrix(0.9674 -0.2531 0.2531 0.9674 -15.2721 17.0652)" fill="#FF0000" width="0.8" height="2.7"/>
	
		<rect x="59.3" y="63.1" transform="matrix(0.9408 -0.3389 0.3389 0.9408 -18.8302 24.1332)" fill="#FF0000" width="0.8" height="5.7"/>
	
		<rect x="60.9" y="63.6" transform="matrix(0.9067 -0.4218 0.4218 0.9067 -22.1012 32.0081)" fill="#FF0000" width="0.8" height="4.7"/>
	
		<rect x="63.1" y="66" transform="matrix(0.8652 -0.5014 0.5014 0.8652 -24.8951 40.8271)" fill="#FF0000" width="0.8" height="1.4"/>
	
		<rect x="63.7" y="62.2" transform="matrix(0.8168 -0.5769 0.5769 0.8168 -25.4388 48.7779)" fill="#FF0000" width="0.8" height="4.4"/>
	
		<rect x="63.7" y="58.3" transform="matrix(0.7618 -0.6479 0.6479 0.7618 -25.0528 56.3748)" fill="#FF0000" width="0.8" height="7.9"/>
	
		<rect x="66" y="60.1" transform="matrix(0.7005 -0.7136 0.7136 0.7005 -24.6636 66.0729)" fill="#FF0000" width="0.8" height="4.6"/>
	
		<rect x="66.6" y="58.4" transform="matrix(0.6339 -0.7734 0.7734 0.6339 -22.6907 74.1887)" fill="#FF0000" width="0.8" height="5.4"/>
	
		<rect x="67.9" y="57.7" transform="matrix(0.5619 -0.8272 0.8272 0.5619 -19.7359 82.7902)" fill="#FF0000" width="0.8" height="4.7"/>
	
		<rect x="68.3" y="55.6" transform="matrix(0.4856 -0.8742 0.8742 0.4856 -15.714 90.1433)" fill="#FF0000" width="0.8" height="5.7"/>
	
		<rect x="70" y="55.9" transform="matrix(0.4051 -0.9143 0.9143 0.4051 -10.8107 98.6525)" fill="#FF0000" width="0.8" height="3.5"/>
	
		<rect x="68.8" y="52" transform="matrix(0.3218 -0.9468 0.9468 0.3218 -5.6597 103.1373)" fill="#FF0000" width="0.8" height="7.1"/>
	
		<rect x="70.7" y="52.5" transform="matrix(0.2357 -0.9718 0.9718 0.2357 1.4412 110.7003)" fill="#FF0000" width="0.8" height="3.9"/>
	
		<rect x="70.7" y="50.4" transform="matrix(0.1476 -0.989 0.989 0.1476 8.3662 115.3036)" fill="#FF0000" width="0.8" height="4.7"/>
	
		<rect x="70.5" y="48.7" transform="matrix(5.808737e-02 -0.9983 0.9983 5.808737e-02 15.5764 119.1544)" fill="#FF0000" width="0.8" height="5.2"/>
	
		<rect x="67.6" y="49.4" transform="matrix(0.9995 -3.106235e-02 3.106235e-02 0.9995 -1.5142 2.2161)" fill="#FF0000" width="6" height="0.8"/>
	<rect x="67.1" y="47.9" transform="matrix(0.9927 -0.121 0.121 0.9927 -5.3305 8.8564)" fill="#FF0000" width="6.3" height="0.8"/>
	
		<rect x="67.7" y="46.4" transform="matrix(0.9778 -0.2094 0.2094 0.9778 -8.2412 15.796)" fill="#FF0000" width="5.5" height="0.8"/>
	
		<rect x="66.5" y="45.1" transform="matrix(0.9545 -0.2983 0.2983 0.9545 -10.3798 22.9584)" fill="#FF0000" width="7" height="0.8"/>
	
		<rect x="66.1" y="43.7" transform="matrix(0.9247 -0.3806 0.3806 0.9247 -11.5543 29.6927)" fill="#FF0000" width="6.3" height="0.8"/>
	<path fill="#FF0000" d="M71.4,41.3l0.2,0.3l-3.6,1.9l-0.3-0.6l3.6-1.9L71.4,41.3z"/>
	
		<rect x="68.1" y="40.1" transform="matrix(0.8419 -0.5397 0.5397 0.8419 -10.8867 43.9115)" fill="#FF0000" width="2.7" height="0.8"/>
	
		<rect x="63.2" y="40.1" transform="matrix(0.7901 -0.613 0.613 0.7901 -10.8286 49.4575)" fill="#FF0000" width="7.1" height="0.8"/>
	
		<rect x="62.1" y="39" transform="matrix(0.7318 -0.6815 0.6815 0.7318 -9.2392 55.3809)" fill="#FF0000" width="7.3" height="0.8"/>
	
		<rect x="66.1" y="36" transform="matrix(0.6681 -0.7441 0.7441 0.6681 -4.9171 61.6953)" fill="#FF0000" width="1.3" height="0.8"/>
</g>
<rect x="113" y="42.9" fill="none" width="431" height="28"/>
<text transform="matrix(1 0 0 1 113 60.7804)" fill="#7AB800" font-family="'Lato-Bold'" font-size="24" letter-spacing="4">OPEN KNOWLEDGE ESPAÑA</text>
</svg>
