<?xml version="1.0" encoding="utf-8"?>
<!-- Generator: Adobe Illustrator 18.0.0, SVG Export Plug-In . SVG Version: 6.00 Build 0)  -->
<!DOCTYPE svg PUBLIC "-//W3C//DTD SVG 1.1//EN" "http://www.w3.org/Graphics/SVG/1.1/DTD/svg11.dtd">
<svg version="1.1" id="Layer_1" xmlns="http://www.w3.org/2000/svg" xmlns:xlink="http://www.w3.org/1999/xlink" x="0px" y="0px"
	 viewBox="327.1 0 62 63.3" enable-background="new 327.1 0 62 63.3" xml:space="preserve">
<title>standard-logo-rgb</title>
<path fill="#7AB800" d="M372.4,15.5l-0.7-0.6c0.1-0.2,10.5-14,10.5-14l0.7,0.6L372.4,15.5"/>
<rect x="369.1" y="11.1" transform="matrix(-0.5243 0.8515 -0.8515 -0.5243 577.1454 -299.2865)" fill="#7AB800" width="6.1" height="0.9"/>
<rect x="366.8" y="9.3" transform="matrix(-0.4456 0.8952 -0.8952 -0.4456 544.6953 -317.7543)" fill="#7AB800" width="7.9" height="0.9"/>
<rect x="364.5" y="8" transform="matrix(-0.3636 0.9316 -0.9316 -0.3636 510.9642 -332.2063)" fill="#7AB800" width="8.9" height="0.9"/>
<rect x="361.2" y="5.6" transform="matrix(-0.2788 0.9603 -0.9603 -0.2788 475.6165 -345.0415)" fill="#7AB800" width="12.4" height="0.9"/>
<rect x="360.4" y="6.9" transform="matrix(-0.1917 0.9815 -0.9815 -0.1917 441.8434 -349.1678)" fill="#7AB800" width="8.6" height="0.9"/>
<rect x="358.6" y="6.9" transform="matrix(-0.1031 0.9947 -0.9947 -0.1031 407.2642 -352.4195)" fill="#7AB800" width="7.9" height="0.9"/>
<rect x="357.3" y="7.8" transform="matrix(-9.999510e-03 0.9999 -0.9999 -9.999510e-03 372.07 -351.8611)" fill="#7AB800" width="5.8" height="0.9"/>
<rect x="357.7" y="2.5" transform="matrix(-0.9971 7.637106e-02 -7.637106e-02 -0.9971 715.8243 -13.6377)" fill="#7AB800" width="0.9" height="8.8"/>
<rect x="355.9" y="4.6" transform="matrix(-0.9856 0.1692 -0.1692 -0.9856 708.8675 -44.4358)" fill="#7AB800" width="0.9" height="6.8"/>
<rect x="353.7" y="5.9" transform="matrix(-0.9674 0.2533 -0.2533 -0.9674 699.1073 -72.1293)" fill="#7AB800" width="0.9" height="6"/>
<rect x="351.4" y="4.4" transform="matrix(-0.9408 0.3389 -0.3389 -0.9408 685.7607 -102.7067)" fill="#7AB800" width="0.9" height="8.2"/>
<rect x="350.3" y="9.2" transform="matrix(-0.9066 0.422 -0.422 -0.9066 673.424 -126.5793)" fill="#7AB800" width="0.9" height="4"/>
<rect x="348.2" y="9.1" transform="matrix(-0.8652 0.5014 -0.5014 -0.8652 656.2245 -153.0512)" fill="#7AB800" width="0.9" height="5.2"/>
<rect x="347.5" y="13.4" transform="matrix(-0.8167 0.577 -0.577 -0.8167 640.4344 -174.9616)" fill="#7AB800" width="0.9" height="1.6"/>
<rect x="344" y="9" transform="matrix(-0.7618 0.6479 -0.6479 -0.7618 615.2394 -200.3531)" fill="#7AB800" width="0.9" height="8"/>
<rect x="342.9" y="11.7" transform="matrix(-0.7005 0.7136 -0.7136 -0.7005 594.6241 -219.6699)" fill="#7AB800" width="0.9" height="6.5"/>
<rect x="340.5" y="11.1" transform="matrix(-0.6338 0.7735 -0.7735 -0.6338 569.2231 -238.1832)" fill="#7AB800" width="0.9" height="9.1"/>
<rect x="339.7" y="13.9" transform="matrix(-0.5619 0.8272 -0.8272 -0.5619 546.0612 -253.6284)" fill="#7AB800" width="0.9" height="7.8"/>
<rect x="335.9" y="11.1" transform="matrix(-0.4856 0.8742 -0.8742 -0.4856 515.5524 -267.1361)" fill="#7AB800" width="0.9" height="14"/>
<rect x="339" y="19.7" transform="matrix(-0.4051 0.9143 -0.9143 -0.4051 497.1801 -279.2349)" fill="#7AB800" width="0.9" height="4.9"/>
<rect x="334.7" y="16.7" transform="matrix(-0.3216 0.9469 -0.9469 -0.3216 464.6006 -287.2216)" fill="#7AB800" width="0.9" height="12.3"/>
<rect x="333.4" y="18.1" transform="matrix(-0.2355 0.9719 -0.9719 -0.2355 436.6923 -293.6793)" fill="#7AB800" width="0.9" height="13.7"/>
<rect x="337" y="25.2" transform="matrix(-0.1475 0.9891 -0.9891 -0.1475 414.8227 -301.7599)" fill="#7AB800" width="0.9" height="5.5"/>
<rect x="334.6" y="24.8" transform="matrix(-5.808675e-02 0.9983 -0.9983 -5.808675e-02 384.2286 -302.9161)" fill="#7AB800" width="0.9" height="10"/>
<rect x="332.3" y="31.6" transform="matrix(-0.9996 2.998657e-02 -2.998657e-02 -0.9996 673.0688 54.0144)" fill="#7AB800" width="7.6" height="0.9"/>
<rect x="330.4" y="33.8" transform="matrix(-0.9927 0.121 -0.121 -0.9927 672.248 27.7368)" fill="#7AB800" width="9.7" height="0.9"/>
<rect x="334.6" y="35.6" transform="matrix(-0.9778 0.2096 -0.2096 -0.9778 675.1204 0.6115)" fill="#7AB800" width="5.9" height="0.9"/>
<rect x="338.9" y="37.2" transform="matrix(-0.9545 0.2983 -0.2983 -0.9545 675.7687 -27.8059)" fill="#7AB800" width="2.3" height="0.9"/>
<rect x="334.7" y="39.8" transform="matrix(-0.9246 0.3809 -0.3809 -0.9246 666.2328 -51.3568)" fill="#7AB800" width="7.1" height="0.9"/>
<rect x="334.5" y="42" transform="matrix(-0.8867 0.4624 -0.4624 -0.8867 658.4538 -76.515)" fill="#7AB800" width="8.2" height="0.9"/>
<rect x="334.2" y="44.2" transform="matrix(-0.8418 0.5398 -0.5398 -0.8418 648.6133 -100.6884)" fill="#7AB800" width="9.7" height="0.9"/>
<rect x="336.1" y="45.9" transform="matrix(-0.7915 0.6112 -0.6112 -0.7915 638.3969 -125.1148)" fill="#7AB800" width="8.8" height="0.9"/>
<rect x="338.1" y="47.3" transform="matrix(-0.7318 0.6815 -0.6815 -0.7318 625.3434 -150.5273)" fill="#7AB800" width="8.3" height="0.9"/>
<rect x="339.5" y="48.9" transform="matrix(-0.668 0.7442 -0.7442 -0.668 610.1252 -173.4146)" fill="#7AB800" width="8.6" height="0.9"/>
<rect x="341.8" y="50" transform="matrix(-0.5986 0.801 -0.801 -0.5986 593.0287 -196.2019)" fill="#7AB800" width="7.8" height="0.9"/>
<rect x="346.5" y="49.6" transform="matrix(-0.5241 0.8516 -0.8516 -0.5241 573.7212 -220.4814)" fill="#7AB800" width="4" height="0.9"/>
<rect x="343.6" y="53.4" transform="matrix(-0.4457 0.8952 -0.8952 -0.4457 552.4496 -234.2865)" fill="#7AB800" width="10.4" height="0.9"/>
<rect x="347.5" y="53.1" transform="matrix(-0.3637 0.9315 -0.9315 -0.3637 528.9969 -254.2046)" fill="#7AB800" width="7.7" height="0.9"/>
<rect x="351.3" y="52.5" transform="matrix(-0.28 0.96 -0.96 -0.28 503.6659 -271.7925)" fill="#7AB800" width="4.9" height="0.9"/>
<rect x="352" y="54" transform="matrix(-0.1917 0.9815 -0.9815 -0.1917 477.08 -284.0172)" fill="#7AB800" width="7.1" height="0.9"/>
<rect x="354" y="54.4" transform="matrix(-0.1031 0.9947 -0.9947 -0.1031 449.0045 -295.2009)" fill="#7AB800" width="7.2" height="0.9"/>
<rect x="357.3" y="53.3" transform="matrix(-1.343858e-02 0.9999 -0.9999 -1.343858e-02 418.3528 -305.163)" fill="#7AB800" width="4.9" height="0.9"/>
<rect x="361.4" y="51.3" transform="matrix(-0.9971 7.637106e-02 -7.637106e-02 -0.9971 726.8557 82.5182)" fill="#7AB800" width="0.9" height="7.8"/>
<rect x="363.7" y="51" transform="matrix(-0.9862 0.1656 -0.1656 -0.9862 732.4763 50.4746)" fill="#7AB800" width="0.9" height="9.5"/>
<rect x="366.3" y="50.5" transform="matrix(-0.9674 0.2533 -0.2533 -0.9674 735.9596 19.1665)" fill="#7AB800" width="0.9" height="12.9"/>
<rect x="367.3" y="50" transform="matrix(-0.9408 0.3389 -0.3389 -0.9408 731.7502 -22.0296)" fill="#7AB800" width="0.9" height="5.8"/>
<rect x="369.7" y="49.1" transform="matrix(-0.9067 0.4218 -0.4218 -0.9067 728.0972 -55.0424)" fill="#7AB800" width="0.9" height="7.8"/>
<rect x="373.5" y="47.6" transform="matrix(-0.8652 0.5015 -0.5015 -0.8652 725.1599 -84.4452)" fill="#7AB800" width="0.9" height="15.3"/>
<rect x="373.6" y="46.9" transform="matrix(-0.8167 0.577 -0.577 -0.8167 709.158 -122.8558)" fill="#7AB800" width="0.9" height="8.6"/>
<polygon fill="#7AB800" points="373.2,47.5 372.7,46.9 373.4,46.3 373.9,46.8 "/>
<rect x="376.8" y="44.1" transform="matrix(-0.7005 0.7136 -0.7136 -0.7005 675.9415 -187.2586)" fill="#7AB800" width="0.9" height="8.2"/>
<rect x="377.5" y="42.8" transform="matrix(-0.6338 0.7735 -0.7735 -0.6338 653.1803 -217.2156)" fill="#7AB800" width="0.9" height="6.4"/>
<rect x="379.3" y="40.9" transform="matrix(-0.5619 0.8272 -0.8272 -0.5619 630.2345 -244.3183)" fill="#7AB800" width="0.9" height="7.7"/>
<rect x="379.6" y="39.5" transform="matrix(-0.4854 0.8743 -0.8743 -0.4854 601.668 -269.295)" fill="#7AB800" width="0.9" height="5.7"/>
<rect x="382.9" y="36.2" transform="matrix(-0.4051 0.9143 -0.9143 -0.4051 576.672 -291.9984)" fill="#7AB800" width="0.9" height="10.8"/>
<rect x="379.8" y="36.9" transform="matrix(-0.3214 0.9469 -0.9469 -0.3214 538.5954 -309.6575)" fill="#7AB800" width="0.9" height="2.6"/>
<path fill="#7AB800" d="M388.8,38.7c0,0-9.2-2.2-9.4-2.3l0.2-0.9l9.4,2.3L388.8,38.7z"/>
<rect x="383.2" y="31" transform="matrix(-0.1473 0.9891 -0.9891 -0.1473 474.6166 -339.5659)" fill="#7AB800" width="0.9" height="7.7"/>
<rect x="382.9" y="29.4" transform="matrix(-5.808675e-02 0.9983 -0.9983 -5.808675e-02 438.1907 -348.1613)" fill="#7AB800" width="0.9" height="6.6"/>
<rect x="380.1" y="30.1" transform="matrix(-0.9995 3.158512e-02 -3.158512e-02 -0.9995 765.8393 49.0459)" fill="#7AB800" width="4.9" height="0.9"/>
<rect x="379.9" y="28.1" transform="matrix(-0.9927 0.121 -0.121 -0.9927 764.7736 10.7461)" fill="#7AB800" width="4.2" height="0.9"/>
<rect x="379.6" y="26" transform="matrix(-0.9778 0.2094 -0.2094 -0.9778 762.4002 -27.8737)" fill="#7AB800" width="6.2" height="0.9"/>
<rect x="379.1" y="24.4" transform="matrix(-0.955 0.2965 -0.2965 -0.955 751.463 -64.1857)" fill="#7AB800" width="2.9" height="0.9"/>
<rect x="378.4" y="22.4" transform="matrix(-0.9247 0.3807 -0.3807 -0.9247 741.1161 -100.9401)" fill="#7AB800" width="4.2" height="0.9"/>
<rect x="377.3" y="19.3" transform="matrix(-0.8868 0.4622 -0.4622 -0.8868 730.0431 -139.2575)" fill="#7AB800" width="9.6" height="0.9"/>
<rect x="376" y="16.7" transform="matrix(-0.8418 0.5398 -0.5398 -0.8418 712.9739 -174.6702)" fill="#7AB800" width="12.2" height="0.9"/>
<rect x="375.6" y="17.6" transform="matrix(-0.7899 0.6132 -0.6132 -0.7899 685.9091 -198.7431)" fill="#7AB800" width="2.8" height="0.9"/>
<path fill="#7AB800" d="M375.1,17.9l-0.6-0.7c0.1-0.1,1.5-1.4,1.5-1.4l0.6,0.7L375.1,17.9"/>
<rect x="370.8" y="10" transform="matrix(-0.6678 0.7443 -0.7443 -0.6678 639.4204 -264.4214)" fill="#7AB800" width="15.8" height="0.9"/>
<rect x="367.2" y="21.3" transform="matrix(-0.5987 0.8009 -0.8009 -0.5987 604.5109 -259.8089)" fill="#FF0000" width="0.4" height="0.5"/>
<rect x="363.9" y="22" transform="matrix(-0.5243 0.8515 -0.8515 -0.5243 576.2381 -277.5102)" fill="#FF0000" width="3.4" height="0.5"/>
<rect x="363.4" y="21.3" transform="matrix(-0.4456 0.8952 -0.8952 -0.4456 546.7664 -295.4956)" fill="#FF0000" width="3" height="0.5"/>
<rect x="362.7" y="20.8" transform="matrix(-0.3634 0.9316 -0.9316 -0.3634 515.9445 -310.4387)" fill="#FF0000" width="2.8" height="0.5"/>
<rect x="362.4" y="20" transform="matrix(-0.2788 0.9603 -0.9603 -0.2788 483.9664 -322.96)" fill="#FF0000" width="1.7" height="0.5"/>
<rect x="360.7" y="20.3" transform="matrix(-0.1915 0.9815 -0.9815 -0.1915 451.6278 -330.9892)" fill="#FF0000" width="2.8" height="0.5"/>
<rect x="359.7" y="20.2" transform="matrix(-0.1031 0.9947 -0.9947 -0.1031 418.7688 -336.6586)" fill="#FF0000" width="3" height="0.5"/>
<rect x="358.4" y="20.5" transform="matrix(-1.326419e-02 0.9999 -0.9999 -1.326419e-02 385.6462 -339.1875)" fill="#FF0000" width="3.5" height="0.5"/>
<rect x="359.2" y="18.9" transform="matrix(-0.9968 7.974532e-02 -7.974532e-02 -0.9968 719.2387 11.7731)" fill="#FF0000" width="0.5" height="2.8"/>
<rect x="358" y="19.1" transform="matrix(-0.9862 0.1654 -0.1654 -0.9862 715.0121 -18.16)" fill="#FF0000" width="0.5" height="3.2"/>
<rect x="357.1" y="19.3" transform="matrix(-0.9674 0.2533 -0.2533 -0.9674 708.3698 -49.1771)" fill="#FF0000" width="0.5" height="3.5"/>
<rect x="356.1" y="19.6" transform="matrix(-0.9408 0.3389 -0.3389 -0.9408 698.6793 -80.0408)" fill="#FF0000" width="0.5" height="2.8"/>
<rect x="355.4" y="19.9" transform="matrix(-0.9066 0.422 -0.422 -0.9066 687.3807 -108.3276)" fill="#FF0000" width="0.5" height="4.1"/>
<rect x="354.6" y="20.3" transform="matrix(-0.8652 0.5015 -0.5015 -0.8652 672.891 -136.4682)" fill="#FF0000" width="0.5" height="3.8"/>
<rect x="354.1" y="20.7" transform="matrix(-0.8167 0.577 -0.577 -0.8167 657.0007 -162.3821)" fill="#FF0000" width="0.5" height="4.8"/>
<rect x="352.7" y="21.5" transform="matrix(-0.7618 0.6479 -0.6479 -0.7618 636.7623 -188.187)" fill="#FF0000" width="0.5" height="3"/>
<rect x="352.2" y="22.1" transform="matrix(-0.7007 0.7135 -0.7135 -0.7007 616.3351 -210.9689)" fill="#FF0000" width="0.5" height="3.4"/>
<rect x="351.3" y="22.9" transform="matrix(-0.6338 0.7735 -0.7735 -0.6338 593.0951 -232.2046)" fill="#FF0000" width="0.5" height="2.7"/>
<rect x="350.8" y="23.5" transform="matrix(-0.5593 0.829 -0.829 -0.5593 568.184 -251.9722)" fill="#FF0000" width="0.5" height="3"/>
<rect x="349.6" y="24.9" transform="matrix(-0.4854 0.8743 -0.8743 -0.4854 541.9926 -267.8069)" fill="#FF0000" width="0.5" height="1.3"/>
<rect x="350.3" y="25.1" transform="matrix(-0.4051 0.9143 -0.9143 -0.4051 517.2537 -282.4364)" fill="#FF0000" width="0.5" height="3.9"/>
<rect x="349" y="26.7" transform="matrix(-0.3214 0.9469 -0.9469 -0.3214 487.55 -294.1928)" fill="#FF0000" width="0.5" height="1.8"/>
<path fill="#FF0000" d="M349.3,28.9l-1.4-0.3l0.1-0.5c0.1,0,1.4,0.3,1.4,0.3L349.3,28.9z"/>
<rect x="349.4" y="27.9" transform="matrix(-0.1473 0.9891 -0.9891 -0.1473 430.56 -311.7301)" fill="#FF0000" width="0.5" height="3.7"/>
<rect x="348.7" y="29.4" transform="matrix(-5.808675e-02 0.9983 -0.9983 -5.808675e-02 399.7683 -315.9182)" fill="#FF0000" width="0.5" height="2.5"/>
<rect x="347.7" y="31.4" transform="matrix(-0.9995 3.141068e-02 -3.141068e-02 -0.9995 699.2625 52.2547)" fill="#FF0000" width="3.1" height="0.5"/>
<rect x="347.7" y="32.4" transform="matrix(-0.9927 0.121 -0.121 -0.9927 699.4227 22.7736)" fill="#FF0000" width="2.5" height="0.5"/>
<rect x="347.9" y="33.3" transform="matrix(-0.9778 0.2094 -0.2094 -0.9778 698.6298 -6.986)" fill="#FF0000" width="3.6" height="0.5"/>
<rect x="348.1" y="34" transform="matrix(-0.955 0.2965 -0.2965 -0.955 695.1971 -36.9059)" fill="#FF0000" width="4.6" height="0.5"/>
<rect x="348.5" y="35.1" transform="matrix(-0.9247 0.3807 -0.3807 -0.9247 687.2965 -65.2196)" fill="#FF0000" width="3.2" height="0.5"/>
<rect x="348.9" y="36.1" transform="matrix(-0.8868 0.4621 -0.4621 -0.8868 677.8859 -93.379)" fill="#FF0000" width="3" height="0.5"/>
<rect x="349.4" y="37" transform="matrix(-0.8417 0.5399 -0.5399 -0.8417 665.9803 -120.7096)" fill="#FF0000" width="2.5" height="0.5"/>
<rect x="350" y="37.8" transform="matrix(-0.79 0.613 -0.613 -0.79 652.2619 -147.3701)" fill="#FF0000" width="2.8" height="0.5"/>
<rect x="350.6" y="38.5" transform="matrix(-0.7321 0.6812 -0.6812 -0.7321 636.1539 -172.7911)" fill="#FF0000" width="2.9" height="0.5"/>
<rect x="351.3" y="39.2" transform="matrix(-0.6678 0.7443 -0.7443 -0.6678 617.6407 -196.8187)" fill="#FF0000" width="2.9" height="0.5"/>
<rect x="352" y="39.7" transform="matrix(-0.5982 0.8014 -0.8014 -0.5982 597.0507 -219.4327)" fill="#FF0000" width="3" height="0.5"/>
<rect x="352.6" y="39.9" transform="matrix(-0.5243 0.8515 -0.8515 -0.5243 574.6633 -240.8596)" fill="#FF0000" width="4.1" height="0.5"/>
<rect x="353.9" y="41.1" transform="matrix(-0.4457 0.8952 -0.8952 -0.4457 550.2654 -258.117)" fill="#FF0000" width="2.4" height="0.5"/>
<rect x="354.6" y="41.2" transform="matrix(-0.3641 0.9314 -0.9314 -0.3641 524.272 -275.2004)" fill="#FF0000" width="3.1" height="0.5"/>
<rect x="355.2" y="41.1" transform="matrix(-0.2788 0.9603 -0.9603 -0.2788 496.36 -290.1392)" fill="#FF0000" width="3.9" height="0.5"/>
<rect x="356.3" y="41.6" transform="matrix(-0.1915 0.9815 -0.9815 -0.1915 467.542 -301.5654)" fill="#FF0000" width="3.3" height="0.5"/>
<rect x="357.3" y="41.7" transform="matrix(-0.103 0.9947 -0.9947 -0.103 437.636 -310.7225)" fill="#FF0000" width="3.2" height="0.5"/>
<rect x="358" y="41.5" transform="matrix(-1.343858e-02 0.9999 -0.9999 -1.343858e-02 406.4359 -317.5916)" fill="#FF0000" width="3.9" height="0.5"/>
<rect x="360.6" y="40.6" transform="matrix(-0.9971 7.637106e-02 -7.637106e-02 -0.9971 723.8805 56.489)" fill="#FF0000" width="0.5" height="3.1"/>
<rect x="361.6" y="41" transform="matrix(-0.9862 0.1654 -0.1654 -0.9862 725.7359 24.0185)" fill="#FF0000" width="0.5" height="2.5"/>
<rect x="362.7" y="41.6" transform="matrix(-0.9674 0.2531 -0.2531 -0.9674 724.8083 -8.3973)" fill="#FF0000" width="0.5" height="1.7"/>
<rect x="363.4" y="39.5" transform="matrix(-0.9408 0.3389 -0.3389 -0.9408 719.6967 -43.1919)" fill="#FF0000" width="0.5" height="3.6"/>
<rect x="364.4" y="39.6" transform="matrix(-0.9067 0.4218 -0.4218 -0.9067 712.56 -75.3669)" fill="#FF0000" width="0.5" height="3"/>
<rect x="365.8" y="41.1" transform="matrix(-0.8652 0.5014 -0.5014 -0.8652 703.5253 -105.9299)" fill="#FF0000" width="0.5" height="0.9"/>
<rect x="366.1" y="38.9" transform="matrix(-0.8168 0.5769 -0.5769 -0.8168 688.8473 -138.2104)" fill="#FF0000" width="0.5" height="2.8"/>
<rect x="366.2" y="36.3" transform="matrix(-0.7618 0.6479 -0.6479 -0.7618 670.6875 -169.0342)" fill="#FF0000" width="0.5" height="5"/>
<rect x="367.6" y="37.5" transform="matrix(-0.7005 0.7136 -0.7136 -0.7005 653.2963 -196.2738)" fill="#FF0000" width="0.5" height="2.9"/>
<rect x="368.1" y="36.4" transform="matrix(-0.6339 0.7734 -0.7734 -0.6339 631.1841 -222.6516)" fill="#FF0000" width="0.5" height="3.4"/>
<rect x="368.8" y="35.9" transform="matrix(-0.5619 0.8272 -0.8272 -0.5619 607.3326 -246.8396)" fill="#FF0000" width="0.5" height="3"/>
<rect x="369" y="34.6" transform="matrix(-0.4856 0.8742 -0.8742 -0.4856 580.4363 -268.7141)" fill="#FF0000" width="0.5" height="3.6"/>
<rect x="370.1" y="34.7" transform="matrix(-0.4051 0.9143 -0.9143 -0.4051 553.121 -288.2004)" fill="#FF0000" width="0.5" height="2.2"/>
<rect x="369.4" y="32.3" transform="matrix(-0.3218 0.9468 -0.9468 -0.3218 521.2422 -304.2966)" fill="#FF0000" width="0.5" height="4.5"/>
<rect x="370.6" y="32.7" transform="matrix(-0.2357 0.9718 -0.9718 -0.2357 491.2049 -318.5073)" fill="#FF0000" width="0.5" height="2.5"/>
<rect x="370.5" y="31.4" transform="matrix(-0.1476 0.989 -0.989 -0.1476 458.0494 -328.9684)" fill="#FF0000" width="0.5" height="3"/>
<rect x="370.5" y="30.3" transform="matrix(-5.808675e-02 0.9983 -0.9983 -5.808675e-02 424.1283 -336.3505)" fill="#FF0000" width="0.5" height="3.3"/>
<rect x="368.6" y="30.7" transform="matrix(-0.9995 3.106181e-02 -3.106181e-02 -0.9995 741.7438 50.4027)" fill="#FF0000" width="3.8" height="0.5"/>
<rect x="368.4" y="29.8" transform="matrix(-0.9927 0.121 -0.121 -0.9927 741.6048 15.0263)" fill="#FF0000" width="4" height="0.5"/>
<rect x="368.7" y="28.8" transform="matrix(-0.9778 0.2094 -0.2094 -0.9778 738.7167 -20.1059)" fill="#FF0000" width="3.5" height="0.5"/>
<rect x="367.9" y="28" transform="matrix(-0.9545 0.2983 -0.2983 -0.9545 731.8094 -55.2184)" fill="#FF0000" width="4.4" height="0.5"/>
<rect x="367.6" y="27.1" transform="matrix(-0.9247 0.3806 -0.3806 -0.9247 721.8418 -88.0626)" fill="#FF0000" width="4" height="0.5"/>
<path fill="#FF0000" d="M371,25.6l0.1,0.2l-2.3,1.2l-0.2-0.4l2.3-1.2L371,25.6z"/>
<rect x="368.8" y="24.8" transform="matrix(-0.8419 0.5397 -0.5397 -0.8419 694.511 -153.3268)" fill="#FF0000" width="1.7" height="0.5"/>
<rect x="365.8" y="24.8" transform="matrix(-0.79 0.613 -0.613 -0.79 674.1914 -180.7383)" fill="#FF0000" width="4.5" height="0.5"/>
<rect x="365.1" y="24.2" transform="matrix(-0.7318 0.6815 -0.6815 -0.7318 652.9396 -208.1056)" fill="#FF0000" width="4.6" height="0.5"/>
<rect x="367.7" y="22.1" transform="matrix(-0.6681 0.7441 -0.7441 -0.6681 630.5731 -236.5297)" fill="#FF0000" width="0.8" height="0.5"/>
</svg>
