<?xml version="1.0" encoding="utf-8"?>
<!-- Generator: Adobe Illustrator 18.0.0, SVG Export Plug-In . SVG Version: 6.00 Build 0)  -->
<!DOCTYPE svg PUBLIC "-//W3C//DTD SVG 1.1//EN" "http://www.w3.org/Graphics/SVG/1.1/DTD/svg11.dtd">
<svg version="1.1" id="Layer_1" xmlns="http://www.w3.org/2000/svg" xmlns:xlink="http://www.w3.org/1999/xlink" x="0px" y="0px"
	 viewBox="81.9 6.1 235.2 100" enable-background="new 81.9 6.1 235.2 100" xml:space="preserve">
<rect x="142.3" y="32.2" fill="none" width="174.7" height="73.9"/>
<g enable-background="new    ">
	<path d="M144.8,34.3l-0.2,2.6l0,0c0.2-0.3,0.4-0.6,0.8-0.7c0.3-0.1,0.8-0.2,1.2-0.2c0.6,0,1,0.1,1.3,0.3s0.7,0.4,0.8,0.8
		c0.2,0.3,0.3,0.7,0.4,1.1s0.1,0.9,0.1,1.3c0,0.7,0,1.2-0.1,1.7c-0.1,0.4-0.3,0.9-0.6,1.3c-0.2,0.3-0.7,0.7-1.1,0.8
		c-0.4,0.2-1,0.2-1.8,0.2c-0.7,0-1.2-0.1-1.7-0.3c-0.4-0.2-0.8-0.4-1-0.8c-0.2-0.3-0.3-0.7-0.4-1c-0.1-0.3-0.1-0.7-0.1-1v-0.3h2.1
		c0,0.2,0,0.3,0,0.6s0.1,0.4,0.1,0.6c0.1,0.2,0.2,0.3,0.3,0.4s0.3,0.2,0.6,0.2c0.4,0,0.8-0.2,1-0.6c0.2-0.3,0.3-0.9,0.3-1.6
		c0-0.4,0-0.9-0.1-1.1c0-0.3-0.1-0.6-0.2-0.7c-0.1-0.2-0.2-0.3-0.4-0.3c-0.1-0.1-0.3-0.1-0.7-0.1c-0.3,0-0.6,0.1-0.8,0.2
		c-0.2,0.2-0.2,0.4-0.3,0.8h-2l0.4-6h5.8v1.8L144.8,34.3L144.8,34.3z"/>
	<path d="M154.8,39.7h-4.3v-1.9h4.3V39.7z"/>
	<path d="M162.6,34.3c-0.4,0.7-0.9,1.3-1.2,2.1c-0.3,0.8-0.7,1.4-0.9,2.2c-0.2,0.8-0.4,1.6-0.7,2.3c-0.2,0.8-0.3,1.6-0.4,2.3h-2.3
		c0.1-0.7,0.2-1.3,0.3-2.1c0.1-0.8,0.3-1.4,0.7-2.2c0.2-0.8,0.6-1.6,1-2.3c0.4-0.8,0.9-1.6,1.4-2.2h-4.7v-1.9h6.8
		C162.6,32.5,162.6,34.3,162.6,34.3z"/>
	<path d="M169.5,34.9v0.9l0,0c0.2-0.3,0.6-0.7,0.9-0.8c0.3-0.1,0.8-0.2,1.2-0.2c0.4,0,0.9,0.1,1.2,0.3c0.3,0.2,0.6,0.6,0.7,1l0,0
		c0.1-0.4,0.4-0.8,0.8-1s0.8-0.3,1.3-0.3c0.7,0,1.2,0.2,1.6,0.7c0.3,0.4,0.6,1,0.6,1.9v6.1h-2.1v-5.9c0-0.3-0.1-0.7-0.2-0.8
		c-0.1-0.1-0.3-0.3-0.7-0.3s-0.7,0.1-0.8,0.3c-0.2,0.2-0.3,0.6-0.3,1.1v5.6h-2.1v-5.9c0-0.3-0.1-0.7-0.2-0.8
		c-0.1-0.1-0.3-0.3-0.7-0.3s-0.7,0.1-0.8,0.3c-0.2,0.2-0.3,0.6-0.3,1.1v5.6h-2.1v-8.6H169.5z"/>
	<path d="M179.3,37.3c0-0.4,0.1-0.9,0.2-1.2s0.3-0.6,0.7-0.8c0.2-0.2,0.6-0.3,0.9-0.4s0.8-0.1,1.1-0.1c0.7,0,1.1,0.1,1.6,0.2
		c0.4,0.1,0.7,0.3,0.9,0.6s0.3,0.6,0.4,0.8c0.1,0.3,0.1,0.7,0.1,1v4.5c0,0.4,0,0.7,0,0.9c0,0.2,0.1,0.4,0.2,0.7h-2
		c-0.1-0.1-0.1-0.2-0.1-0.4c0-0.2-0.1-0.3-0.1-0.4l0,0c-0.2,0.4-0.6,0.7-0.9,0.9c-0.3,0.2-0.8,0.2-1.2,0.2c-0.3,0-0.7-0.1-1-0.2
		c-0.3-0.1-0.4-0.3-0.7-0.6c-0.1-0.2-0.2-0.4-0.3-0.8c-0.1-0.3-0.1-0.6-0.1-0.9c0-0.4,0-0.8,0.1-1c0.1-0.2,0.2-0.6,0.3-0.8
		c0.2-0.2,0.3-0.3,0.7-0.6c0.2-0.1,0.6-0.2,1-0.3l1.2-0.3c0.3-0.1,0.6-0.2,0.7-0.3c0.1-0.1,0.2-0.3,0.2-0.7s-0.1-0.6-0.2-0.8
		c-0.1-0.2-0.4-0.2-0.8-0.2s-0.6,0.1-0.8,0.3c-0.2,0.2-0.2,0.4-0.2,0.8v0.2h-1.9V37.3z M182.8,39.4c-0.1,0.1-0.3,0.1-0.4,0.1
		c-0.4,0.1-0.8,0.2-0.9,0.4c-0.2,0.2-0.3,0.6-0.3,0.9s0.1,0.6,0.2,0.8c0.1,0.2,0.3,0.3,0.7,0.3c0.1,0,0.3,0,0.4-0.1
		c0.1-0.1,0.3-0.1,0.4-0.2c0.1-0.1,0.2-0.2,0.3-0.4c0.1-0.2,0.1-0.3,0.1-0.6V39C183,39.3,182.9,39.4,182.8,39.4z"/>
	<path d="M187.4,44.5c0.4,0,0.7-0.1,0.9-0.3c0.2-0.2,0.2-0.4,0.3-0.8l-2.3-8.4h2.2l1.2,5.8l0,0l1.1-5.8h2.1l-2,7.8
		c-0.2,0.7-0.3,1.2-0.6,1.7s-0.3,0.8-0.6,1c-0.2,0.2-0.6,0.3-0.9,0.4c-0.3,0.1-0.8,0.1-1.2,0.1h-0.9v-1.6
		C187,44.5,187.1,44.5,187.4,44.5z"/>
	<path d="M193.6,37.3c0.1-0.6,0.3-1,0.6-1.3c0.2-0.3,0.6-0.7,1-0.9s0.9-0.3,1.6-0.3c0.7,0,1.2,0.1,1.6,0.2c0.4,0.2,0.8,0.4,1,0.8
		c0.2,0.3,0.4,0.9,0.6,1.3c0.1,0.6,0.1,1.2,0.1,1.9s-0.1,1.3-0.2,1.9c-0.1,0.6-0.3,1-0.6,1.3s-0.6,0.7-1,0.8
		c-0.4,0.1-0.9,0.2-1.6,0.2c-0.7,0-1.2-0.1-1.6-0.2c-0.3-0.1-0.8-0.4-1-0.8s-0.4-0.8-0.6-1.3c-0.1-0.6-0.1-1.2-0.1-1.9
		C193.5,38.4,193.5,37.8,193.6,37.3z M195.6,40.4c0,0.3,0.1,0.7,0.1,0.9c0.1,0.2,0.2,0.4,0.3,0.6c0.1,0.1,0.3,0.2,0.7,0.2
		c0.4,0,0.8-0.2,0.9-0.7c0.1-0.4,0.2-1.2,0.2-2.2c0-1-0.1-1.8-0.2-2.2c-0.1-0.4-0.4-0.7-0.9-0.7c-0.2,0-0.4,0.1-0.7,0.2
		c-0.1,0.1-0.2,0.3-0.3,0.6c-0.1,0.2-0.1,0.6-0.1,0.9s0,0.8,0,1.2C195.6,39.6,195.6,40,195.6,40.4z"/>
	<path d="M204.5,43.4c0-0.4,0-0.9,0.1-1.3c0.1-0.4,0.2-0.8,0.4-1.2c0.2-0.3,0.4-0.8,0.8-1.1s0.7-0.8,1.1-1.1l0.9-0.9
		c0.2-0.2,0.4-0.4,0.6-0.6c0.1-0.2,0.2-0.3,0.3-0.6c0.1-0.2,0.1-0.4,0.1-0.6c0-0.2,0-0.4,0-0.8c0-0.9-0.3-1.3-1.1-1.3
		c-0.3,0-0.6,0.1-0.7,0.2c-0.1,0.1-0.3,0.2-0.3,0.4s-0.1,0.4-0.2,0.7c-0.1,0.2,0,0.6,0,0.8h-2.1v-0.4c0-1,0.2-1.8,0.8-2.3
		s1.4-0.8,2.6-0.8s2,0.2,2.4,0.8c0.4,0.6,0.8,1.2,0.8,2.2c0,0.3,0,0.7-0.1,1c-0.1,0.3-0.1,0.6-0.3,0.9c-0.1,0.3-0.3,0.6-0.6,0.8
		c-0.2,0.2-0.4,0.6-0.8,0.8l-1.2,1.1c-0.3,0.3-0.6,0.6-0.8,0.9c-0.2,0.3,0,0.4,0,0.7h4.1v1.8H204.5z"/>
	<path d="M212.1,35.9c0-0.7,0.2-1.3,0.4-1.9c0.2-0.6,0.6-1,1-1.3c0.4-0.3,1.1-0.4,1.9-0.4c0.7,0,1.2,0.1,1.7,0.3
		c0.4,0.2,0.8,0.6,1.1,0.9c0.2,0.4,0.4,1,0.6,1.7c0.1,0.7,0.1,1.6,0.1,2.4c0,0.8,0,1.6-0.1,2.2c0,0.7-0.2,1.3-0.4,1.9
		c-0.2,0.6-0.6,1-1,1.3c-0.4,0.3-1.1,0.4-1.9,0.4c-0.7,0-1.2-0.1-1.7-0.2c-0.4-0.1-0.8-0.4-1.1-0.9c-0.2-0.4-0.4-1-0.6-1.7
		c-0.1-0.7-0.1-1.6-0.1-2.4C212,37.4,212,36.7,212.1,35.9z M214.3,40.4c0,0.4,0.1,0.8,0.2,1c0.1,0.2,0.2,0.4,0.3,0.6
		c0.1,0.1,0.3,0.1,0.6,0.1s0.4-0.1,0.6-0.2c0.1-0.1,0.2-0.3,0.3-0.6c0.1-0.3,0.1-0.7,0.2-1.1c0-0.4,0-1.1,0-1.8v-1.2
		c0-0.7,0-1.2,0-1.7s-0.1-0.8-0.2-1c-0.1-0.2-0.2-0.4-0.3-0.6c-0.1-0.1-0.3-0.1-0.6-0.1s-0.4,0.1-0.6,0.2c-0.1,0.1-0.2,0.3-0.3,0.6
		c-0.1,0.3-0.1,0.7-0.2,1.1c0,0.4,0,1.1,0,1.8v1.2C214.2,39.4,214.3,40,214.3,40.4z"/>
	<path d="M222,35.6h-2.2v-1.4h0.2c0.8,0,1.3-0.1,1.8-0.4c0.4-0.3,0.7-0.8,0.8-1.3h1.7v11H222V35.6z"/>
	<path d="M231.3,34.2c-0.1-0.2-0.4-0.3-0.8-0.3s-0.6,0.1-0.7,0.2c-0.2,0.1-0.3,0.3-0.4,0.6c-0.1,0.2-0.1,0.6-0.2,0.9s0,0.7,0,1.1
		v0.6l0,0c0.2-0.3,0.4-0.6,0.8-0.7c0.3-0.1,0.8-0.2,1.2-0.2s0.9,0.1,1.2,0.2c0.3,0.2,0.7,0.4,0.8,0.7c0.1,0.2,0.3,0.7,0.4,1.1
		c0.1,0.4,0.1,0.9,0.1,1.3c0,1.2-0.3,2.2-0.9,2.9c-0.6,0.7-1.4,1-2.7,1c-0.8,0-1.3-0.1-1.9-0.4c-0.4-0.2-0.8-0.7-1-1.1
		c-0.2-0.4-0.4-1-0.4-1.7s-0.1-1.2-0.1-2s0-1.6,0.1-2.2c0-0.8,0.2-1.3,0.4-2c0.2-0.6,0.6-1,1.1-1.3c0.4-0.3,1.2-0.6,2.1-0.6
		c0.4,0,0.8,0,1.1,0.1s0.7,0.2,1,0.4c0.3,0.2,0.6,0.6,0.7,0.9c0.2,0.3,0.2,0.8,0.2,1.3h-2.1C231.6,34.7,231.5,34.4,231.3,34.2z
		 M229.3,40.8c0,0.2,0.1,0.6,0.2,0.7c0.1,0.1,0.2,0.3,0.3,0.4c0.1,0.1,0.3,0.1,0.7,0.1c0.2,0,0.4,0,0.7-0.1c0.2-0.1,0.3-0.2,0.3-0.4
		c0.1-0.2,0.1-0.4,0.1-0.7c0-0.2,0-0.6,0-0.9c0-0.8-0.1-1.3-0.3-1.6c-0.2-0.3-0.4-0.4-0.9-0.4c-0.4,0-0.8,0.1-1,0.4
		c-0.2,0.3-0.3,0.9-0.3,1.6C229.2,40.3,229.2,40.5,229.3,40.8z"/>
	<path d="M237,43c0,0.3,0,0.8-0.1,1.1c-0.1,0.3-0.1,0.7-0.3,0.9c-0.1,0.2-0.3,0.4-0.7,0.7c-0.2,0.1-0.6,0.2-1,0.3v-1.1
		c0.2,0,0.4-0.2,0.6-0.4c0.1-0.2,0.2-0.6,0.2-0.8v-0.2H235V41h2V43z"/>
	<path d="M245.3,32.3l1.6,7.9l0,0l1.6-7.9h3.3v11.1h-2v-8.9l0,0l-2,8.9h-1.8l-2-8.9l0,0v8.9h-2V32.3
		C241.9,32.3,245.3,32.3,245.3,32.3z"/>
	<path d="M253.3,37.3c0-0.4,0.1-0.9,0.2-1.2c0.1-0.3,0.3-0.6,0.7-0.8c0.2-0.2,0.6-0.3,0.9-0.4s0.8-0.1,1.1-0.1
		c0.7,0,1.1,0.1,1.6,0.2c0.4,0.1,0.7,0.3,0.9,0.6s0.3,0.6,0.4,0.8c0.1,0.3,0.1,0.7,0.1,1v4.5c0,0.4,0,0.7,0,0.9
		c0,0.2,0.1,0.4,0.2,0.7h-2c-0.1-0.1-0.1-0.2-0.1-0.4c0-0.1-0.1-0.3-0.1-0.4l0,0c-0.2,0.4-0.6,0.7-0.9,0.9c-0.3,0.1-0.8,0.2-1.2,0.2
		c-0.3,0-0.7-0.1-1-0.2c-0.2-0.1-0.4-0.3-0.7-0.6c-0.1-0.2-0.2-0.4-0.3-0.8c-0.1-0.3-0.1-0.6-0.1-0.9c0-0.4,0-0.8,0.1-1
		c0.1-0.3,0.2-0.6,0.3-0.8c0.2-0.2,0.4-0.3,0.7-0.6c0.2-0.1,0.6-0.2,1-0.3l1.2-0.3c0.3-0.1,0.6-0.2,0.7-0.3c0.1-0.1,0.2-0.3,0.2-0.7
		s-0.1-0.6-0.2-0.8s-0.4-0.2-0.8-0.2s-0.6,0.1-0.8,0.3c-0.2,0.2-0.2,0.4-0.2,0.8v0.2h-1.9V37.3z M256.7,39.4
		c-0.1,0.1-0.3,0.1-0.4,0.1c-0.4,0.1-0.8,0.2-0.9,0.4c-0.2,0.2-0.3,0.6-0.3,0.9s0.1,0.6,0.2,0.8c0.1,0.2,0.3,0.3,0.7,0.3
		c0.1,0,0.3,0,0.4-0.1c0.1-0.1,0.3-0.1,0.4-0.2c0.1-0.1,0.2-0.2,0.3-0.4c0.1-0.1,0.1-0.3,0.1-0.6V39C257.1,39.3,257,39.4,256.7,39.4
		z"/>
	<path d="M265.1,42.5c-0.2,0.4-0.6,0.7-0.8,0.8c-0.3,0.1-0.7,0.2-1.1,0.2c-0.9,0-1.6-0.3-2-1s-0.7-1.8-0.7-3.3s0.2-2.7,0.7-3.3
		c0.4-0.7,1.1-1,2-1c0.4,0,0.8,0.1,1,0.2c0.2,0.1,0.6,0.4,0.8,0.8l0,0v-3.6h2.1v11.1h-2V42.5L265.1,42.5z M263,41.2
		c0.1,0.4,0.4,0.7,0.9,0.7s0.8-0.2,0.9-0.7c0.1-0.4,0.2-1.1,0.2-2.1c0-1-0.1-1.6-0.2-2.1c-0.1-0.4-0.4-0.7-0.9-0.7s-0.8,0.2-0.9,0.7
		c-0.1,0.4-0.2,1.1-0.2,2.1C262.8,40.1,262.9,40.7,263,41.2z"/>
	<path d="M270.7,34.9v1.1l0,0c0.2-0.4,0.4-0.8,0.8-1c0.3-0.2,0.7-0.3,1.1-0.3c0.1,0,0.1,0,0.2,0c0.1,0,0.1,0,0.2,0v2
		c-0.1,0-0.2,0-0.3,0s-0.2,0-0.3,0c-0.2,0-0.3,0-0.6,0.1c-0.2,0-0.3,0.1-0.6,0.2c-0.1,0.1-0.3,0.2-0.3,0.4c-0.1,0.2-0.1,0.4-0.1,0.7
		v5h-2.1v-8.2H270.7z"/>
	<path d="M276,32v1.9h-2.1V32H276z M276,34.9v8.4h-2.1v-8.4H276z"/>
	<path d="M281.8,42.5c-0.2,0.4-0.6,0.7-0.8,0.8c-0.3,0.1-0.7,0.2-1.1,0.2c-0.9,0-1.6-0.3-2-1c-0.4-0.7-0.7-1.8-0.7-3.3
		s0.2-2.7,0.7-3.3c0.4-0.7,1.1-1,2-1c0.4,0,0.8,0.1,1,0.2c0.2,0.1,0.6,0.4,0.8,0.8l0,0v-3.6h2.1v11.1h-2V42.5L281.8,42.5z
		 M279.7,41.2c0.1,0.4,0.4,0.7,0.9,0.7c0.4,0,0.8-0.2,0.9-0.7c0.1-0.4,0.2-1.1,0.2-2.1c0-1-0.1-1.6-0.2-2.1
		c-0.1-0.4-0.4-0.7-0.9-0.7s-0.8,0.2-0.9,0.7c-0.1,0.4-0.2,1.1-0.2,2.1C279.5,40.1,279.6,40.7,279.7,41.2z"/>
</g>
<g enable-background="new    ">
	<path d="M149.8,57.2H146v3.1h3.6l0.1-1.3h1.7v3h-8.8v-1.3l1.2-0.2v-7.9l-1.2-0.2V51h1.2h7.6v3h-1.7l-0.1-1.3H146v2.8h3.8V57.2z"/>
	<path d="M153.4,62.1v-1.3l1.2-0.2v-7.9l-1.2-0.2v-1.3h1.2h2.2h1.2v1.3l-1.2,0.2v7.8h3.1l0.1-1.4h1.7v3.1H153.4z"/>
	<path d="M173.1,51c1.2,0,2.2,0.3,3,1c0.8,0.7,1.1,1.6,1.1,2.6c0,1.1-0.3,1.9-1.1,2.6c-0.8,0.7-1.8,1-3,1h-1.9v2.4l1.2,0.2v1.3h-4.6
		v-1.3l1.2-0.2v-7.9l-1.2-0.2v-1.3h1.2h4V51z M171.2,56.3h1.9c0.7,0,1.1-0.2,1.4-0.6s0.4-0.8,0.4-1.3s-0.1-1-0.4-1.3
		s-0.8-0.6-1.4-0.6h-1.9V56.3z"/>
	<path d="M188.8,56.7c0,1.7-0.4,3-1.4,4c-1,1-2.1,1.6-3.7,1.6c-1.4,0-2.7-0.6-3.7-1.6c-1-1-1.3-2.4-1.3-4v-0.2c0-1.6,0.4-3,1.3-4
		c0.9-1,2.1-1.6,3.7-1.6c1.4,0,2.7,0.6,3.7,1.6c1,1,1.4,2.4,1.4,4V56.7z M186.6,56.4c0-1.1-0.2-2.1-0.7-2.8
		c-0.4-0.7-1.2-1.1-2.1-1.1s-1.7,0.3-2.1,1.1c-0.4,0.8-0.7,1.7-0.7,2.8v0.2c0,1.1,0.2,2.1,0.7,2.8s1.1,1.1,2.1,1.1
		c0.9,0,1.7-0.3,2.1-1.1c0.4-0.7,0.7-1.7,0.7-2.8V56.4z"/>
	<path d="M195.4,51c1.3,0,2.4,0.4,3.3,1.3c0.9,0.9,1.3,2,1.3,3.3v1.8c0,1.3-0.4,2.4-1.3,3.3c-0.9,0.9-2,1.3-3.3,1.3h-5v-1.3l1.2-0.2
		v-7.9l-1.2-0.2v-1.3h1.2h3.8V51z M193.8,52.6v7.7h1.4c0.8,0,1.4-0.2,1.9-0.8c0.4-0.6,0.7-1.2,0.7-2.1v-1.9c0-0.9-0.2-1.6-0.7-2.1
		s-1.1-0.8-1.9-0.8C195.3,52.6,193.8,52.6,193.8,52.6z"/>
	<path d="M209.1,57.2h-3.8v3.1h3.6L209,59h1.7v3h-8.8v-1.3l1.2-0.2v-7.9l-1.2-0.2V51h1.2h7.6v3H209l-0.1-1.3h-3.6v2.8h3.8
		L209.1,57.2L209.1,57.2z"/>
	<path d="M217.5,51c1.2,0,2.2,0.3,3,0.9c0.8,0.6,1.1,1.3,1.1,2.3c0,0.6-0.1,1-0.4,1.4c-0.3,0.4-0.8,0.8-1.3,1c0.7,0.2,1.1,0.6,1.4,1
		c0.3,0.4,0.4,1,0.4,1.7v0.6c0,0.2,0,0.4,0.1,0.6c0.1,0.1,0.2,0.2,0.4,0.2h0.2V62h-1.1c-0.8,0-1.2-0.2-1.6-0.6
		c-0.3-0.3-0.4-0.9-0.4-1.4v-0.7c0-0.6-0.1-1-0.4-1.2c-0.3-0.3-0.7-0.4-1.2-0.4H216v2.9l1.2,0.2v1.3h-4.6v-1.3l1.2-0.2v-7.9
		l-1.2-0.2v-1.3h1.2h3.7V51z M216,55.9h1.6c0.7,0,1.1-0.1,1.4-0.4c0.3-0.2,0.4-0.7,0.4-1.1c0-0.4-0.1-0.9-0.4-1.2
		c-0.3-0.3-0.8-0.4-1.3-0.4h-1.6v3.2H216z"/>
	<path d="M235.7,57.2h-3.8v3.1h3.6l0.1-1.3h1.7v3h-8.8v-1.3l1.2-0.2v-7.9l-1.2-0.2V51h1.2h7.6v3h-1.7l-0.1-1.3h-3.6v2.8h3.8
		L235.7,57.2L235.7,57.2z"/>
	<path d="M247.7,54.5H246l-0.3-1.6c-0.2-0.1-0.4-0.2-0.9-0.3c-0.4-0.1-0.8-0.1-1.2-0.1c-0.6,0-1.1,0.1-1.4,0.3
		c-0.3,0.2-0.4,0.6-0.4,1c0,0.3,0.2,0.7,0.6,0.9c0.3,0.2,1,0.4,1.8,0.8c1.2,0.3,2.1,0.8,2.8,1.3c0.7,0.6,1,1.3,1,2.2
		c0,1-0.3,1.7-1.1,2.2s-1.8,0.8-3,0.8c-0.9,0-1.7-0.1-2.3-0.4c-0.7-0.3-1.3-0.7-1.8-1.1v-2.2h1.7l0.2,1.6c0.2,0.2,0.6,0.3,0.9,0.4
		c0.3,0.1,0.8,0.2,1.3,0.2s1.1-0.1,1.3-0.3c0.3-0.2,0.4-0.6,0.4-1s-0.1-0.8-0.4-1c-0.3-0.2-0.8-0.6-1.6-0.8c-1.3-0.3-2.3-0.8-3-1.3
		c-0.7-0.6-1-1.2-1-2.1s0.3-1.7,1.1-2.2s1.7-0.9,2.9-0.9c0.9,0,1.7,0.1,2.3,0.3c0.7,0.2,1.3,0.6,1.8,1v2.3H247.7z"/>
	<path d="M259.2,51v3h-1.7l-0.1-1.2h-2v7.8l1.2,0.2v1.3h-4.6v-1.3l1.2-0.2v-7.8h-2l-0.1,1.2h-1.7v-3H259.2z"/>
	<path d="M259.2,60.8l0.8-0.1l3.3-9.7h2.2l3.3,9.7l0.8,0.1v1.3h-3.8v-1.3l0.8-0.1l-0.4-1.6h-3.6l-0.4,1.6l0.8,0.1v1.3h-3.8V60.8
		L259.2,60.8z M264.6,48.2h2.3l0,0l-2.1,2h-1.8L264.6,48.2z M263.2,57.4h2.6l-1.2-3.9l0,0L263.2,57.4z"/>
</g>
<g enable-background="new    ">
	<path d="M149.8,75.9H146V79h3.6l0.1-1.3h1.7v3h-8.8v-1.2l1.2-0.2v-7.9l-1.2-0.2v-1.3h1.2h7.6v3h-1.7l-0.1-1.3H146v2.8h3.8V75.9z"/>
	<path d="M164.8,69.7V71l-1.2,0.2v9.5h-2.2l-4.5-7.5l0,0v5.9l1.2,0.2v1.3h-4.6v-1.2l1.2-0.2v-7.9l-1.2-0.2v-1.3h1.2h2.2l4.5,7.5l0,0
		v-5.9l-1.2-0.2v-1.3h3.5h1.1V69.7z"/>
	<path d="M170.8,80.8v-1.3l1.2-0.2v-7.9l-1.2-0.2v-1.3h1.2h2.2h1.2v1.3l-1.2,0.2v7.8h3.1l0.1-1.4h1.7v3.1
		C179.1,80.8,170.8,80.8,170.8,80.8z"/>
	<path d="M190.6,75.4c0,1.7-0.4,3-1.4,4c-1,1-2.1,1.6-3.7,1.6c-1.4,0-2.7-0.6-3.7-1.6c-1-1-1.3-2.4-1.3-4v-0.2c0-1.6,0.4-3,1.3-4
		c0.9-1,2.1-1.6,3.7-1.6c1.4,0,2.7,0.6,3.7,1.6c1,1,1.4,2.4,1.4,4V75.4z M188.4,75.1c0-1.1-0.2-2.1-0.7-2.8
		c-0.4-0.7-1.2-1.1-2.1-1.1s-1.7,0.3-2.1,1.1c-0.4,0.8-0.8,1.6-0.8,2.8v0.2c0,1.1,0.2,2.1,0.7,2.8c0.4,0.7,1.1,1.1,2.1,1.1
		c0.9,0,1.7-0.3,2.1-1.1c0.4-0.7,0.7-1.7,0.7-2.8v-0.2H188.4z"/>
	<path d="M200.6,73.2h-1.7l-0.3-1.6c-0.2-0.1-0.4-0.2-0.9-0.3s-0.8-0.1-1.2-0.1c-0.6,0-1.1,0.1-1.4,0.3c-0.3,0.2-0.4,0.6-0.4,1
		c0,0.3,0.2,0.7,0.6,0.9s1,0.4,1.8,0.8c1.2,0.3,2.1,0.8,2.8,1.3c0.7,0.6,1,1.3,1,2.2c0,1-0.3,1.7-1.1,2.2s-1.8,0.8-3,0.8
		c-0.9,0-1.7-0.1-2.3-0.4c-0.7-0.3-1.3-0.7-1.8-1.1v-2.3h1.7l0.2,1.6c0.2,0.2,0.6,0.3,0.9,0.4c0.3,0.1,0.8,0.2,1.3,0.2
		s1.1-0.1,1.3-0.3c0.3-0.2,0.4-0.6,0.4-1s-0.1-0.8-0.4-1c-0.3-0.2-0.8-0.6-1.6-0.8c-1.3-0.3-2.3-0.8-3-1.3c-0.7-0.6-1-1.2-1-2.1
		c0-0.9,0.3-1.7,1.1-2.2s1.7-0.9,2.9-0.9c0.9,0,1.7,0.1,2.3,0.3c0.7,0.2,1.3,0.6,1.8,1v2.4H200.6z"/>
	<path d="M211.9,69.7c1.3,0,2.4,0.4,3.3,1.3s1.3,2,1.3,3.3v1.8c0,1.3-0.4,2.4-1.3,3.3c-0.9,0.9-2,1.3-3.3,1.3h-5v-1.3l1.2-0.2v-7.9
		l-1.2-0.2v-1.3h1.2h3.8V69.7z M210.3,71.4V79h1.4c0.8,0,1.4-0.2,1.9-0.8c0.4-0.6,0.7-1.2,0.7-2.1v-1.9c0-0.9-0.2-1.6-0.7-2.1
		c-0.4-0.6-1.1-0.8-1.9-0.8C211.7,71.4,210.3,71.4,210.3,71.4z"/>
	<path d="M217.8,79.5l0.8-0.1l3.3-9.7h2.2l3.3,9.7l0.9,0.1v1.3h-3.8v-1.3l0.8-0.1l-0.4-1.6h-3.6l-0.4,1.6l0.8,0.1v1.3h-3.8v-1.3
		H217.8z M221.9,76.1h2.6l-1.2-3.9l0,0L221.9,76.1z"/>
	<path d="M238.5,69.7v3h-1.7l-0.1-1.2h-2v7.8l1.2,0.2v1.3h-4.6v-1.3l1.2-0.2v-7.8h-2l-0.1,1.2h-1.7v-3H238.5z"/>
	<path d="M249.8,75.4c0,1.7-0.4,3-1.4,4s-2.1,1.6-3.7,1.6c-1.4,0-2.7-0.6-3.7-1.6c-0.9-1.1-1.3-2.4-1.3-4v-0.2c0-1.6,0.4-3,1.3-4
		s2.1-1.6,3.7-1.6c1.4,0,2.7,0.6,3.7,1.6c0.9,1.1,1.4,2.4,1.4,4V75.4z M247.6,75.1c0-1.1-0.2-2.1-0.7-2.8c-0.4-0.7-1.2-1.1-2.1-1.1
		s-1.7,0.3-2.1,1.1c-0.4,0.7-0.7,1.7-0.7,2.8v0.2c0,1.1,0.2,2.1,0.7,2.8c0.4,0.7,1.1,1.1,2.1,1.1c0.9,0,1.7-0.3,2.1-1.1
		c0.4-0.7,0.7-1.7,0.7-2.8V75.1z"/>
	<path d="M259.9,73.2h-1.7l-0.3-1.6c-0.2-0.1-0.4-0.2-0.9-0.3c-0.4-0.1-0.8-0.1-1.2-0.1c-0.6,0-1.1,0.1-1.4,0.3
		c-0.3,0.2-0.4,0.6-0.4,1c0,0.3,0.2,0.7,0.6,0.9c0.3,0.2,1,0.4,1.8,0.8c1.2,0.3,2.1,0.8,2.8,1.3s1,1.3,1,2.2c0,1-0.3,1.7-1.1,2.2
		c-0.8,0.6-1.8,0.8-3,0.8c-0.9,0-1.7-0.1-2.3-0.4c-0.7-0.3-1.3-0.7-1.8-1.1v-2.3h1.7l0.2,1.6c0.2,0.2,0.6,0.3,0.9,0.4
		c0.3,0.1,0.8,0.2,1.3,0.2s1.1-0.1,1.3-0.3c0.3-0.2,0.4-0.6,0.4-1s-0.1-0.8-0.4-1s-0.8-0.6-1.6-0.8c-1.3-0.3-2.3-0.8-3-1.3
		s-1-1.2-1-2.1c0-0.9,0.3-1.7,1.1-2.2c0.8-0.6,1.7-0.9,2.9-0.9c0.9,0,1.7,0.1,2.3,0.3s1.3,0.6,1.8,1v2.4H259.9z"/>
</g>
<g enable-background="new    ">
	<path fill="#EC3D2A" d="M147.2,96.4h-1.4l-0.6,3.1h-1.4l0.6-3.1h-1.7v-1.3h2l0.3-2.2h-1.8v-1.3h2l0.6-3.1h1.4l-0.6,3.1h1.4l0.6-3.1
		h1.4l-0.6,3.1h1.7v1.3h-1.9l-0.3,2.2h1.7v1.3h-1.9l-0.6,3.1h-1.4L147.2,96.4z M145.9,95.1h1.4l0.3-2.2h-1.4L145.9,95.1z"/>
	<path fill="#EC3D2A" d="M161,88.4v1.3l-1.2,0.2v6.2c0,1.1-0.3,1.9-1,2.6c-0.7,0.7-1.6,0.9-2.7,0.9s-2.1-0.3-2.8-0.9s-1-1.4-1-2.4
		l0,0h2.1c0,0.6,0.1,1,0.4,1.2s0.7,0.4,1.1,0.4s0.8-0.1,1-0.4c0.3-0.3,0.4-0.8,0.4-1.3V90l-1.2-0.2v-1.3h3.5H161z"/>
	<path fill="#EC3D2A" d="M167.7,88.4c1.2,0,2.2,0.3,3,1c0.8,0.7,1.1,1.6,1.1,2.6c0,1.1-0.3,1.9-1.1,2.6s-1.8,1-3,1h-1.9V98l1.2,0.2
		v1.3h-4.6v-1.3l1.2-0.2v-7.9l-1.2-0.2v-1.4h1.2H167.7z M165.8,93.7h1.9c0.7,0,1.1-0.2,1.4-0.6c0.3-0.3,0.4-0.8,0.4-1.3
		s-0.1-1-0.4-1.3s-0.8-0.6-1.4-0.6h-1.9C165.8,90,165.8,93.7,165.8,93.7z"/>
	<path fill="#EC3D2A" d="M178.2,88.4c1.3,0,2.4,0.4,3.3,1.3s1.3,2,1.3,3.3v1.8c0,1.3-0.4,2.4-1.3,3.3c-0.9,0.9-2,1.3-3.3,1.3h-5
		v-1.3l1.2-0.2v-7.9l-1.2-0.2v-1.4h1.2H178.2z M176.6,90.1v7.7h1.4c0.8,0,1.4-0.2,1.9-0.8c0.4-0.6,0.7-1.2,0.7-2.1V93
		c0-0.9-0.2-1.6-0.7-2.1s-1.1-0.8-1.9-0.8C178,90.1,176.6,90.1,176.6,90.1z"/>
	<path fill="#EC3D2A" d="M184.7,98.2l1.9-0.2v-7.5h-1.9v-1.2l4.1-0.8v9.6l1.9,0.2v1.2h-6V98.2z"/>
	<path fill="#EC3D2A" d="M197.1,88.3c0.4,0,0.8,0,1.1,0.1c0.3,0.1,0.7,0.2,1.1,0.3l-0.3,1.7c-0.3-0.1-0.7-0.2-0.9-0.2
		c-0.2-0.1-0.6-0.1-0.9-0.1c-0.7,0-1.2,0.2-1.6,0.7c-0.4,0.4-0.6,1.2-0.6,2.1l0,0c0.2-0.2,0.6-0.4,1-0.6c0.3-0.1,0.8-0.2,1.3-0.2
		c1,0,1.8,0.3,2.3,1c0.6,0.7,0.9,1.6,0.9,2.7c0,1.1-0.3,2-1,2.8c-0.7,0.8-1.6,1.1-2.7,1.1s-2.1-0.4-2.9-1.2
		c-0.8-0.8-1.1-1.9-1.1-3.3v-2c0-1.6,0.4-2.8,1.2-3.7C194.6,88.6,195.7,88.3,197.1,88.3z M196.5,93.7c-0.4,0-0.8,0.1-1,0.2
		c-0.2,0.1-0.6,0.3-0.7,0.6v0.8c0,0.9,0.1,1.6,0.4,2c0.3,0.4,0.8,0.7,1.2,0.7c0.4,0,0.8-0.2,1.1-0.7c0.2-0.4,0.4-0.9,0.4-1.6
		c0-0.7-0.1-1.1-0.4-1.4S196.9,93.7,196.5,93.7z"/>
</g>
<rect x="88.9" y="32.6" fill="none" stroke="#1A1A1A" stroke-miterlimit="10" width="37.3" height="64.9"/>
<rect x="86.9" y="49.8" fill="none" width="46" height="38.9"/>
<g enable-background="new    ">
	<path fill="#313131" d="M94.3,51.5v3h0.1c0.7-1.3,1.3-2.2,2.1-2.8s1.8-0.9,2.9-0.9c2.3,0,4.1,1.1,5.2,3.5c1.1,2.3,1.7,6,1.7,11.2
		s-0.6,8.9-1.7,11.1s-2.8,3.3-5.2,3.3c-1.1,0-2-0.2-2.8-0.8s-1.4-1.3-2-2.4h-0.1v11.6h-5.7V51.5H94.3z M95.2,72.4
		c0.3,1.6,1.2,2.3,2.4,2.3s2-0.8,2.4-2.3c0.3-1.6,0.6-3.8,0.6-6.9c0-3.1-0.2-5.3-0.6-6.9c-0.3-1.6-1.2-2.3-2.4-2.3s-2.1,0.8-2.4,2.3
		s-0.6,3.8-0.6,6.9C94.6,68.6,94.7,70.8,95.2,72.4z"/>
</g>
<g enable-background="new    ">
	<path fill="#EA3F2D" d="M120.9,76.5c-0.7,1.3-1.3,2.2-2.1,2.8S117,80,115.9,80c-2.3,0-4.1-1.1-5.2-3.3s-1.7-6-1.7-11.1
		c0-5.2,0.6-8.9,1.7-11.2c1.1-2.3,2.8-3.5,5.2-3.5c1.1,0,2,0.2,2.8,0.8c0.8,0.6,1.4,1.3,2,2.4h0.1V42.4h5.7v37.1H121L120.9,76.5
		L120.9,76.5z M115.3,72.4c0.3,1.6,1.2,2.3,2.4,2.3c1.2,0,2.1-0.8,2.4-2.3c0.3-1.6,0.6-3.8,0.6-6.9c0-3.1-0.2-5.3-0.6-6.9
		c-0.3-1.6-1.2-2.3-2.4-2.3c-1.2,0-2,0.8-2.4,2.3s-0.6,3.9-0.6,6.9C114.8,68.5,114.9,70.8,115.3,72.4z"/>
</g>
<rect x="81.9" y="6.3" fill="none" width="235.2" height="20.2"/>
<g enable-background="new    ">
	<path fill="#EC3D2A" d="M82.8,6.2h2.4v12.1h-2.4V6.2z"/>
	<path fill="#EC3D2A" d="M90.7,15.2L90.7,15.2l1.8-9H95l-2.8,12.1h-3.1L86.4,6.2H89L90.7,15.2z"/>
	<path fill="#EC3D2A" d="M106.4,15c0,1.3-0.3,2.2-0.9,2.8c-0.6,0.6-1.6,0.8-2.8,0.8c-0.7,0-1.2-0.1-1.6-0.2c-0.4-0.2-0.8-0.4-1-0.8
		c-0.2-0.3-0.4-0.7-0.6-1.1c-0.1-0.4-0.1-0.9-0.1-1.3v-0.6h2.2v0.3c0,0.7,0.1,1.1,0.2,1.4s0.4,0.4,0.9,0.4c0.4,0,0.8-0.1,0.9-0.4
		c0.1-0.3,0.2-0.8,0.2-1.4V6.2h2.4C106.4,6.2,106.4,15,106.4,15z"/>
	<path fill="#EC3D2A" d="M107.9,11.8c0.1-0.6,0.3-1.1,0.7-1.6c0.3-0.4,0.7-0.7,1.1-0.9s1-0.3,1.7-0.3c0.7,0,1.3,0.1,1.8,0.3
		c0.4,0.2,0.9,0.6,1.1,0.9c0.2,0.4,0.4,0.9,0.6,1.6c0.1,0.6,0.2,1.3,0.2,2.1s-0.1,1.4-0.2,2.1c-0.1,0.6-0.3,1.1-0.7,1.6
		c-0.3,0.4-0.7,0.7-1.1,0.9c-0.4,0.2-1,0.3-1.7,0.3c-0.7,0-1.3-0.1-1.8-0.2c-0.4-0.2-0.9-0.4-1.1-0.9c-0.2-0.4-0.4-0.9-0.6-1.6
		c-0.1-0.7-0.2-1.3-0.2-2.1C107.6,13.1,107.6,12.3,107.9,11.8z M110,15.1c0,0.4,0.1,0.8,0.1,1c0.1,0.3,0.2,0.6,0.3,0.7
		c0.2,0.1,0.4,0.2,0.7,0.2c0.4,0,0.8-0.2,1-0.8c0.2-0.4,0.2-1.3,0.2-2.4s-0.1-2-0.2-2.4c-0.2-0.4-0.6-0.8-1-0.8
		c-0.3,0-0.6,0.1-0.7,0.2c-0.2,0.1-0.3,0.3-0.3,0.7s-0.1,0.7-0.1,1c0,0.4,0,0.8,0,1.3S110,14.8,110,15.1z"/>
	<path fill="#EC3D2A" d="M118.3,9.2v1.2l0,0c0.2-0.4,0.6-0.8,0.9-1.1c0.3-0.3,0.8-0.4,1.2-0.4c0.1,0,0.1,0,0.2,0s0.1,0,0.2,0v2.2
		c-0.1,0-0.2,0-0.3,0c-0.1,0-0.2,0-0.3,0c-0.2,0-0.4,0-0.7,0.1c-0.2,0.1-0.4,0.1-0.6,0.3c-0.2,0.1-0.3,0.3-0.4,0.6
		c-0.1,0.2-0.1,0.4-0.1,0.8v5.6h-2.3V9.2H118.3z"/>
	<path fill="#EC3D2A" d="M124.1,9.2v1.1l0,0c0.2-0.4,0.6-0.8,1-1S126,9,126.4,9c0.8,0,1.3,0.2,1.8,0.7c0.4,0.4,0.6,1.1,0.6,2v6.8
		h-2.3v-6.3c0-0.4-0.1-0.8-0.2-1c-0.1-0.2-0.4-0.3-0.8-0.3c-0.8,0-1.2,0.6-1.2,1.6v6.1h-2.3V9.2H124.1z"/>
	<path fill="#EC3D2A" d="M130.3,11.9c0-0.6,0.1-1,0.2-1.3c0.2-0.3,0.4-0.7,0.7-0.9c0.2-0.2,0.7-0.3,1-0.4c0.3-0.1,0.8-0.1,1.2-0.1
		c0.7,0,1.2,0.1,1.7,0.2c0.4,0.1,0.8,0.3,1,0.6c0.2,0.2,0.4,0.6,0.4,0.9c0.1,0.3,0.1,0.8,0.1,1.1v4.8c0,0.4,0,0.8,0.1,1
		c0,0.2,0.1,0.4,0.2,0.8h-2.2c-0.1-0.1-0.1-0.3-0.2-0.4c0-0.1-0.1-0.3-0.1-0.4l0,0c-0.2,0.4-0.6,0.8-1,0.9c-0.3,0.1-0.8,0.2-1.3,0.2
		c-0.4,0-0.8-0.1-1-0.2c-0.3-0.1-0.6-0.3-0.7-0.6c-0.2-0.2-0.3-0.6-0.3-0.9c-0.1-0.3-0.1-0.7-0.1-0.9c0-0.4,0-0.8,0.1-1.1
		s0.2-0.6,0.4-0.8c0.2-0.2,0.4-0.4,0.7-0.6c0.3-0.1,0.7-0.3,1-0.4l1.3-0.3c0.3-0.1,0.6-0.2,0.8-0.3c0.2-0.1,0.2-0.4,0.2-0.7
		c0-0.3-0.1-0.7-0.2-0.8c-0.1-0.2-0.4-0.3-0.9-0.3c-0.3,0-0.7,0.1-0.8,0.3c-0.2,0.2-0.2,0.6-0.2,0.9v0.2h-2.1V11.9z M134.1,14.1
		c-0.2,0.1-0.3,0.1-0.4,0.1c-0.4,0.1-0.8,0.2-1,0.6c-0.2,0.2-0.3,0.6-0.3,1c0,0.3,0.1,0.7,0.2,0.9s0.3,0.3,0.7,0.3
		c0.1,0,0.3,0,0.4-0.1c0.2,0,0.3-0.1,0.4-0.2c0.1-0.1,0.2-0.2,0.3-0.4c0.1-0.2,0.1-0.4,0.1-0.7v-1.8C134.5,14,134.2,14.1,134.1,14.1
		z"/>
	<path fill="#EC3D2A" d="M143.3,17.5c-0.2,0.4-0.6,0.8-0.9,0.9c-0.3,0.2-0.8,0.2-1.2,0.2c-1,0-1.7-0.3-2.1-1.1s-0.7-2-0.7-3.7
		s0.2-2.9,0.7-3.7c0.4-0.8,1.1-1.1,2.1-1.1c0.4,0,0.8,0.1,1.1,0.2c0.3,0.2,0.6,0.4,0.9,0.8l0,0V6.2h2.3v12.1h-2.2V17.5L143.3,17.5z
		 M140.9,16.1c0.1,0.6,0.4,0.8,1,0.8s0.9-0.2,1-0.8s0.2-1.2,0.2-2.2s-0.1-1.8-0.2-2.2c-0.1-0.6-0.4-0.8-1-0.8s-0.9,0.2-1,0.8
		c-0.1,0.6-0.2,1.2-0.2,2.2S140.8,15.6,140.9,16.1z"/>
	<path fill="#EC3D2A" d="M147.1,11.9c0-0.6,0.1-1,0.2-1.3c0.2-0.3,0.4-0.7,0.7-0.9s0.7-0.3,1-0.4c0.3-0.1,0.8-0.1,1.2-0.1
		c0.7,0,1.2,0.1,1.7,0.2c0.4,0.1,0.8,0.3,1,0.6c0.2,0.2,0.4,0.6,0.4,0.9c0.1,0.3,0.1,0.8,0.1,1.1v4.8c0,0.4,0,0.8,0.1,1
		c0,0.2,0.1,0.4,0.2,0.8h-2.2c-0.1-0.1-0.1-0.3-0.2-0.4c0-0.1-0.1-0.3-0.1-0.4l0,0c-0.2,0.4-0.6,0.8-1,0.9c-0.3,0.1-0.8,0.2-1.3,0.2
		c-0.4,0-0.8-0.1-1-0.2c-0.3-0.1-0.6-0.3-0.7-0.6c-0.2-0.2-0.3-0.6-0.3-0.9c-0.1-0.3-0.1-0.7-0.1-0.9c0-0.4,0-0.8,0.1-1.1
		s0.2-0.6,0.4-0.8c0.2-0.2,0.4-0.4,0.7-0.6c0.3-0.1,0.7-0.3,1-0.4l1.3-0.3c0.3-0.1,0.6-0.2,0.8-0.3c0.2-0.1,0.2-0.4,0.2-0.7
		c0-0.3-0.1-0.7-0.2-0.8c-0.1-0.2-0.4-0.3-0.9-0.3c-0.3,0-0.7,0.1-0.8,0.3c-0.2,0.2-0.2,0.6-0.2,0.9v0.2h-2.1V11.9z M150.8,14.1
		c-0.2,0.1-0.3,0.1-0.4,0.1c-0.4,0.1-0.8,0.2-1,0.6c-0.2,0.2-0.3,0.6-0.3,1c0,0.3,0.1,0.7,0.2,0.9c0.1,0.2,0.3,0.3,0.7,0.3
		c0.1,0,0.3,0,0.4-0.1c0.2,0,0.3-0.1,0.4-0.2c0.1-0.1,0.2-0.2,0.3-0.4c0.1-0.2,0.1-0.4,0.1-0.7v-1.8C151.2,14,151.1,14.1,150.8,14.1
		z"/>
	<path fill="#EC3D2A" d="M157.1,15.8c0,0.4,0.1,0.7,0.3,1c0.2,0.3,0.6,0.3,0.9,0.3s0.7-0.1,0.9-0.2c0.2-0.2,0.3-0.4,0.3-0.8
		s-0.1-0.6-0.2-0.7c-0.2-0.1-0.3-0.2-0.6-0.3l-1.7-0.6c-0.7-0.2-1.1-0.6-1.4-1c-0.3-0.4-0.4-1-0.4-1.6c0-0.3,0.1-0.8,0.2-1.1
		c0.1-0.3,0.3-0.7,0.6-0.9c0.2-0.2,0.7-0.4,1-0.6c0.3-0.1,0.9-0.2,1.6-0.2c1.1,0,1.9,0.2,2.3,0.7c0.6,0.4,0.8,1.1,0.8,1.9v0.3h-2.1
		c0-0.4-0.1-0.8-0.2-1c-0.1-0.2-0.4-0.3-0.8-0.3c-0.3,0-0.6,0.1-0.8,0.2c-0.2,0.1-0.3,0.4-0.3,0.8c0,0.2,0.1,0.4,0.2,0.7
		c0.1,0.2,0.4,0.3,0.8,0.4l1.4,0.4c0.8,0.2,1.2,0.6,1.6,1c0.3,0.4,0.4,1,0.4,1.7c0,0.4-0.1,0.9-0.2,1.2c-0.2,0.3-0.4,0.7-0.7,0.9
		c-0.3,0.2-0.7,0.4-1.1,0.6c-0.4,0.1-0.9,0.1-1.3,0.1c-0.7,0-1.2-0.1-1.7-0.2c-0.4-0.1-0.8-0.3-1-0.6c-0.2-0.2-0.4-0.6-0.6-0.9
		s-0.1-0.8-0.1-1.2v-0.3h2.1v0.2H157.1z"/>
</g>
<g enable-background="new    ">
	<path d="M171.3,6.2c0.7,0,1.1,0.1,1.6,0.3c0.4,0.2,0.8,0.4,1,0.8c0.2,0.3,0.4,0.8,0.6,1.2c0.1,0.4,0.2,0.9,0.2,1.3
		c0,0.7-0.1,1.2-0.3,1.7c-0.2,0.4-0.4,0.9-0.8,1.1c-0.3,0.3-0.8,0.6-1.2,0.7c-0.4,0.1-1,0.2-1.6,0.2h-1.3v4.9h-2.3V6.2H171.3z
		 M170.7,11.8c0.4,0,0.9-0.1,1.2-0.4c0.3-0.3,0.4-0.8,0.4-1.3c0-0.7-0.1-1.1-0.4-1.4c-0.2-0.3-0.7-0.4-1.3-0.4h-1v3.7H170.7z"/>
	<path d="M177.6,15c0,0.2,0,0.6,0.1,0.8c0,0.2,0.1,0.4,0.2,0.7s0.2,0.3,0.3,0.4s0.3,0.2,0.6,0.2c0.4,0,0.7-0.1,0.9-0.4
		c0.2-0.3,0.3-0.7,0.3-1.3h2.1c0,1.1-0.3,1.9-0.9,2.4c-0.6,0.6-1.3,0.9-2.4,0.9c-0.9,0-1.6-0.1-2-0.4c-0.4-0.3-0.8-0.7-1.1-1.1
		c-0.3-0.4-0.3-1-0.4-1.6c0-0.6-0.1-1.1-0.1-1.8s0-1.2,0.1-1.8c0.1-0.6,0.2-1.1,0.6-1.6c0.2-0.4,0.7-0.8,1.1-1.1
		c0.4-0.2,1.1-0.4,1.9-0.4c0.7,0,1.2,0.1,1.7,0.3c0.4,0.2,0.8,0.6,1,0.9c0.2,0.4,0.4,0.9,0.6,1.4c0.1,0.6,0.1,1.2,0.1,1.9V14h-4.7v1
		H177.6z M179.9,11.9c0-0.2-0.1-0.4-0.2-0.7c-0.1-0.2-0.2-0.3-0.3-0.4c-0.1-0.1-0.3-0.1-0.6-0.1s-0.4,0-0.6,0.1
		c-0.1,0.1-0.2,0.2-0.3,0.4c-0.1,0.2-0.1,0.3-0.2,0.6c0,0.2-0.1,0.4-0.1,0.7v0.3h2.4C179.9,12.4,179.9,12.1,179.9,11.9z"/>
	<path d="M185.7,9.2v1.2l0,0c0.2-0.4,0.6-0.8,0.9-1.1c0.3-0.3,0.8-0.4,1.2-0.4c0.1,0,0.1,0,0.2,0s0.1,0,0.2,0v2.2
		c-0.1,0-0.2,0-0.3,0c-0.1,0-0.2,0-0.3,0c-0.2,0-0.4,0-0.7,0.1c-0.2,0.1-0.4,0.1-0.6,0.3c-0.2,0.1-0.3,0.3-0.4,0.6
		c-0.1,0.2-0.1,0.4-0.1,0.8v5.6h-2.3V9.2H185.7z"/>
	<path d="M191.6,6.1v2h-2.3v-2H191.6z M191.6,9.2v9.1h-2.3V9.2H191.6z"/>
	<path d="M193.2,11.8c0.1-0.6,0.3-1.1,0.7-1.6c0.3-0.4,0.7-0.7,1.1-0.9c0.4-0.2,1-0.3,1.7-0.3c0.7,0,1.3,0.1,1.8,0.3
		c0.4,0.2,0.9,0.6,1.1,0.9c0.2,0.4,0.4,0.9,0.6,1.6c0.1,0.6,0.2,1.3,0.2,2.1s-0.1,1.4-0.2,2.1c-0.1,0.6-0.3,1.1-0.7,1.6
		s-0.7,0.7-1.1,0.9c-0.4,0.2-1,0.3-1.7,0.3c-0.7,0-1.3-0.1-1.8-0.2c-0.4-0.2-0.9-0.4-1.1-0.9s-0.4-0.9-0.6-1.6
		c-0.1-0.7-0.2-1.3-0.2-2.1C192.9,13.1,192.9,12.3,193.2,11.8z M195.3,15.1c0,0.4,0.1,0.8,0.1,1c0.1,0.3,0.2,0.6,0.3,0.7
		c0.2,0.1,0.4,0.2,0.7,0.2c0.4,0,0.8-0.2,1-0.8c0.2-0.4,0.2-1.3,0.2-2.4s-0.1-2-0.2-2.4c-0.2-0.4-0.6-0.8-1-0.8
		c-0.3,0-0.6,0.1-0.7,0.2c-0.2,0.1-0.3,0.3-0.3,0.7c-0.1,0.3-0.1,0.7-0.1,1c0,0.4,0,0.8,0,1.3S195.3,14.8,195.3,15.1z"/>
	<path d="M206.1,17.5c-0.2,0.4-0.6,0.8-0.9,0.9c-0.3,0.2-0.8,0.2-1.2,0.2c-1,0-1.7-0.3-2.1-1.1c-0.4-0.8-0.7-2-0.7-3.7
		s0.2-2.9,0.7-3.7C202.3,9.3,203,9,204,9c0.4,0,0.8,0.1,1.1,0.2c0.3,0.2,0.6,0.4,0.9,0.8l0,0V6.2h2.3v12.1h-2.2V17.5L206.1,17.5z
		 M203.8,16.1c0.1,0.6,0.4,0.8,1,0.8s0.9-0.2,1-0.8c0.1-0.6,0.2-1.2,0.2-2.2s-0.1-1.8-0.2-2.2c-0.1-0.6-0.4-0.8-1-0.8
		s-0.9,0.2-1,0.8c-0.1,0.6-0.2,1.2-0.2,2.2S203.6,15.6,203.8,16.1z"/>
	<path d="M212.4,6.1v2h-2.3v-2H212.4z M212.4,9.2v9.1h-2.3V9.2H212.4z"/>
	<path d="M215.8,15.8c0,0.4,0.1,0.7,0.3,1c0.2,0.2,0.6,0.3,0.9,0.3c0.3,0,0.7-0.1,0.9-0.2c0.2-0.2,0.3-0.4,0.3-0.8s-0.1-0.6-0.2-0.7
		c-0.2-0.1-0.3-0.2-0.6-0.3l-1.7-0.6c-0.7-0.2-1.1-0.6-1.4-1c-0.3-0.4-0.4-1-0.4-1.6c0-0.3,0.1-0.8,0.2-1.1c0.1-0.3,0.3-0.7,0.6-0.9
		c0.2-0.2,0.7-0.4,1-0.6c0.4-0.1,0.9-0.2,1.6-0.2c1.1,0,1.9,0.2,2.3,0.7c0.4,0.4,0.8,1.1,0.8,1.9v0.3h-2.1c0-0.4-0.1-0.8-0.2-1
		c-0.1-0.2-0.4-0.3-0.8-0.3c-0.3,0-0.6,0.1-0.8,0.2c-0.2,0.1-0.3,0.4-0.3,0.8c0,0.2,0.1,0.4,0.2,0.7c0.1,0.2,0.4,0.3,0.8,0.4
		l1.4,0.4c0.8,0.2,1.2,0.6,1.6,1c0.3,0.4,0.4,1,0.4,1.7c0,0.4-0.1,0.9-0.2,1.2c-0.2,0.3-0.4,0.7-0.7,0.9c-0.3,0.2-0.7,0.4-1.1,0.6
		c-0.4,0.1-0.9,0.1-1.3,0.1c-0.7,0-1.2-0.1-1.7-0.2c-0.4-0.1-0.8-0.3-1-0.6c-0.2-0.2-0.4-0.6-0.6-0.9c-0.1-0.3-0.1-0.8-0.1-1.2v-0.3
		h2.1v0.2H215.8z"/>
	<path d="M223.9,9.2v0.9l0,0c0.3-0.4,0.7-0.7,1-0.9c0.3-0.2,0.8-0.2,1.3-0.2s1,0.1,1.3,0.3s0.7,0.7,0.8,1.1l0,0
		c0.2-0.4,0.4-0.9,0.9-1.1c0.4-0.2,0.9-0.3,1.4-0.3c0.8,0,1.3,0.2,1.8,0.7c0.4,0.4,0.6,1.1,0.6,2v6.7h-2.3v-6.5
		c0-0.3-0.1-0.7-0.2-0.9c-0.1-0.2-0.3-0.3-0.7-0.3s-0.7,0.1-0.9,0.3c-0.2,0.2-0.3,0.7-0.3,1.2v6h-2.4v-6.5c0-0.3-0.1-0.7-0.2-0.9
		c-0.1-0.2-0.3-0.3-0.7-0.3s-0.7,0.1-0.9,0.3c-0.2,0.2-0.3,0.7-0.3,1.2v6h-2.3V9.2H223.9z"/>
	<path d="M234.5,11.8c0.1-0.6,0.3-1.1,0.7-1.6c0.3-0.4,0.7-0.7,1.1-0.9c0.4-0.2,1-0.3,1.7-0.3c0.7,0,1.3,0.1,1.8,0.3
		s0.9,0.6,1.1,0.9s0.4,0.9,0.6,1.6c0.1,0.7,0.2,1.3,0.2,2.1s-0.1,1.4-0.2,2.1c-0.1,0.7-0.3,1.1-0.7,1.6s-0.7,0.7-1.1,0.9
		c-0.4,0.2-1,0.3-1.7,0.3c-0.7,0-1.3-0.1-1.8-0.2c-0.4-0.2-0.9-0.4-1.1-0.9c-0.2-0.4-0.4-0.9-0.6-1.6c-0.1-0.6-0.2-1.3-0.2-2.1
		C234.2,13.1,234.4,12.3,234.5,11.8z M236.7,15.1c0,0.4,0.1,0.8,0.1,1c0.1,0.3,0.2,0.6,0.3,0.7c0.2,0.1,0.4,0.2,0.7,0.2
		c0.4,0,0.8-0.2,1-0.8c0.2-0.4,0.2-1.3,0.2-2.4s-0.1-2-0.2-2.4c-0.2-0.4-0.6-0.8-1-0.8c-0.3,0-0.6,0.1-0.7,0.2
		c-0.2,0.1-0.3,0.3-0.3,0.7c-0.1,0.3-0.1,0.7-0.1,1c0,0.4,0,0.8,0,1.3S236.7,14.8,236.7,15.1z"/>
</g>
<g enable-background="new    ">
	<path fill="#EC3D2A" d="M251.8,17.5c-0.2,0.4-0.6,0.8-0.9,0.9c-0.3,0.2-0.8,0.2-1.2,0.2c-1,0-1.7-0.3-2.1-1.1
		c-0.4-0.8-0.7-2-0.7-3.7s0.2-2.9,0.7-3.7c0.4-0.8,1.1-1.1,2.1-1.1c0.4,0,0.8,0.1,1.1,0.2c0.3,0.2,0.6,0.4,0.9,0.8l0,0V6.2h2.3v12.1
		h-2.2V17.5L251.8,17.5z M249.5,16.1c0.1,0.6,0.4,0.8,1,0.8s0.9-0.2,1-0.8c0.1-0.6,0.2-1.2,0.2-2.2s-0.1-1.8-0.2-2.2
		c-0.1-0.6-0.4-0.8-1-0.8s-0.9,0.2-1,0.8c-0.1,0.6-0.2,1.2-0.2,2.2S249.4,15.6,249.5,16.1z"/>
	<path fill="#EC3D2A" d="M257.7,15c0,0.2,0,0.6,0.1,0.8s0.1,0.4,0.2,0.7s0.2,0.3,0.3,0.4c0.1,0.1,0.3,0.2,0.6,0.2
		c0.4,0,0.7-0.1,0.9-0.4c0.2-0.3,0.3-0.7,0.3-1.3h2.1c0,1.1-0.3,1.9-0.9,2.4c-0.6,0.6-1.3,0.9-2.4,0.9c-0.9,0-1.6-0.1-2-0.4
		c-0.4-0.3-0.8-0.7-1.1-1.1c-0.2-0.4-0.3-1-0.4-1.6c0-0.6-0.1-1.1-0.1-1.8s0-1.2,0.1-1.8c0.1-0.6,0.2-1.1,0.6-1.6
		c0.2-0.4,0.7-0.8,1.1-1.1c0.4-0.2,1.1-0.4,1.9-0.4c0.7,0,1.2,0.1,1.7,0.3c0.4,0.2,0.8,0.6,1,0.9c0.2,0.4,0.4,0.9,0.6,1.4
		c0.1,0.6,0.1,1.2,0.1,1.9V14h-4.7v1H257.7z M260.1,11.9c0-0.2-0.1-0.4-0.2-0.7c-0.1-0.2-0.2-0.3-0.3-0.4c-0.1-0.1-0.3-0.1-0.6-0.1
		s-0.4,0-0.6,0.1c-0.1,0.1-0.2,0.2-0.3,0.4c-0.1,0.2-0.1,0.3-0.2,0.6c0,0.2-0.1,0.4-0.1,0.7v0.3h2.4
		C260.1,12.4,260.1,12.1,260.1,11.9z"/>
	<path fill="#EC3D2A" d="M271.9,6.2c0.9,0,1.6,0.1,2.1,0.4s0.9,0.7,1.2,1.2s0.4,1.1,0.6,1.9c0.1,0.8,0.1,1.6,0.1,2.4
		c0,1.1-0.1,2-0.2,2.8c-0.1,0.8-0.3,1.4-0.7,2s-0.8,0.9-1.2,1.1c-0.6,0.2-1.2,0.3-2,0.3h-3.9V6.2H271.9z M271.4,16.7
		c0.4,0,0.8-0.1,1-0.2s0.4-0.4,0.7-0.8c0.1-0.3,0.2-0.8,0.3-1.3c0.1-0.6,0.1-1.2,0.1-2.1c0-0.7,0-1.3-0.1-1.8
		c-0.1-0.4-0.1-1-0.3-1.3c-0.1-0.3-0.3-0.6-0.7-0.8c-0.2-0.2-0.7-0.2-1.1-0.2h-1v8.6C270.3,16.7,271.4,16.7,271.4,16.7z"/>
	<path fill="#EC3D2A" d="M277.5,11.9c0-0.6,0.1-1,0.2-1.3c0.2-0.3,0.4-0.7,0.7-0.9c0.2-0.2,0.7-0.3,1-0.4c0.3-0.1,0.8-0.1,1.2-0.1
		c0.7,0,1.2,0.1,1.7,0.2c0.4,0.1,0.8,0.3,1,0.6c0.2,0.2,0.4,0.6,0.4,0.9c0.1,0.3,0.1,0.8,0.1,1.1v4.8c0,0.4,0,0.8,0.1,1
		c0,0.2,0.1,0.4,0.2,0.8h-2.2c-0.1-0.1-0.1-0.3-0.2-0.4c0-0.1-0.1-0.3-0.1-0.4l0,0c-0.2,0.4-0.6,0.8-1,0.9c-0.3,0.1-0.8,0.2-1.3,0.2
		c-0.4,0-0.8-0.1-1-0.2c-0.3-0.1-0.6-0.3-0.7-0.6c-0.2-0.2-0.3-0.6-0.3-0.9c-0.1-0.3-0.1-0.7-0.1-0.9c0-0.4,0-0.8,0.1-1.1
		s0.2-0.6,0.4-0.8c0.2-0.2,0.4-0.4,0.7-0.6c0.3-0.1,0.7-0.3,1-0.4l1.3-0.3c0.3-0.1,0.6-0.2,0.8-0.3c0.1-0.1,0.2-0.4,0.2-0.7
		c0-0.3-0.1-0.7-0.2-0.8c-0.1-0.2-0.4-0.3-0.9-0.3c-0.3,0-0.7,0.1-0.8,0.3c-0.2,0.2-0.2,0.6-0.2,0.9v0.2h-2.1V11.9z M281.2,14.1
		c-0.2,0.1-0.3,0.1-0.4,0.1c-0.4,0.1-0.8,0.2-1,0.6c-0.2,0.2-0.3,0.6-0.3,1c0,0.3,0.1,0.7,0.2,0.9s0.3,0.3,0.7,0.3
		c0.1,0,0.3,0,0.4-0.1c0.2,0,0.3-0.1,0.4-0.2c0.1-0.1,0.2-0.2,0.3-0.4c0.1-0.2,0.1-0.4,0.1-0.7v-1.8C281.7,14,281.5,14.1,281.2,14.1
		z"/>
	<path fill="#EC3D2A" d="M288.6,6.7v2.7h1.3v1.6h-1.3v5c0,0.3,0,0.7,0.1,0.8c0.1,0.1,0.3,0.2,0.7,0.2c0.1,0,0.2,0,0.2,0
		c0.1,0,0.2,0,0.2,0v1.7c-0.2,0-0.6,0-0.8,0s-0.6,0-0.8,0c-0.4,0-0.8,0-1.1-0.1s-0.6-0.2-0.7-0.3c-0.1-0.2-0.2-0.4-0.3-0.8
		c-0.1-0.3-0.1-0.7-0.1-1.1V11h-1.2V9.2h1.2V6.7H288.6z"/>
	<path fill="#EC3D2A" d="M290.7,11.8c0.1-0.6,0.3-1.1,0.7-1.6c0.3-0.4,0.7-0.7,1.1-0.9c0.4-0.2,1-0.3,1.7-0.3s1.3,0.1,1.8,0.3
		s0.9,0.6,1.1,0.9c0.2,0.3,0.4,0.9,0.6,1.6c0.1,0.7,0.2,1.3,0.2,2.1s-0.1,1.4-0.2,2.1c-0.1,0.7-0.3,1.1-0.7,1.6s-0.7,0.7-1.1,0.9
		c-0.4,0.2-1,0.3-1.7,0.3s-1.3-0.1-1.8-0.2c-0.4-0.2-0.9-0.4-1.1-0.9s-0.4-0.9-0.6-1.6c-0.1-0.6-0.2-1.3-0.2-2.1
		C290.5,13.1,290.5,12.3,290.7,11.8z M292.8,15.1c0,0.4,0.1,0.8,0.1,1c0.1,0.3,0.2,0.6,0.3,0.7c0.2,0.1,0.4,0.2,0.7,0.2
		c0.4,0,0.8-0.2,1-0.8c0.2-0.4,0.2-1.3,0.2-2.4s-0.1-2-0.2-2.4c-0.2-0.4-0.6-0.8-1-0.8c-0.3,0-0.6,0.1-0.7,0.2
		c-0.2,0.1-0.3,0.3-0.3,0.7c-0.1,0.3-0.1,0.7-0.1,1c0,0.4,0,0.8,0,1.3S292.8,14.8,292.8,15.1z"/>
	<path fill="#EC3D2A" d="M300.7,15.8c0,0.4,0.1,0.7,0.3,1c0.2,0.2,0.6,0.3,0.9,0.3s0.7-0.1,0.9-0.2c0.2-0.2,0.3-0.4,0.3-0.8
		s-0.1-0.6-0.2-0.7c-0.2-0.1-0.3-0.2-0.6-0.3l-1.7-0.6c-0.7-0.2-1.1-0.6-1.4-1c-0.3-0.4-0.4-1-0.4-1.6c0-0.3,0.1-0.8,0.2-1.1
		c0.1-0.3,0.3-0.7,0.6-0.9c0.2-0.2,0.7-0.4,1-0.6c0.4-0.1,0.9-0.2,1.6-0.2c1.1,0,1.9,0.2,2.3,0.7c0.4,0.4,0.8,1.1,0.8,1.9v0.3h-2.1
		c0-0.4-0.1-0.8-0.2-1c-0.1-0.2-0.4-0.3-0.8-0.3c-0.3,0-0.6,0.1-0.8,0.2c-0.2,0.1-0.3,0.4-0.3,0.8c0,0.2,0.1,0.4,0.2,0.7
		c0.1,0.2,0.4,0.3,0.8,0.4l1.4,0.4c0.8,0.2,1.2,0.6,1.6,1c0.3,0.4,0.4,1,0.4,1.7c0,0.4-0.1,0.9-0.2,1.2c-0.2,0.3-0.4,0.7-0.7,0.9
		c-0.3,0.2-0.7,0.4-1.1,0.6c-0.4,0.1-0.9,0.1-1.3,0.1c-0.7,0-1.2-0.1-1.7-0.2c-0.4-0.1-0.8-0.3-1-0.6c-0.2-0.2-0.4-0.6-0.6-0.9
		s-0.1-0.8-0.1-1.2v-0.3h2.1v0.2H300.7z"/>
</g>
</svg>
