<?xml version="1.0" encoding="utf-8"?>
<!-- Generator: Adobe Illustrator 18.0.0, SVG Export Plug-In . SVG Version: 6.00 Build 0)  -->
<!DOCTYPE svg PUBLIC "-//W3C//DTD SVG 1.1//EN" "http://www.w3.org/Graphics/SVG/1.1/DTD/svg11.dtd">
<svg version="1.1" id="Layer_1" xmlns="http://www.w3.org/2000/svg" xmlns:xlink="http://www.w3.org/1999/xlink" x="0px" y="0px"
	 viewBox="49.5 6.1 211.2 89.8" enable-background="new 49.5 6.1 211.2 89.8" xml:space="preserve">
<rect x="103.7" y="29.5" fill="none" width="156.9" height="66.4"/>
<g enable-background="new    ">
	<path d="M106,31.4l-0.2,2.3h0c0.2-0.3,0.4-0.5,0.7-0.6s0.7-0.2,1.1-0.2c0.5,0,0.9,0.1,1.2,0.3c0.3,0.2,0.6,0.4,0.7,0.7
		c0.2,0.3,0.3,0.6,0.4,1c0.1,0.4,0.1,0.8,0.1,1.2c0,0.6,0,1.1-0.1,1.5c-0.1,0.4-0.3,0.8-0.5,1.2c-0.2,0.3-0.6,0.6-1,0.7
		c-0.4,0.2-0.9,0.2-1.6,0.2c-0.6,0-1.1-0.1-1.5-0.3c-0.4-0.2-0.7-0.4-0.9-0.7c-0.2-0.3-0.3-0.6-0.4-0.9c-0.1-0.3-0.1-0.6-0.1-0.9
		v-0.3h1.9c0,0.2,0,0.3,0,0.5s0.1,0.4,0.1,0.5c0.1,0.2,0.2,0.3,0.3,0.4c0.1,0.1,0.3,0.2,0.5,0.2c0.4,0,0.7-0.2,0.9-0.5
		s0.3-0.8,0.3-1.4c0-0.4,0-0.8-0.1-1c0-0.3-0.1-0.5-0.2-0.6c-0.1-0.2-0.2-0.3-0.4-0.3c-0.1-0.1-0.3-0.1-0.6-0.1
		c-0.3,0-0.5,0.1-0.7,0.2c-0.2,0.2-0.2,0.4-0.3,0.7h-1.8l0.4-5.4h5.2v1.6H106z"/>
	<path d="M115,36.3h-3.9v-1.7h3.9V36.3z"/>
	<path d="M122,31.4c-0.4,0.6-0.8,1.2-1.1,1.9s-0.6,1.3-0.8,2s-0.4,1.4-0.6,2.1c-0.2,0.7-0.3,1.4-0.4,2.1H117
		c0.1-0.6,0.2-1.2,0.3-1.9c0.1-0.7,0.3-1.3,0.6-2c0.2-0.7,0.5-1.4,0.9-2.1c0.4-0.7,0.8-1.4,1.3-2h-4.2v-1.7h6.1V31.4z"/>
	<path d="M128.2,32v0.8h0c0.2-0.3,0.5-0.6,0.8-0.7s0.7-0.2,1.1-0.2c0.4,0,0.8,0.1,1.1,0.3c0.3,0.2,0.5,0.5,0.6,0.9h0
		c0.1-0.4,0.4-0.7,0.7-0.9c0.3-0.2,0.7-0.3,1.2-0.3c0.6,0,1.1,0.2,1.4,0.6c0.3,0.4,0.5,0.9,0.5,1.7v5.5h-1.9v-5.3
		c0-0.3-0.1-0.6-0.2-0.7s-0.3-0.3-0.6-0.3c-0.3,0-0.6,0.1-0.7,0.3c-0.2,0.2-0.3,0.5-0.3,1v5H130v-5.3c0-0.3-0.1-0.6-0.2-0.7
		s-0.3-0.3-0.6-0.3c-0.3,0-0.6,0.1-0.7,0.3c-0.2,0.2-0.3,0.5-0.3,1v5h-1.9V32H128.2z"/>
	<path d="M137,34.1c0-0.4,0.1-0.8,0.2-1.1c0.1-0.3,0.3-0.5,0.6-0.7c0.2-0.2,0.5-0.3,0.8-0.4c0.3-0.1,0.7-0.1,1-0.1
		c0.6,0,1,0.1,1.4,0.2c0.4,0.1,0.6,0.3,0.8,0.5c0.2,0.2,0.3,0.5,0.4,0.7c0.1,0.3,0.1,0.6,0.1,0.9v4c0,0.4,0,0.6,0,0.8
		c0,0.2,0.1,0.4,0.2,0.6h-1.8c-0.1-0.1-0.1-0.2-0.1-0.4s-0.1-0.3-0.1-0.4h0c-0.2,0.4-0.5,0.6-0.8,0.8s-0.7,0.2-1.1,0.2
		c-0.3,0-0.6-0.1-0.9-0.2s-0.4-0.3-0.6-0.5c-0.1-0.2-0.2-0.4-0.3-0.7c-0.1-0.3-0.1-0.5-0.1-0.8c0-0.4,0-0.7,0.1-0.9s0.2-0.5,0.3-0.7
		c0.2-0.2,0.3-0.3,0.6-0.5c0.2-0.1,0.5-0.2,0.9-0.3l1.1-0.3c0.3-0.1,0.5-0.2,0.6-0.3c0.1-0.1,0.2-0.3,0.2-0.6c0-0.3-0.1-0.5-0.2-0.7
		c-0.1-0.2-0.4-0.2-0.7-0.2c-0.3,0-0.5,0.1-0.7,0.3s-0.2,0.4-0.2,0.7v0.2H137V34.1z M140.1,36c-0.1,0.1-0.3,0.1-0.4,0.1
		c-0.4,0.1-0.7,0.2-0.8,0.4c-0.2,0.2-0.3,0.5-0.3,0.8c0,0.3,0.1,0.5,0.2,0.7c0.1,0.2,0.3,0.3,0.6,0.3c0.1,0,0.3,0,0.4-0.1
		s0.3-0.1,0.4-0.2c0.1-0.1,0.2-0.2,0.3-0.4s0.1-0.3,0.1-0.5v-1.5C140.3,35.9,140.2,36,140.1,36z"/>
	<path d="M144.2,40.6c0.4,0,0.6-0.1,0.8-0.3c0.2-0.2,0.2-0.4,0.3-0.7l-2.1-7.5h2l1.1,5.2h0l1-5.2h1.9l-1.8,7
		c-0.2,0.6-0.3,1.1-0.5,1.5c-0.2,0.4-0.3,0.7-0.5,0.9s-0.5,0.3-0.8,0.4c-0.3,0.1-0.7,0.1-1.1,0.1h-0.8v-1.4
		C143.9,40.6,144,40.6,144.2,40.6z"/>
	<path d="M149.8,34.1c0.1-0.5,0.3-0.9,0.5-1.2s0.5-0.6,0.9-0.8c0.4-0.2,0.8-0.3,1.4-0.3c0.6,0,1.1,0.1,1.4,0.2
		c0.4,0.2,0.7,0.4,0.9,0.7s0.4,0.8,0.5,1.2c0.1,0.5,0.1,1.1,0.1,1.7c0,0.6-0.1,1.2-0.2,1.7c-0.1,0.5-0.3,0.9-0.5,1.2
		c-0.2,0.3-0.5,0.6-0.9,0.7s-0.8,0.2-1.4,0.2c-0.6,0-1.1-0.1-1.4-0.2s-0.7-0.4-0.9-0.7c-0.2-0.3-0.4-0.7-0.5-1.2
		c-0.1-0.5-0.1-1.1-0.1-1.7C149.7,35.1,149.7,34.6,149.8,34.1z M151.6,36.9c0,0.3,0.1,0.6,0.1,0.8c0.1,0.2,0.2,0.4,0.3,0.5
		c0.1,0.1,0.3,0.2,0.6,0.2c0.4,0,0.7-0.2,0.8-0.6s0.2-1.1,0.2-2c0-0.9-0.1-1.6-0.2-2s-0.4-0.6-0.8-0.6c-0.2,0-0.4,0.1-0.6,0.2
		c-0.1,0.1-0.2,0.3-0.3,0.5c-0.1,0.2-0.1,0.5-0.1,0.8s0,0.7,0,1.1C151.6,36.2,151.6,36.5,151.6,36.9z"/>
	<path d="M159.6,39.6c0-0.4,0-0.8,0.1-1.2s0.2-0.7,0.4-1.1c0.2-0.3,0.4-0.7,0.7-1c0.3-0.3,0.6-0.7,1-1l0.8-0.8
		c0.2-0.2,0.4-0.4,0.5-0.5c0.1-0.2,0.2-0.3,0.3-0.5c0.1-0.2,0.1-0.4,0.1-0.5c0-0.2,0-0.4,0-0.7c0-0.8-0.3-1.2-1-1.2
		c-0.3,0-0.5,0.1-0.6,0.2s-0.3,0.2-0.3,0.4s-0.1,0.4-0.2,0.6s0,0.5,0,0.7h-1.9v-0.4c0-0.9,0.2-1.6,0.7-2.1c0.5-0.5,1.3-0.7,2.3-0.7
		c1,0,1.8,0.2,2.2,0.7s0.7,1.1,0.7,2c0,0.3,0,0.6-0.1,0.9c-0.1,0.3-0.1,0.5-0.3,0.8c-0.1,0.3-0.3,0.5-0.5,0.7
		c-0.2,0.2-0.4,0.5-0.7,0.7l-1.1,1c-0.3,0.3-0.5,0.5-0.7,0.8S162,37.8,162,38h3.7v1.6H159.6z"/>
	<path d="M166.4,32.9c0-0.6,0.2-1.2,0.4-1.7c0.2-0.5,0.5-0.9,0.9-1.2c0.4-0.3,1-0.4,1.7-0.4c0.6,0,1.1,0.1,1.5,0.3
		c0.4,0.2,0.7,0.5,1,0.8c0.2,0.4,0.4,0.9,0.5,1.5c0.1,0.6,0.1,1.4,0.1,2.2c0,0.7,0,1.4-0.1,2c0,0.6-0.2,1.2-0.4,1.7
		c-0.2,0.5-0.5,0.9-0.9,1.2c-0.4,0.3-1,0.4-1.7,0.4c-0.6,0-1.1-0.1-1.5-0.2s-0.7-0.4-1-0.8c-0.2-0.4-0.4-0.9-0.5-1.5
		c-0.1-0.6-0.1-1.4-0.1-2.2C166.3,34.2,166.3,33.6,166.4,32.9z M168.4,36.9c0,0.4,0.1,0.7,0.2,0.9s0.2,0.4,0.3,0.5s0.3,0.1,0.5,0.1
		c0.2,0,0.4-0.1,0.5-0.2c0.1-0.1,0.2-0.3,0.3-0.5c0.1-0.3,0.1-0.6,0.2-1c0-0.4,0-1,0-1.6V34c0-0.6,0-1.1,0-1.5
		c0-0.4-0.1-0.7-0.2-0.9c-0.1-0.2-0.2-0.4-0.3-0.5c-0.1-0.1-0.3-0.1-0.5-0.1c-0.2,0-0.4,0.1-0.5,0.2c-0.1,0.1-0.2,0.3-0.3,0.5
		c-0.1,0.3-0.1,0.6-0.2,1c0,0.4,0,1,0,1.6v1.1C168.3,36,168.4,36.5,168.4,36.9z"/>
	<path d="M175.3,32.6h-2v-1.3h0.2c0.7,0,1.2-0.1,1.6-0.4c0.4-0.3,0.6-0.7,0.7-1.2h1.5v9.9h-2V32.6z"/>
	<path d="M183.7,31.3c-0.1-0.2-0.4-0.3-0.7-0.3c-0.3,0-0.5,0.1-0.6,0.2c-0.2,0.1-0.3,0.3-0.4,0.5c-0.1,0.2-0.1,0.5-0.2,0.8
		s0,0.6,0,1V34h0c0.2-0.3,0.4-0.5,0.7-0.6s0.7-0.2,1.1-0.2c0.4,0,0.8,0.1,1.1,0.2c0.3,0.2,0.6,0.4,0.7,0.6s0.3,0.6,0.4,1
		s0.1,0.8,0.1,1.2c0,1.1-0.3,2-0.8,2.6s-1.3,0.9-2.4,0.9c-0.7,0-1.2-0.1-1.7-0.4c-0.4-0.2-0.7-0.6-0.9-1c-0.2-0.4-0.4-0.9-0.4-1.5
		s-0.1-1.1-0.1-1.8c0-0.7,0-1.4,0.1-2c0-0.7,0.2-1.2,0.4-1.8c0.2-0.5,0.5-0.9,1-1.2c0.4-0.3,1.1-0.5,1.9-0.5c0.4,0,0.7,0,1,0.1
		c0.3,0.1,0.6,0.2,0.9,0.4c0.3,0.2,0.5,0.5,0.6,0.8c0.2,0.3,0.2,0.7,0.2,1.2h-1.9C183.9,31.8,183.8,31.5,183.7,31.3z M181.9,37.3
		c0,0.2,0.1,0.5,0.2,0.6s0.2,0.3,0.3,0.4s0.3,0.1,0.6,0.1c0.2,0,0.4,0,0.6-0.1s0.3-0.2,0.3-0.4c0.1-0.2,0.1-0.4,0.1-0.6
		c0-0.2,0-0.5,0-0.8c0-0.7-0.1-1.2-0.3-1.4c-0.2-0.3-0.4-0.4-0.8-0.4c-0.4,0-0.7,0.1-0.9,0.4c-0.2,0.3-0.3,0.8-0.3,1.4
		C181.8,36.8,181.8,37,181.9,37.3z"/>
	<path d="M188.8,39.2c0,0.3,0,0.7-0.1,1c-0.1,0.3-0.1,0.6-0.3,0.8c-0.1,0.2-0.3,0.4-0.6,0.6c-0.2,0.1-0.5,0.2-0.9,0.3v-1
		c0.2,0,0.4-0.2,0.5-0.4c0.1-0.2,0.2-0.5,0.2-0.7v-0.2H187v-2.2h1.8V39.2z"/>
	<path d="M196.2,29.6l1.4,7.1h0l1.4-7.1h3v10h-1.8v-8h0l-1.8,8h-1.6l-1.8-8h0v8h-1.8v-10H196.2z"/>
	<path d="M203.4,34.1c0-0.4,0.1-0.8,0.2-1.1c0.1-0.3,0.3-0.5,0.6-0.7c0.2-0.2,0.5-0.3,0.8-0.4s0.7-0.1,1-0.1c0.6,0,1,0.1,1.4,0.2
		s0.6,0.3,0.8,0.5c0.2,0.2,0.3,0.5,0.4,0.7c0.1,0.3,0.1,0.6,0.1,0.9v4c0,0.4,0,0.6,0,0.8c0,0.2,0.1,0.4,0.2,0.6h-1.8
		c-0.1-0.1-0.1-0.2-0.1-0.4c0-0.1-0.1-0.3-0.1-0.4h0c-0.2,0.4-0.5,0.6-0.8,0.8c-0.3,0.1-0.7,0.2-1.1,0.2c-0.3,0-0.6-0.1-0.9-0.2
		c-0.2-0.1-0.4-0.3-0.6-0.5c-0.1-0.2-0.2-0.4-0.3-0.7c-0.1-0.3-0.1-0.5-0.1-0.8c0-0.4,0-0.7,0.1-0.9c0.1-0.3,0.2-0.5,0.3-0.7
		c0.2-0.2,0.4-0.3,0.6-0.5c0.2-0.1,0.5-0.2,0.9-0.3l1.1-0.3c0.3-0.1,0.5-0.2,0.6-0.3c0.1-0.1,0.2-0.3,0.2-0.6c0-0.3-0.1-0.5-0.2-0.7
		c-0.1-0.2-0.4-0.2-0.7-0.2c-0.3,0-0.5,0.1-0.7,0.3s-0.2,0.4-0.2,0.7v0.2h-1.7V34.1z M206.5,36c-0.1,0.1-0.3,0.1-0.4,0.1
		c-0.4,0.1-0.7,0.2-0.8,0.4c-0.2,0.2-0.3,0.5-0.3,0.8c0,0.3,0.1,0.5,0.2,0.7c0.1,0.2,0.3,0.3,0.6,0.3c0.1,0,0.3,0,0.4-0.1
		s0.3-0.1,0.4-0.2c0.1-0.1,0.2-0.2,0.3-0.4c0.1-0.1,0.1-0.3,0.1-0.5v-1.5C206.8,35.9,206.7,36,206.5,36z"/>
	<path d="M214,38.8c-0.2,0.4-0.5,0.6-0.7,0.7c-0.3,0.1-0.6,0.2-1,0.2c-0.8,0-1.4-0.3-1.8-0.9c-0.4-0.6-0.6-1.6-0.6-3s0.2-2.4,0.6-3
		c0.4-0.6,1-0.9,1.8-0.9c0.4,0,0.7,0.1,0.9,0.2s0.5,0.4,0.7,0.7h0v-3.2h1.9v10H214L214,38.8L214,38.8z M212.1,37.6
		c0.1,0.4,0.4,0.6,0.8,0.6c0.4,0,0.7-0.2,0.8-0.6c0.1-0.4,0.2-1,0.2-1.9s-0.1-1.4-0.2-1.9c-0.1-0.4-0.4-0.6-0.8-0.6
		c-0.4,0-0.7,0.2-0.8,0.6c-0.1,0.4-0.2,1-0.2,1.9S212,37.2,212.1,37.6z"/>
	<path d="M219,32v1h0c0.2-0.4,0.4-0.7,0.7-0.9c0.3-0.2,0.6-0.3,1-0.3c0.1,0,0.1,0,0.2,0c0.1,0,0.1,0,0.2,0v1.8c-0.1,0-0.2,0-0.3,0
		c-0.1,0-0.2,0-0.3,0c-0.2,0-0.3,0-0.5,0.1c-0.2,0-0.3,0.1-0.5,0.2c-0.1,0.1-0.3,0.2-0.3,0.4c-0.1,0.2-0.1,0.4-0.1,0.6v4.5h-1.9V32
		H219z"/>
	<path d="M223.8,29.4v1.7h-1.9v-1.7H223.8z M223.8,32v7.5h-1.9V32H223.8z"/>
	<path d="M229,38.8c-0.2,0.4-0.5,0.6-0.7,0.7c-0.3,0.1-0.6,0.2-1,0.2c-0.8,0-1.4-0.3-1.8-0.9c-0.4-0.6-0.6-1.6-0.6-3s0.2-2.4,0.6-3
		c0.4-0.6,1-0.9,1.8-0.9c0.4,0,0.7,0.1,0.9,0.2s0.5,0.4,0.7,0.7h0v-3.2h1.9v10h-1.8L229,38.8L229,38.8z M227.1,37.6
		c0.1,0.4,0.4,0.6,0.8,0.6c0.4,0,0.7-0.2,0.8-0.6c0.1-0.4,0.2-1,0.2-1.9s-0.1-1.4-0.2-1.9c-0.1-0.4-0.4-0.6-0.8-0.6
		c-0.4,0-0.7,0.2-0.8,0.6c-0.1,0.4-0.2,1-0.2,1.9S227,37.2,227.1,37.6z"/>
</g>
<g enable-background="new    ">
	<path d="M110.5,52h-3.4v2.8h3.2l0.1-1.2h1.5v2.7h-7.9v-1.2l1.1-0.2v-7.1l-1.1-0.2v-1.2h1.1h6.8v2.7h-1.5l-0.1-1.2h-3.2v2.5h3.4V52z
		"/>
	<path d="M113.7,56.4v-1.2l1.1-0.2v-7.1l-1.1-0.2v-1.2h1.1h2h1.1v1.2l-1.1,0.2v7h2.8l0.1-1.3h1.5v2.8H113.7z"/>
	<path d="M131.4,46.4c1.1,0,2,0.3,2.7,0.9s1,1.4,1,2.3c0,1-0.3,1.7-1,2.3s-1.6,0.9-2.7,0.9h-1.7V55l1.1,0.2v1.2h-4.1v-1.2l1.1-0.2
		v-7.1l-1.1-0.2v-1.2h1.1H131.4z M129.7,51.2h1.7c0.6,0,1-0.2,1.3-0.5c0.3-0.3,0.4-0.7,0.4-1.2c0-0.5-0.1-0.9-0.4-1.2
		s-0.7-0.5-1.3-0.5h-1.7V51.2z"/>
	<path d="M145.5,51.5c0,1.5-0.4,2.7-1.3,3.6s-1.9,1.4-3.3,1.4c-1.3,0-2.4-0.5-3.3-1.4s-1.2-2.2-1.2-3.6v-0.2c0-1.4,0.4-2.7,1.2-3.6
		s1.9-1.4,3.3-1.4c1.3,0,2.4,0.5,3.3,1.4s1.3,2.2,1.3,3.6V51.5z M143.5,51.3c0-1-0.2-1.9-0.6-2.5s-1.1-1-1.9-1s-1.5,0.3-1.9,1
		s-0.6,1.5-0.6,2.5v0.2c0,1,0.2,1.9,0.6,2.5c0.4,0.6,1,1,1.9,1c0.8,0,1.5-0.3,1.9-1c0.4-0.6,0.6-1.5,0.6-2.5V51.3z"/>
	<path d="M151.4,46.4c1.2,0,2.2,0.4,3,1.2s1.2,1.8,1.2,3v1.6c0,1.2-0.4,2.2-1.2,3c-0.8,0.8-1.8,1.2-3,1.2h-4.5v-1.2L148,55v-7.1
		l-1.1-0.2v-1.2h1.1H151.4z M150,47.9v6.9h1.3c0.7,0,1.3-0.2,1.7-0.7s0.6-1.1,0.6-1.9v-1.7c0-0.8-0.2-1.4-0.6-1.9s-1-0.7-1.7-0.7
		H150z"/>
	<path d="M163.7,52h-3.4v2.8h3.2l0.1-1.2h1.5v2.7h-7.9v-1.2l1.1-0.2v-7.1l-1.1-0.2v-1.2h1.1h6.8v2.7h-1.5l-0.1-1.2h-3.2v2.5h3.4V52z
		"/>
	<path d="M171.3,46.4c1.1,0,2,0.3,2.7,0.8s1,1.2,1,2.1c0,0.5-0.1,0.9-0.4,1.3s-0.7,0.7-1.2,0.9c0.6,0.2,1,0.5,1.3,0.9
		c0.3,0.4,0.4,0.9,0.4,1.5v0.5c0,0.2,0,0.4,0.1,0.5c0.1,0.1,0.2,0.2,0.4,0.2l0.2,0v1.2h-1c-0.7,0-1.1-0.2-1.4-0.5S173,55,173,54.5
		v-0.6c0-0.5-0.1-0.9-0.4-1.1c-0.3-0.3-0.6-0.4-1.1-0.4h-1.6V55l1.1,0.2v1.2h-4.1v-1.2l1.1-0.2v-7.1l-1.1-0.2v-1.2h1.1H171.3z
		 M169.9,50.8h1.4c0.6,0,1-0.1,1.3-0.4c0.3-0.2,0.4-0.6,0.4-1s-0.1-0.8-0.4-1.1c-0.3-0.3-0.7-0.4-1.2-0.4h-1.4V50.8z"/>
	<path d="M187.6,52h-3.4v2.8h3.2l0.1-1.2h1.5v2.7h-7.9v-1.2l1.1-0.2v-7.1l-1.1-0.2v-1.2h1.1h6.8v2.7h-1.5l-0.1-1.2h-3.2v2.5h3.4V52z
		"/>
	<path d="M198.4,49.6h-1.5l-0.3-1.4c-0.2-0.1-0.4-0.2-0.8-0.3s-0.7-0.1-1.1-0.1c-0.5,0-1,0.1-1.3,0.3c-0.3,0.2-0.4,0.5-0.4,0.9
		c0,0.3,0.2,0.6,0.5,0.8c0.3,0.2,0.9,0.4,1.6,0.7c1.1,0.3,1.9,0.7,2.5,1.2c0.6,0.5,0.9,1.2,0.9,2c0,0.9-0.3,1.5-1,2
		s-1.6,0.7-2.7,0.7c-0.8,0-1.5-0.1-2.1-0.4c-0.6-0.3-1.2-0.6-1.6-1V53h1.5l0.2,1.4c0.2,0.2,0.5,0.3,0.8,0.4c0.3,0.1,0.7,0.2,1.2,0.2
		c0.5,0,1-0.1,1.2-0.3c0.3-0.2,0.4-0.5,0.4-0.9c0-0.4-0.1-0.7-0.4-0.9c-0.3-0.2-0.7-0.5-1.4-0.7c-1.2-0.3-2.1-0.7-2.7-1.2
		s-0.9-1.1-0.9-1.9c0-0.8,0.3-1.5,1-2s1.5-0.8,2.6-0.8c0.8,0,1.5,0.1,2.1,0.3s1.2,0.5,1.6,0.9V49.6z"/>
	<path d="M208.7,46.4v2.7h-1.5l-0.1-1.1h-1.8v7l1.1,0.2v1.2h-4.1v-1.2l1.1-0.2v-7h-1.8l-0.1,1.1h-1.5v-2.7H208.7z"/>
	<path d="M208.7,55.2l0.7-0.1l3-8.7h2l3,8.7l0.7,0.1v1.2h-3.4v-1.2l0.7-0.1l-0.4-1.4h-3.2l-0.4,1.4l0.7,0.1v1.2h-3.4V55.2z
		 M213.6,43.9h2.1l0,0l-1.9,1.8h-1.6L213.6,43.9z M212.3,52.2h2.3l-1.1-3.5h0L212.3,52.2z"/>
</g>
<g enable-background="new    ">
	<path d="M110.5,68.8h-3.4v2.8h3.2l0.1-1.2h1.5v2.7h-7.9V72l1.1-0.2v-7.1l-1.1-0.2v-1.2h1.1h6.8v2.7h-1.5l-0.1-1.2h-3.2v2.5h3.4
		V68.8z"/>
	<path d="M123.9,63.2v1.2l-1.1,0.2v8.5h-2l-4-6.7l0,0v5.3l1.1,0.2v1.2h-4.1V72l1.1-0.2v-7.1l-1.1-0.2v-1.2h1.1h2l4,6.7l0,0v-5.3
		l-1.1-0.2v-1.2h3.1H123.9z"/>
	<path d="M129.3,73.2V72l1.1-0.2v-7.1l-1.1-0.2v-1.2h1.1h2h1.1v1.2l-1.1,0.2v7h2.8l0.1-1.3h1.5v2.8H129.3z"/>
	<path d="M147.1,68.3c0,1.5-0.4,2.7-1.3,3.6s-1.9,1.4-3.3,1.4c-1.3,0-2.4-0.5-3.3-1.4s-1.2-2.2-1.2-3.6v-0.2c0-1.4,0.4-2.7,1.2-3.6
		s1.9-1.4,3.3-1.4c1.3,0,2.4,0.5,3.3,1.4s1.3,2.2,1.3,3.6V68.3z M145.1,68.1c0-1-0.2-1.9-0.6-2.5s-1.1-1-1.9-1s-1.5,0.3-1.9,1
		S140,67,140,68.1v0.2c0,1,0.2,1.9,0.6,2.5c0.4,0.6,1,1,1.9,1c0.8,0,1.5-0.3,1.9-1c0.4-0.6,0.6-1.5,0.6-2.5V68.1z"/>
	<path d="M156.1,66.4h-1.5l-0.3-1.4c-0.2-0.1-0.4-0.2-0.8-0.3s-0.7-0.1-1.1-0.1c-0.5,0-1,0.1-1.3,0.3c-0.3,0.2-0.4,0.5-0.4,0.9
		c0,0.3,0.2,0.6,0.5,0.8c0.3,0.2,0.9,0.4,1.6,0.7c1.1,0.3,1.9,0.7,2.5,1.2c0.6,0.5,0.9,1.2,0.9,2c0,0.9-0.3,1.5-1,2
		s-1.6,0.7-2.7,0.7c-0.8,0-1.5-0.1-2.1-0.4c-0.6-0.3-1.2-0.6-1.6-1v-2.1h1.5l0.2,1.4c0.2,0.2,0.5,0.3,0.8,0.4
		c0.3,0.1,0.7,0.2,1.2,0.2c0.5,0,1-0.1,1.2-0.3c0.3-0.2,0.4-0.5,0.4-0.9c0-0.4-0.1-0.7-0.4-0.9c-0.3-0.2-0.7-0.5-1.4-0.7
		c-1.2-0.3-2.1-0.7-2.7-1.2c-0.6-0.5-0.9-1.1-0.9-1.9c0-0.8,0.3-1.5,1-2c0.7-0.5,1.5-0.8,2.6-0.8c0.8,0,1.5,0.1,2.1,0.3
		s1.2,0.5,1.6,0.9V66.4z"/>
	<path d="M166.2,63.2c1.2,0,2.2,0.4,3,1.2c0.8,0.8,1.2,1.8,1.2,3V69c0,1.2-0.4,2.2-1.2,3c-0.8,0.8-1.8,1.2-3,1.2h-4.5V72l1.1-0.2
		v-7.1l-1.1-0.2v-1.2h1.1H166.2z M164.8,64.7v6.9h1.3c0.7,0,1.3-0.2,1.7-0.7s0.6-1.1,0.6-1.9v-1.7c0-0.8-0.2-1.4-0.6-1.9
		s-1-0.7-1.7-0.7H164.8z"/>
	<path d="M171.5,72l0.7-0.1l3-8.7h2l3,8.7L181,72v1.2h-3.4V72l0.7-0.1l-0.4-1.4h-3.2l-0.4,1.4l0.7,0.1v1.2h-3.4V72z M175.2,69h2.3
		l-1.1-3.5h0L175.2,69z"/>
	<path d="M190.1,63.2v2.7h-1.5l-0.1-1.1h-1.8v7l1.1,0.2v1.2h-4.1V72l1.1-0.2v-7h-1.8l-0.1,1.1h-1.5v-2.7H190.1z"/>
	<path d="M200.3,68.3c0,1.5-0.4,2.7-1.3,3.6s-1.9,1.4-3.3,1.4c-1.3,0-2.4-0.5-3.3-1.4c-0.8-1-1.2-2.2-1.2-3.6v-0.2
		c0-1.4,0.4-2.7,1.2-3.6s1.9-1.4,3.3-1.4c1.3,0,2.4,0.5,3.3,1.4c0.8,1,1.3,2.2,1.3,3.6V68.3z M198.3,68.1c0-1-0.2-1.9-0.6-2.5
		s-1.1-1-1.9-1s-1.5,0.3-1.9,1c-0.4,0.6-0.6,1.5-0.6,2.5v0.2c0,1,0.2,1.9,0.6,2.5c0.4,0.6,1,1,1.9,1c0.8,0,1.5-0.3,1.9-1
		c0.4-0.6,0.6-1.5,0.6-2.5V68.1z"/>
	<path d="M209.3,66.4h-1.5l-0.3-1.4c-0.2-0.1-0.4-0.2-0.8-0.3s-0.7-0.1-1.1-0.1c-0.5,0-1,0.1-1.3,0.3c-0.3,0.2-0.4,0.5-0.4,0.9
		c0,0.3,0.2,0.6,0.5,0.8c0.3,0.2,0.9,0.4,1.6,0.7c1.1,0.3,1.9,0.7,2.5,1.2c0.6,0.5,0.9,1.2,0.9,2c0,0.9-0.3,1.5-1,2
		s-1.6,0.7-2.7,0.7c-0.8,0-1.5-0.1-2.1-0.4c-0.6-0.3-1.2-0.6-1.6-1v-2.1h1.5l0.2,1.4c0.2,0.2,0.5,0.3,0.8,0.4
		c0.3,0.1,0.7,0.2,1.2,0.2c0.5,0,1-0.1,1.2-0.3c0.3-0.2,0.4-0.5,0.4-0.9c0-0.4-0.1-0.7-0.4-0.9c-0.3-0.2-0.7-0.5-1.4-0.7
		c-1.2-0.3-2.1-0.7-2.7-1.2s-0.9-1.1-0.9-1.9c0-0.8,0.3-1.5,1-2c0.7-0.5,1.5-0.8,2.6-0.8c0.8,0,1.5,0.1,2.1,0.3s1.2,0.5,1.6,0.9
		V66.4z"/>
</g>
<g enable-background="new    ">
	<path fill="#EC3D2A" d="M108.1,87.2h-1.3l-0.5,2.8h-1.3l0.5-2.8H104V86h1.8l0.3-2h-1.6v-1.2h1.8l0.5-2.8h1.3l-0.5,2.8h1.3l0.5-2.8
		h1.3l-0.5,2.8h1.5V84h-1.7l-0.3,2h1.5v1.2h-1.7l-0.5,2.8h-1.3L108.1,87.2z M107,86h1.3l0.3-2h-1.3L107,86z"/>
	<path fill="#EC3D2A" d="M120.5,80v1.2l-1.1,0.2V87c0,1-0.3,1.7-0.9,2.3c-0.6,0.6-1.4,0.8-2.4,0.8c-1,0-1.9-0.3-2.5-0.8
		s-0.9-1.3-0.9-2.2l0,0h1.9c0,0.5,0.1,0.9,0.4,1.1c0.3,0.2,0.6,0.4,1,0.4c0.4,0,0.7-0.1,0.9-0.4c0.3-0.3,0.4-0.7,0.4-1.2v-5.6
		l-1.1-0.2V80h3.1H120.5z"/>
	<path fill="#EC3D2A" d="M126.5,80c1.1,0,2,0.3,2.7,0.9c0.7,0.6,1,1.4,1,2.3c0,1-0.3,1.7-1,2.3s-1.6,0.9-2.7,0.9h-1.7v2.2l1.1,0.2
		V90h-4.1v-1.2l1.1-0.2v-7.1l-1.1-0.2V80h1.1H126.5z M124.8,84.8h1.7c0.6,0,1-0.2,1.3-0.5c0.3-0.3,0.4-0.7,0.4-1.2
		c0-0.5-0.1-0.9-0.4-1.2c-0.3-0.3-0.7-0.5-1.3-0.5h-1.7V84.8z"/>
	<path fill="#EC3D2A" d="M136,80c1.2,0,2.2,0.4,3,1.2c0.8,0.8,1.2,1.8,1.2,3v1.6c0,1.2-0.4,2.2-1.2,3c-0.8,0.8-1.8,1.2-3,1.2h-4.5
		v-1.2l1.1-0.2v-7.1l-1.1-0.2V80h1.1H136z M134.5,81.5v6.9h1.3c0.7,0,1.3-0.2,1.7-0.7s0.6-1.1,0.6-1.9v-1.7c0-0.8-0.2-1.4-0.6-1.9
		s-1-0.7-1.7-0.7H134.5z"/>
	<path fill="#EC3D2A" d="M141.8,88.8l1.7-0.2v-6.7h-1.7v-1.1l3.7-0.7v8.6l1.7,0.2V90h-5.4V88.8z"/>
	<path fill="#EC3D2A" d="M152.9,79.9c0.4,0,0.7,0,1,0.1c0.3,0.1,0.6,0.2,1,0.3l-0.3,1.5c-0.3-0.1-0.6-0.2-0.8-0.2
		c-0.2-0.1-0.5-0.1-0.8-0.1c-0.6,0-1.1,0.2-1.4,0.6c-0.4,0.4-0.5,1.1-0.5,1.9l0,0c0.2-0.2,0.5-0.4,0.9-0.5c0.3-0.1,0.7-0.2,1.2-0.2
		c0.9,0,1.6,0.3,2.1,0.9c0.5,0.6,0.8,1.4,0.8,2.4c0,1-0.3,1.8-0.9,2.5s-1.4,1-2.4,1c-1,0-1.9-0.4-2.6-1.1c-0.7-0.7-1-1.7-1-3v-1.8
		c0-1.4,0.4-2.5,1.1-3.3C150.7,80.2,151.7,79.9,152.9,79.9z M152.4,84.8c-0.4,0-0.7,0.1-0.9,0.2s-0.5,0.3-0.6,0.5v0.7
		c0,0.8,0.1,1.4,0.4,1.8c0.3,0.4,0.7,0.6,1.1,0.6c0.4,0,0.7-0.2,1-0.6c0.2-0.4,0.4-0.8,0.4-1.4c0-0.6-0.1-1-0.4-1.3
		S152.8,84.8,152.4,84.8z"/>
</g>
<rect x="55.8" y="29.9" fill="none" stroke="#1A1A1A" stroke-miterlimit="10" width="33.5" height="58.3"/>
<rect x="54" y="45.3" fill="none" width="41.3" height="34.9"/>
<g enable-background="new    ">
	<path fill="#313131" d="M60.6,46.9v2.7h0.1c0.6-1.2,1.2-2,1.9-2.5s1.6-0.8,2.6-0.8c2.1,0,3.7,1,4.7,3.1s1.5,5.4,1.5,10.1
		c0,4.7-0.5,8-1.5,10c-1,2-2.5,3-4.7,3c-1,0-1.8-0.2-2.5-0.7c-0.7-0.5-1.3-1.2-1.8-2.2h-0.1V80h-5.1V46.9H60.6z M61.4,65.6
		c0.3,1.4,1.1,2.1,2.2,2.1c1.1,0,1.8-0.7,2.2-2.1c0.3-1.4,0.5-3.4,0.5-6.2s-0.2-4.8-0.5-6.2s-1.1-2.1-2.2-2.1
		c-1.1,0-1.9,0.7-2.2,2.1s-0.5,3.4-0.5,6.2S61,64.2,61.4,65.6z"/>
</g>
<g enable-background="new    ">
	<path fill="#EA3F2D" d="M84.5,69.3c-0.6,1.2-1.2,2-1.9,2.5c-0.7,0.5-1.6,0.7-2.6,0.7c-2.1,0-3.7-1-4.7-3c-1-2-1.5-5.4-1.5-10
		c0-4.7,0.5-8,1.5-10.1c1-2.1,2.5-3.1,4.7-3.1c1,0,1.8,0.2,2.5,0.7c0.7,0.5,1.3,1.2,1.8,2.2h0.1V38.7h5.1V72h-4.9L84.5,69.3
		L84.5,69.3z M79.5,65.6c0.3,1.4,1.1,2.1,2.2,2.1c1.1,0,1.9-0.7,2.2-2.1c0.3-1.4,0.5-3.4,0.5-6.2s-0.2-4.8-0.5-6.2s-1.1-2.1-2.2-2.1
		c-1.1,0-1.8,0.7-2.2,2.1S79,56.7,79,59.4S79.1,64.2,79.5,65.6z"/>
</g>
<rect x="49.5" y="6.3" fill="none" width="211.2" height="18.1"/>
<g enable-background="new    ">
	<path fill="#EC3D2A" d="M50.3,6.2h2.2v10.9h-2.2V6.2z"/>
	<path fill="#EC3D2A" d="M57.4,14.3L57.4,14.3L59,6.2h2.3l-2.5,10.9H56L53.5,6.2h2.4L57.4,14.3z"/>
	<path fill="#EC3D2A" d="M71.5,14.1c0,1.2-0.3,2-0.8,2.5c-0.5,0.5-1.4,0.7-2.5,0.7c-0.6,0-1.1-0.1-1.4-0.2c-0.4-0.2-0.7-0.4-0.9-0.7
		c-0.2-0.3-0.4-0.6-0.5-1s-0.1-0.8-0.1-1.2v-0.5h2v0.3c0,0.6,0.1,1,0.2,1.3c0.1,0.3,0.4,0.4,0.8,0.4c0.4,0,0.7-0.1,0.8-0.4
		c0.1-0.3,0.2-0.7,0.2-1.3V6.2h2.2V14.1z"/>
	<path fill="#EC3D2A" d="M72.8,11.2c0.1-0.5,0.3-1,0.6-1.4c0.3-0.4,0.6-0.6,1-0.8s0.9-0.3,1.5-0.3c0.6,0,1.2,0.1,1.6,0.3
		c0.4,0.2,0.8,0.5,1,0.8c0.2,0.4,0.4,0.8,0.5,1.4c0.1,0.5,0.2,1.2,0.2,1.9c0,0.7-0.1,1.3-0.2,1.9c-0.1,0.5-0.3,1-0.6,1.4
		s-0.6,0.6-1,0.8c-0.4,0.2-0.9,0.3-1.5,0.3c-0.6,0-1.2-0.1-1.6-0.2c-0.4-0.2-0.8-0.4-1-0.8s-0.4-0.8-0.5-1.4s-0.2-1.2-0.2-1.9
		C72.6,12.4,72.6,11.7,72.8,11.2z M74.7,14.2c0,0.4,0.1,0.7,0.1,0.9c0.1,0.3,0.2,0.5,0.3,0.6c0.2,0.1,0.4,0.2,0.6,0.2
		c0.4,0,0.7-0.2,0.9-0.7c0.2-0.4,0.2-1.2,0.2-2.2c0-1-0.1-1.8-0.2-2.2c-0.2-0.4-0.5-0.7-0.9-0.7c-0.3,0-0.5,0.1-0.6,0.2
		c-0.2,0.1-0.3,0.3-0.3,0.6s-0.1,0.6-0.1,0.9c0,0.4,0,0.7,0,1.2S74.7,13.9,74.7,14.2z"/>
	<path fill="#EC3D2A" d="M82.2,8.9v1.1h0c0.2-0.4,0.5-0.7,0.8-1s0.7-0.4,1.1-0.4c0.1,0,0.1,0,0.2,0c0.1,0,0.1,0,0.2,0v2
		c-0.1,0-0.2,0-0.3,0c-0.1,0-0.2,0-0.3,0c-0.2,0-0.4,0-0.6,0.1c-0.2,0.1-0.4,0.1-0.5,0.3c-0.2,0.1-0.3,0.3-0.4,0.5
		c-0.1,0.2-0.1,0.4-0.1,0.7v5h-2.1V8.9H82.2z"/>
	<path fill="#EC3D2A" d="M87.4,8.9v1h0c0.2-0.4,0.5-0.7,0.9-0.9s0.8-0.3,1.2-0.3c0.7,0,1.2,0.2,1.6,0.6c0.4,0.4,0.5,1,0.5,1.8v6.1
		h-2.1v-5.7c0-0.4-0.1-0.7-0.2-0.9c-0.1-0.2-0.4-0.3-0.7-0.3c-0.7,0-1.1,0.5-1.1,1.4v5.5h-2.1V8.9H87.4z"/>
	<path fill="#EC3D2A" d="M93,11.3c0-0.5,0.1-0.9,0.2-1.2c0.2-0.3,0.4-0.6,0.6-0.8s0.6-0.3,0.9-0.4s0.7-0.1,1.1-0.1
		c0.6,0,1.1,0.1,1.5,0.2c0.4,0.1,0.7,0.3,0.9,0.5c0.2,0.2,0.4,0.5,0.4,0.8c0.1,0.3,0.1,0.7,0.1,1v4.3c0,0.4,0,0.7,0.1,0.9
		c0,0.2,0.1,0.4,0.2,0.7h-2c-0.1-0.1-0.1-0.3-0.2-0.4c0-0.1-0.1-0.3-0.1-0.4h0c-0.2,0.4-0.5,0.7-0.9,0.8c-0.3,0.1-0.7,0.2-1.2,0.2
		c-0.4,0-0.7-0.1-0.9-0.2c-0.3-0.1-0.5-0.3-0.6-0.5c-0.2-0.2-0.3-0.5-0.3-0.8c-0.1-0.3-0.1-0.6-0.1-0.8c0-0.4,0-0.7,0.1-1
		c0.1-0.3,0.2-0.5,0.4-0.7c0.2-0.2,0.4-0.4,0.6-0.5c0.3-0.1,0.6-0.3,0.9-0.4l1.2-0.3c0.3-0.1,0.5-0.2,0.7-0.3s0.2-0.4,0.2-0.6
		c0-0.3-0.1-0.6-0.2-0.7c-0.1-0.2-0.4-0.3-0.8-0.3c-0.3,0-0.6,0.1-0.7,0.3c-0.2,0.2-0.2,0.5-0.2,0.8v0.2H93V11.3z M96.4,13.3
		c-0.2,0.1-0.3,0.1-0.4,0.1c-0.4,0.1-0.7,0.2-0.9,0.5c-0.2,0.2-0.3,0.5-0.3,0.9c0,0.3,0.1,0.6,0.2,0.8c0.1,0.2,0.3,0.3,0.6,0.3
		c0.1,0,0.3,0,0.4-0.1c0.2,0,0.3-0.1,0.4-0.2c0.1-0.1,0.2-0.2,0.3-0.4c0.1-0.2,0.1-0.4,0.1-0.6v-1.6C96.7,13.2,96.5,13.3,96.4,13.3z
		"/>
	<path fill="#EC3D2A" d="M104.6,16.3c-0.2,0.4-0.5,0.7-0.8,0.8c-0.3,0.2-0.7,0.2-1.1,0.2c-0.9,0-1.5-0.3-1.9-1
		c-0.4-0.7-0.6-1.8-0.6-3.3c0-1.5,0.2-2.6,0.6-3.3c0.4-0.7,1-1,1.9-1c0.4,0,0.7,0.1,1,0.2c0.3,0.2,0.5,0.4,0.8,0.7h0V6.2h2.1v10.9
		h-2L104.6,16.3L104.6,16.3z M102.5,15.1c0.1,0.5,0.4,0.7,0.9,0.7c0.5,0,0.8-0.2,0.9-0.7c0.1-0.5,0.2-1.1,0.2-2s-0.1-1.6-0.2-2
		c-0.1-0.5-0.4-0.7-0.9-0.7c-0.5,0-0.8,0.2-0.9,0.7c-0.1,0.5-0.2,1.1-0.2,2S102.4,14.6,102.5,15.1z"/>
	<path fill="#EC3D2A" d="M108,11.3c0-0.5,0.1-0.9,0.2-1.2c0.2-0.3,0.4-0.6,0.6-0.8s0.6-0.3,0.9-0.4s0.7-0.1,1.1-0.1
		c0.6,0,1.1,0.1,1.5,0.2c0.4,0.1,0.7,0.3,0.9,0.5c0.2,0.2,0.4,0.5,0.4,0.8c0.1,0.3,0.1,0.7,0.1,1v4.3c0,0.4,0,0.7,0.1,0.9
		c0,0.2,0.1,0.4,0.2,0.7h-2c-0.1-0.1-0.1-0.3-0.2-0.4c0-0.1-0.1-0.3-0.1-0.4h0c-0.2,0.4-0.5,0.7-0.9,0.8c-0.3,0.1-0.7,0.2-1.2,0.2
		c-0.4,0-0.7-0.1-0.9-0.2c-0.3-0.1-0.5-0.3-0.6-0.5c-0.2-0.2-0.3-0.5-0.3-0.8c-0.1-0.3-0.1-0.6-0.1-0.8c0-0.4,0-0.7,0.1-1
		c0.1-0.3,0.2-0.5,0.4-0.7c0.2-0.2,0.4-0.4,0.6-0.5c0.3-0.1,0.6-0.3,0.9-0.4l1.2-0.3c0.3-0.1,0.5-0.2,0.7-0.3s0.2-0.4,0.2-0.6
		c0-0.3-0.1-0.6-0.2-0.7c-0.1-0.2-0.4-0.3-0.8-0.3c-0.3,0-0.6,0.1-0.7,0.3c-0.2,0.2-0.2,0.5-0.2,0.8v0.2H108V11.3z M111.4,13.3
		c-0.2,0.1-0.3,0.1-0.4,0.1c-0.4,0.1-0.7,0.2-0.9,0.5c-0.2,0.2-0.3,0.5-0.3,0.9c0,0.3,0.1,0.6,0.2,0.8c0.1,0.2,0.3,0.3,0.6,0.3
		c0.1,0,0.3,0,0.4-0.1c0.2,0,0.3-0.1,0.4-0.2c0.1-0.1,0.2-0.2,0.3-0.4c0.1-0.2,0.1-0.4,0.1-0.6v-1.6
		C111.7,13.2,111.6,13.3,111.4,13.3z"/>
	<path fill="#EC3D2A" d="M117,14.8c0,0.4,0.1,0.6,0.3,0.9s0.5,0.3,0.8,0.3c0.3,0,0.6-0.1,0.8-0.2c0.2-0.2,0.3-0.4,0.3-0.7
		c0-0.3-0.1-0.5-0.2-0.6c-0.2-0.1-0.3-0.2-0.5-0.3l-1.5-0.5c-0.6-0.2-1-0.5-1.3-0.9c-0.3-0.4-0.4-0.9-0.4-1.4c0-0.3,0.1-0.7,0.2-1
		c0.1-0.3,0.3-0.6,0.5-0.8c0.2-0.2,0.6-0.4,0.9-0.5s0.8-0.2,1.4-0.2c1,0,1.7,0.2,2.1,0.6c0.5,0.4,0.7,1,0.7,1.7v0.3h-1.9
		c0-0.4-0.1-0.7-0.2-0.9c-0.1-0.2-0.4-0.3-0.7-0.3c-0.3,0-0.5,0.1-0.7,0.2c-0.2,0.1-0.3,0.4-0.3,0.7c0,0.2,0.1,0.4,0.2,0.6
		c0.1,0.2,0.4,0.3,0.7,0.4l1.3,0.4c0.7,0.2,1.1,0.5,1.4,0.9c0.3,0.4,0.4,0.9,0.4,1.5c0,0.4-0.1,0.8-0.2,1.1
		c-0.2,0.3-0.4,0.6-0.6,0.8c-0.3,0.2-0.6,0.4-1,0.5c-0.4,0.1-0.8,0.1-1.2,0.1c-0.6,0-1.1-0.1-1.5-0.2c-0.4-0.1-0.7-0.3-0.9-0.5
		c-0.2-0.2-0.4-0.5-0.5-0.8c-0.1-0.3-0.1-0.7-0.1-1.1v-0.3h1.9V14.8z"/>
</g>
<g enable-background="new    ">
	<path d="M129.8,6.2c0.6,0,1,0.1,1.4,0.3c0.4,0.2,0.7,0.4,0.9,0.7c0.2,0.3,0.4,0.7,0.5,1.1c0.1,0.4,0.2,0.8,0.2,1.2
		c0,0.6-0.1,1.1-0.3,1.5c-0.2,0.4-0.4,0.8-0.7,1c-0.3,0.3-0.7,0.5-1.1,0.6c-0.4,0.1-0.9,0.2-1.4,0.2h-1.2v4.4H126V6.2H129.8z
		 M129.2,11.2c0.4,0,0.8-0.1,1.1-0.4c0.3-0.3,0.4-0.7,0.4-1.2c0-0.6-0.1-1-0.4-1.3c-0.2-0.3-0.6-0.4-1.2-0.4h-0.9v3.3H129.2z"/>
	<path d="M135.4,14.1c0,0.2,0,0.5,0.1,0.7c0,0.2,0.1,0.4,0.2,0.6c0.1,0.2,0.2,0.3,0.3,0.4c0.1,0.1,0.3,0.2,0.5,0.2
		c0.4,0,0.6-0.1,0.8-0.4s0.3-0.6,0.3-1.2h1.9c0,1-0.3,1.7-0.8,2.2c-0.5,0.5-1.2,0.8-2.2,0.8c-0.8,0-1.4-0.1-1.8-0.4s-0.7-0.6-1-1
		s-0.3-0.9-0.4-1.4c0-0.5-0.1-1-0.1-1.6c0-0.6,0-1.1,0.1-1.6s0.2-1,0.5-1.4c0.2-0.4,0.6-0.7,1-1c0.4-0.2,1-0.4,1.7-0.4
		c0.6,0,1.1,0.1,1.5,0.3c0.4,0.2,0.7,0.5,0.9,0.8c0.2,0.4,0.4,0.8,0.5,1.3c0.1,0.5,0.1,1.1,0.1,1.7v0.5h-4.2V14.1z M137.5,11.3
		c0-0.2-0.1-0.4-0.2-0.6c-0.1-0.2-0.2-0.3-0.3-0.4s-0.3-0.1-0.5-0.1c-0.2,0-0.4,0-0.5,0.1c-0.1,0.1-0.2,0.2-0.3,0.4
		c-0.1,0.2-0.1,0.3-0.2,0.5c0,0.2-0.1,0.4-0.1,0.6v0.3h2.2C137.5,11.8,137.5,11.5,137.5,11.3z"/>
	<path d="M142.7,8.9v1.1h0c0.2-0.4,0.5-0.7,0.8-1s0.7-0.4,1.1-0.4c0.1,0,0.1,0,0.2,0c0.1,0,0.1,0,0.2,0v2c-0.1,0-0.2,0-0.3,0
		c-0.1,0-0.2,0-0.3,0c-0.2,0-0.4,0-0.6,0.1c-0.2,0.1-0.4,0.1-0.5,0.3c-0.2,0.1-0.3,0.3-0.4,0.5c-0.1,0.2-0.1,0.4-0.1,0.7v5h-2.1V8.9
		H142.7z"/>
	<path d="M148,6.1v1.8h-2.1V6.1H148z M148,8.9v8.2h-2.1V8.9H148z"/>
	<path d="M149.4,11.2c0.1-0.5,0.3-1,0.6-1.4c0.3-0.4,0.6-0.6,1-0.8s0.9-0.3,1.5-0.3c0.6,0,1.2,0.1,1.6,0.3s0.8,0.5,1,0.8
		c0.2,0.4,0.4,0.8,0.5,1.4c0.1,0.5,0.2,1.2,0.2,1.9c0,0.7-0.1,1.3-0.2,1.9c-0.1,0.5-0.3,1-0.6,1.4s-0.6,0.6-1,0.8
		c-0.4,0.2-0.9,0.3-1.5,0.3c-0.6,0-1.2-0.1-1.6-0.2c-0.4-0.2-0.8-0.4-1-0.8s-0.4-0.8-0.5-1.4s-0.2-1.2-0.2-1.9
		C149.2,12.4,149.2,11.7,149.4,11.2z M151.3,14.2c0,0.4,0.1,0.7,0.1,0.9c0.1,0.3,0.2,0.5,0.3,0.6c0.2,0.1,0.4,0.2,0.6,0.2
		c0.4,0,0.7-0.2,0.9-0.7c0.2-0.4,0.2-1.2,0.2-2.2c0-1-0.1-1.8-0.2-2.2c-0.2-0.4-0.5-0.7-0.9-0.7c-0.3,0-0.5,0.1-0.6,0.2
		c-0.2,0.1-0.3,0.3-0.3,0.6c-0.1,0.3-0.1,0.6-0.1,0.9c0,0.4,0,0.7,0,1.2S151.3,13.9,151.3,14.2z"/>
	<path d="M161,16.3c-0.2,0.4-0.5,0.7-0.8,0.8c-0.3,0.2-0.7,0.2-1.1,0.2c-0.9,0-1.5-0.3-1.9-1c-0.4-0.7-0.6-1.8-0.6-3.3
		c0-1.5,0.2-2.6,0.6-3.3c0.4-0.7,1-1,1.9-1c0.4,0,0.7,0.1,1,0.2c0.3,0.2,0.5,0.4,0.8,0.7h0V6.2h2.1v10.9h-2L161,16.3L161,16.3z
		 M159,15.1c0.1,0.5,0.4,0.7,0.9,0.7c0.5,0,0.8-0.2,0.9-0.7c0.1-0.5,0.2-1.1,0.2-2s-0.1-1.6-0.2-2c-0.1-0.5-0.4-0.7-0.9-0.7
		c-0.5,0-0.8,0.2-0.9,0.7c-0.1,0.5-0.2,1.1-0.2,2S158.8,14.6,159,15.1z"/>
	<path d="M166.7,6.1v1.8h-2.1V6.1H166.7z M166.7,8.9v8.2h-2.1V8.9H166.7z"/>
	<path d="M169.7,14.8c0,0.4,0.1,0.6,0.3,0.9c0.2,0.2,0.5,0.3,0.8,0.3c0.3,0,0.6-0.1,0.8-0.2c0.2-0.2,0.3-0.4,0.3-0.7
		c0-0.3-0.1-0.5-0.2-0.6c-0.2-0.1-0.3-0.2-0.5-0.3l-1.5-0.5c-0.6-0.2-1-0.5-1.3-0.9c-0.3-0.4-0.4-0.9-0.4-1.4c0-0.3,0.1-0.7,0.2-1
		c0.1-0.3,0.3-0.6,0.5-0.8c0.2-0.2,0.6-0.4,0.9-0.5c0.4-0.1,0.8-0.2,1.4-0.2c1,0,1.7,0.2,2.1,0.6s0.7,1,0.7,1.7v0.3h-1.9
		c0-0.4-0.1-0.7-0.2-0.9s-0.4-0.3-0.7-0.3c-0.3,0-0.5,0.1-0.7,0.2c-0.2,0.1-0.3,0.4-0.3,0.7c0,0.2,0.1,0.4,0.2,0.6
		c0.1,0.2,0.4,0.3,0.7,0.4l1.3,0.4c0.7,0.2,1.1,0.5,1.4,0.9c0.3,0.4,0.4,0.9,0.4,1.5c0,0.4-0.1,0.8-0.2,1.1
		c-0.2,0.3-0.4,0.6-0.6,0.8c-0.3,0.2-0.6,0.4-1,0.5c-0.4,0.1-0.8,0.1-1.2,0.1c-0.6,0-1.1-0.1-1.5-0.2s-0.7-0.3-0.9-0.5
		c-0.2-0.2-0.4-0.5-0.5-0.8c-0.1-0.3-0.1-0.7-0.1-1.1v-0.3h1.9V14.8z"/>
	<path d="M177,8.9v0.8h0c0.3-0.4,0.6-0.6,0.9-0.8c0.3-0.2,0.7-0.2,1.2-0.2c0.5,0,0.9,0.1,1.2,0.3c0.3,0.2,0.6,0.6,0.7,1h0
		c0.2-0.4,0.4-0.8,0.8-1c0.4-0.2,0.8-0.3,1.3-0.3c0.7,0,1.2,0.2,1.6,0.6s0.5,1,0.5,1.8v6h-2.1v-5.8c0-0.3-0.1-0.6-0.2-0.8
		c-0.1-0.2-0.3-0.3-0.6-0.3c-0.3,0-0.6,0.1-0.8,0.3c-0.2,0.2-0.3,0.6-0.3,1.1v5.4H179v-5.8c0-0.3-0.1-0.6-0.2-0.8
		c-0.1-0.2-0.3-0.3-0.6-0.3c-0.3,0-0.6,0.1-0.8,0.3c-0.2,0.2-0.3,0.6-0.3,1.1v5.4H175V8.9H177z"/>
	<path d="M186.5,11.2c0.1-0.5,0.3-1,0.6-1.4c0.3-0.4,0.6-0.6,1-0.8s0.9-0.3,1.5-0.3c0.6,0,1.2,0.1,1.6,0.3c0.4,0.2,0.8,0.5,1,0.8
		s0.4,0.8,0.5,1.4s0.2,1.2,0.2,1.9c0,0.7-0.1,1.3-0.2,1.9s-0.3,1-0.6,1.4s-0.6,0.6-1,0.8c-0.4,0.2-0.9,0.3-1.5,0.3
		c-0.6,0-1.2-0.1-1.6-0.2c-0.4-0.2-0.8-0.4-1-0.8c-0.2-0.4-0.4-0.8-0.5-1.4c-0.1-0.5-0.2-1.2-0.2-1.9
		C186.3,12.4,186.4,11.7,186.5,11.2z M188.5,14.2c0,0.4,0.1,0.7,0.1,0.9c0.1,0.3,0.2,0.5,0.3,0.6c0.2,0.1,0.4,0.2,0.6,0.2
		c0.4,0,0.7-0.2,0.9-0.7c0.2-0.4,0.2-1.2,0.2-2.2c0-1-0.1-1.8-0.2-2.2c-0.2-0.4-0.5-0.7-0.9-0.7c-0.3,0-0.5,0.1-0.6,0.2
		c-0.2,0.1-0.3,0.3-0.3,0.6c-0.1,0.3-0.1,0.6-0.1,0.9c0,0.4,0,0.7,0,1.2S188.5,13.9,188.5,14.2z"/>
</g>
<g enable-background="new    ">
	<path fill="#EC3D2A" d="M202.1,16.3c-0.2,0.4-0.5,0.7-0.8,0.8c-0.3,0.2-0.7,0.2-1.1,0.2c-0.9,0-1.5-0.3-1.9-1
		c-0.4-0.7-0.6-1.8-0.6-3.3c0-1.5,0.2-2.6,0.6-3.3c0.4-0.7,1-1,1.9-1c0.4,0,0.7,0.1,1,0.2c0.3,0.2,0.5,0.4,0.8,0.7h0V6.2h2.1v10.9
		h-2L202.1,16.3L202.1,16.3z M200,15.1c0.1,0.5,0.4,0.7,0.9,0.7c0.5,0,0.8-0.2,0.9-0.7c0.1-0.5,0.2-1.1,0.2-2s-0.1-1.6-0.2-2
		c-0.1-0.5-0.4-0.7-0.9-0.7c-0.5,0-0.8,0.2-0.9,0.7c-0.1,0.5-0.2,1.1-0.2,2S199.9,14.6,200,15.1z"/>
	<path fill="#EC3D2A" d="M207.4,14.1c0,0.2,0,0.5,0.1,0.7s0.1,0.4,0.2,0.6c0.1,0.2,0.2,0.3,0.3,0.4s0.3,0.2,0.5,0.2
		c0.4,0,0.6-0.1,0.8-0.4c0.2-0.3,0.3-0.6,0.3-1.2h1.9c0,1-0.3,1.7-0.8,2.2c-0.5,0.5-1.2,0.8-2.2,0.8c-0.8,0-1.4-0.1-1.8-0.4
		s-0.7-0.6-1-1c-0.2-0.4-0.3-0.9-0.4-1.4c0-0.5-0.1-1-0.1-1.6c0-0.6,0-1.1,0.1-1.6s0.2-1,0.5-1.4c0.2-0.4,0.6-0.7,1-1
		c0.4-0.2,1-0.4,1.7-0.4c0.6,0,1.1,0.1,1.5,0.3s0.7,0.5,0.9,0.8c0.2,0.4,0.4,0.8,0.5,1.3s0.1,1.1,0.1,1.7v0.5h-4.2V14.1z
		 M209.5,11.3c0-0.2-0.1-0.4-0.2-0.6c-0.1-0.2-0.2-0.3-0.3-0.4c-0.1-0.1-0.3-0.1-0.5-0.1s-0.4,0-0.5,0.1s-0.2,0.2-0.3,0.4
		c-0.1,0.2-0.1,0.3-0.2,0.5c0,0.2-0.1,0.4-0.1,0.6v0.3h2.2C209.5,11.8,209.5,11.5,209.5,11.3z"/>
	<path fill="#EC3D2A" d="M220.1,6.2c0.8,0,1.4,0.1,1.9,0.4c0.5,0.3,0.8,0.6,1.1,1.1c0.3,0.5,0.4,1,0.5,1.7c0.1,0.7,0.1,1.4,0.1,2.2
		c0,1-0.1,1.8-0.2,2.5c-0.1,0.7-0.3,1.3-0.6,1.8s-0.7,0.8-1.1,1c-0.5,0.2-1.1,0.3-1.8,0.3h-3.5V6.2H220.1z M219.7,15.6
		c0.4,0,0.7-0.1,0.9-0.2c0.2-0.1,0.4-0.4,0.6-0.7c0.1-0.3,0.2-0.7,0.3-1.2s0.1-1.1,0.1-1.9c0-0.6,0-1.2-0.1-1.6s-0.1-0.9-0.3-1.2
		c-0.1-0.3-0.3-0.5-0.6-0.7c-0.2-0.2-0.6-0.2-1-0.2h-0.9v7.7H219.7z"/>
	<path fill="#EC3D2A" d="M225.1,11.3c0-0.5,0.1-0.9,0.2-1.2c0.2-0.3,0.4-0.6,0.6-0.8s0.6-0.3,0.9-0.4s0.7-0.1,1.1-0.1
		c0.6,0,1.1,0.1,1.5,0.2c0.4,0.1,0.7,0.3,0.9,0.5c0.2,0.2,0.4,0.5,0.4,0.8c0.1,0.3,0.1,0.7,0.1,1v4.3c0,0.4,0,0.7,0.1,0.9
		c0,0.2,0.1,0.4,0.2,0.7h-2c-0.1-0.1-0.1-0.3-0.2-0.4c0-0.1-0.1-0.3-0.1-0.4h0c-0.2,0.4-0.5,0.7-0.9,0.8c-0.3,0.1-0.7,0.2-1.2,0.2
		c-0.4,0-0.7-0.1-0.9-0.2c-0.3-0.1-0.5-0.3-0.6-0.5c-0.2-0.2-0.3-0.5-0.3-0.8c-0.1-0.3-0.1-0.6-0.1-0.8c0-0.4,0-0.7,0.1-1
		s0.2-0.5,0.4-0.7s0.4-0.4,0.6-0.5c0.3-0.1,0.6-0.3,0.9-0.4l1.2-0.3c0.3-0.1,0.5-0.2,0.7-0.3c0.1-0.1,0.2-0.4,0.2-0.6
		c0-0.3-0.1-0.6-0.2-0.7c-0.1-0.2-0.4-0.3-0.8-0.3c-0.3,0-0.6,0.1-0.7,0.3c-0.2,0.2-0.2,0.5-0.2,0.8v0.2h-1.9V11.3z M228.5,13.3
		c-0.2,0.1-0.3,0.1-0.4,0.1c-0.4,0.1-0.7,0.2-0.9,0.5c-0.2,0.2-0.3,0.5-0.3,0.9c0,0.3,0.1,0.6,0.2,0.8c0.1,0.2,0.3,0.3,0.6,0.3
		c0.1,0,0.3,0,0.4-0.1c0.2,0,0.3-0.1,0.4-0.2c0.1-0.1,0.2-0.2,0.3-0.4c0.1-0.2,0.1-0.4,0.1-0.6v-1.6
		C228.9,13.2,228.7,13.3,228.5,13.3z"/>
	<path fill="#EC3D2A" d="M235.1,6.6v2.4h1.2v1.4h-1.2v4.5c0,0.3,0,0.6,0.1,0.7c0.1,0.1,0.3,0.2,0.6,0.2c0.1,0,0.2,0,0.2,0
		c0.1,0,0.2,0,0.2,0v1.5c-0.2,0-0.5,0-0.7,0c-0.2,0-0.5,0-0.7,0c-0.4,0-0.7,0-1-0.1c-0.3-0.1-0.5-0.2-0.6-0.3
		c-0.1-0.2-0.2-0.4-0.3-0.7c-0.1-0.3-0.1-0.6-0.1-1v-4.7h-1.1V8.9h1.1V6.6H235.1z"/>
	<path fill="#EC3D2A" d="M237,11.2c0.1-0.5,0.3-1,0.6-1.4c0.3-0.4,0.6-0.6,1-0.8s0.9-0.3,1.5-0.3c0.6,0,1.2,0.1,1.6,0.3
		c0.4,0.2,0.8,0.5,1,0.8s0.4,0.8,0.5,1.4s0.2,1.2,0.2,1.9c0,0.7-0.1,1.3-0.2,1.9s-0.3,1-0.6,1.4s-0.6,0.6-1,0.8
		c-0.4,0.2-0.9,0.3-1.5,0.3c-0.6,0-1.2-0.1-1.6-0.2c-0.4-0.2-0.8-0.4-1-0.8c-0.2-0.4-0.4-0.8-0.5-1.4c-0.1-0.5-0.2-1.2-0.2-1.9
		C236.8,12.4,236.8,11.7,237,11.2z M238.9,14.2c0,0.4,0.1,0.7,0.1,0.9c0.1,0.3,0.2,0.5,0.3,0.6c0.2,0.1,0.4,0.2,0.6,0.2
		c0.4,0,0.7-0.2,0.9-0.7c0.2-0.4,0.2-1.2,0.2-2.2c0-1-0.1-1.8-0.2-2.2c-0.2-0.4-0.5-0.7-0.9-0.7c-0.3,0-0.5,0.1-0.6,0.2
		c-0.2,0.1-0.3,0.3-0.3,0.6c-0.1,0.3-0.1,0.6-0.1,0.9c0,0.4,0,0.7,0,1.2S238.9,13.9,238.9,14.2z"/>
	<path fill="#EC3D2A" d="M246,14.8c0,0.4,0.1,0.6,0.3,0.9c0.2,0.2,0.5,0.3,0.8,0.3c0.3,0,0.6-0.1,0.8-0.2c0.2-0.2,0.3-0.4,0.3-0.7
		c0-0.3-0.1-0.5-0.2-0.6c-0.2-0.1-0.3-0.2-0.5-0.3l-1.5-0.5c-0.6-0.2-1-0.5-1.3-0.9c-0.3-0.4-0.4-0.9-0.4-1.4c0-0.3,0.1-0.7,0.2-1
		c0.1-0.3,0.3-0.6,0.5-0.8c0.2-0.2,0.6-0.4,0.9-0.5c0.4-0.1,0.8-0.2,1.4-0.2c1,0,1.7,0.2,2.1,0.6s0.7,1,0.7,1.7v0.3h-1.9
		c0-0.4-0.1-0.7-0.2-0.9s-0.4-0.3-0.7-0.3c-0.3,0-0.5,0.1-0.7,0.2c-0.2,0.1-0.3,0.4-0.3,0.7c0,0.2,0.1,0.4,0.2,0.6
		c0.1,0.2,0.4,0.3,0.7,0.4l1.3,0.4c0.7,0.2,1.1,0.5,1.4,0.9c0.3,0.4,0.4,0.9,0.4,1.5c0,0.4-0.1,0.8-0.2,1.1
		c-0.2,0.3-0.4,0.6-0.6,0.8c-0.3,0.2-0.6,0.4-1,0.5c-0.4,0.1-0.8,0.1-1.2,0.1c-0.6,0-1.1-0.1-1.5-0.2s-0.7-0.3-0.9-0.5
		c-0.2-0.2-0.4-0.5-0.5-0.8c-0.1-0.3-0.1-0.7-0.1-1.1v-0.3h1.9V14.8z"/>
</g>
</svg>
