<?xml version="1.0" encoding="utf-8"?>
<!-- Generator: Adobe Illustrator 18.0.0, SVG Export Plug-In . SVG Version: 6.00 Build 0)  -->
<!DOCTYPE svg PUBLIC "-//W3C//DTD SVG 1.1//EN" "http://www.w3.org/Graphics/SVG/1.1/DTD/svg11.dtd">
<svg version="1.1" id="Layer_1" xmlns="http://www.w3.org/2000/svg" xmlns:xlink="http://www.w3.org/1999/xlink" x="0px" y="0px"
	 viewBox="2.4 33.7 300.5 32.3" enable-background="new 2.4 33.7 300.5 32.3" xml:space="preserve">
<rect x="27" y="39.1" fill="none" width="275.9" height="25.5"/>
<g enable-background="new    ">
	<path fill="#EC3D2A" d="M27.7,39.1h1.7v8.3h-1.7V39.1z"/>
	<path fill="#EC3D2A" d="M33.1,45.2L33.1,45.2l1.3-6.2h1.7l-1.9,8.3H32l-1.9-8.3h1.8L33.1,45.2z"/>
	<path fill="#EC3D2A" d="M43.8,45.1c0,0.9-0.2,1.5-0.6,1.9c-0.4,0.4-1,0.6-1.9,0.6c-0.4,0-0.8-0.1-1.1-0.2c-0.3-0.1-0.5-0.3-0.7-0.5
		c-0.2-0.2-0.3-0.5-0.3-0.8c-0.1-0.3-0.1-0.6-0.1-0.9v-0.4h1.5V45c0,0.4,0,0.8,0.1,1s0.3,0.3,0.6,0.3c0.3,0,0.5-0.1,0.6-0.3
		s0.1-0.5,0.1-1v-6h1.7V45.1z"/>
	<path fill="#EC3D2A" d="M44.8,42.8c0.1-0.4,0.2-0.8,0.4-1c0.2-0.3,0.4-0.5,0.8-0.6s0.7-0.2,1.2-0.2c0.5,0,0.9,0.1,1.2,0.2
		c0.3,0.1,0.6,0.3,0.8,0.6c0.2,0.3,0.3,0.6,0.4,1c0.1,0.4,0.1,0.9,0.1,1.4c0,0.5,0,1-0.1,1.4c-0.1,0.4-0.2,0.8-0.4,1
		c-0.2,0.3-0.4,0.5-0.8,0.6c-0.3,0.1-0.7,0.2-1.2,0.2c-0.5,0-0.9-0.1-1.2-0.2c-0.3-0.1-0.6-0.3-0.8-0.6c-0.2-0.3-0.3-0.6-0.4-1
		s-0.1-0.9-0.1-1.4C44.7,43.7,44.7,43.3,44.8,42.8z M46.3,45.1c0,0.3,0.1,0.5,0.1,0.7c0.1,0.2,0.1,0.3,0.3,0.5s0.3,0.2,0.5,0.2
		c0.3,0,0.6-0.2,0.7-0.5S48,45,48,44.3s-0.1-1.3-0.2-1.7s-0.4-0.5-0.7-0.5c-0.2,0-0.3,0.1-0.5,0.2c-0.1,0.1-0.2,0.3-0.3,0.5
		c-0.1,0.2-0.1,0.4-0.1,0.7s0,0.6,0,0.9S46.3,44.9,46.3,45.1z"/>
	<path fill="#EC3D2A" d="M52,41.1V42h0c0.2-0.3,0.4-0.5,0.6-0.7c0.2-0.2,0.5-0.3,0.9-0.3c0,0,0.1,0,0.1,0s0.1,0,0.1,0v1.5
		c-0.1,0-0.2,0-0.3,0s-0.2,0-0.3,0c-0.1,0-0.3,0-0.4,0.1c-0.1,0-0.3,0.1-0.4,0.2s-0.2,0.2-0.3,0.3c-0.1,0.1-0.1,0.3-0.1,0.5v3.8
		h-1.6v-6.3H52z"/>
	<path fill="#EC3D2A" d="M55.9,41.1v0.7h0c0.2-0.3,0.4-0.5,0.7-0.7c0.3-0.1,0.6-0.2,0.9-0.2c0.5,0,0.9,0.1,1.2,0.4
		c0.3,0.3,0.4,0.7,0.4,1.4v4.7h-1.6v-4.3c0-0.3-0.1-0.6-0.2-0.7s-0.3-0.2-0.5-0.2c-0.6,0-0.9,0.3-0.9,1v4.2h-1.6v-6.3H55.9z"/>
	<path fill="#EC3D2A" d="M60.2,42.9c0-0.4,0.1-0.7,0.2-0.9c0.1-0.2,0.3-0.4,0.5-0.6s0.4-0.3,0.7-0.3c0.3-0.1,0.6-0.1,0.9-0.1
		c0.5,0,0.9,0,1.2,0.1c0.3,0.1,0.5,0.2,0.7,0.4c0.2,0.2,0.3,0.4,0.3,0.6c0.1,0.2,0.1,0.5,0.1,0.8v3.3c0,0.3,0,0.5,0,0.7
		c0,0.2,0.1,0.3,0.2,0.5h-1.5c-0.1-0.1-0.1-0.2-0.1-0.3c0-0.1-0.1-0.2-0.1-0.3h0c-0.2,0.3-0.4,0.5-0.6,0.6c-0.2,0.1-0.6,0.1-1,0.1
		c-0.3,0-0.5,0-0.7-0.1c-0.2-0.1-0.4-0.2-0.5-0.4s-0.2-0.4-0.3-0.6C60,46.2,60,46,60,45.8c0-0.3,0-0.6,0.1-0.8
		c0.1-0.2,0.2-0.4,0.3-0.5c0.1-0.2,0.3-0.3,0.5-0.4c0.2-0.1,0.4-0.2,0.7-0.3l0.9-0.2c0.2-0.1,0.4-0.1,0.5-0.3
		c0.1-0.1,0.1-0.3,0.1-0.5c0-0.2-0.1-0.4-0.2-0.6s-0.3-0.2-0.6-0.2c-0.2,0-0.4,0.1-0.6,0.2s-0.2,0.3-0.2,0.6V43h-1.4V42.9z
		 M62.8,44.5c-0.1,0.1-0.2,0.1-0.3,0.1c-0.3,0.1-0.6,0.2-0.7,0.4c-0.1,0.2-0.2,0.4-0.2,0.7c0,0.2,0,0.4,0.1,0.6s0.2,0.3,0.5,0.3
		c0.1,0,0.2,0,0.3-0.1s0.2-0.1,0.3-0.2s0.2-0.2,0.2-0.3c0.1-0.1,0.1-0.3,0.1-0.4v-1.2C63,44.3,62.9,44.4,62.8,44.5z"/>
	<path fill="#EC3D2A" d="M69,46.7c-0.2,0.3-0.4,0.5-0.6,0.6s-0.5,0.2-0.8,0.2c-0.7,0-1.1-0.3-1.5-0.8s-0.5-1.3-0.5-2.5
		c0-1.2,0.2-2,0.5-2.5s0.8-0.8,1.5-0.8c0.3,0,0.6,0.1,0.8,0.2c0.2,0.1,0.4,0.3,0.6,0.6h0v-2.6h1.6v8.3H69L69,46.7L69,46.7z
		 M67.4,45.8c0.1,0.3,0.3,0.5,0.7,0.5c0.4,0,0.6-0.2,0.7-0.5s0.2-0.9,0.2-1.5s-0.1-1.2-0.2-1.5s-0.3-0.5-0.7-0.5
		c-0.4,0-0.6,0.2-0.7,0.5s-0.2,0.9-0.2,1.5S67.3,45.5,67.4,45.8z"/>
	<path fill="#EC3D2A" d="M71.6,42.9c0-0.4,0.1-0.7,0.2-0.9c0.1-0.2,0.3-0.4,0.5-0.6s0.4-0.3,0.7-0.3c0.3-0.1,0.6-0.1,0.9-0.1
		c0.5,0,0.9,0,1.2,0.1c0.3,0.1,0.5,0.2,0.7,0.4c0.2,0.2,0.3,0.4,0.3,0.6c0.1,0.2,0.1,0.5,0.1,0.8v3.3c0,0.3,0,0.5,0,0.7
		c0,0.2,0.1,0.3,0.2,0.5h-1.5c-0.1-0.1-0.1-0.2-0.1-0.3c0-0.1-0.1-0.2-0.1-0.3h0c-0.2,0.3-0.4,0.5-0.6,0.6c-0.2,0.1-0.6,0.1-1,0.1
		c-0.3,0-0.5,0-0.7-0.1c-0.2-0.1-0.4-0.2-0.5-0.4s-0.2-0.4-0.3-0.6c-0.1-0.2-0.1-0.4-0.1-0.6c0-0.3,0-0.6,0.1-0.8
		c0.1-0.2,0.2-0.4,0.3-0.5c0.1-0.2,0.3-0.3,0.5-0.4c0.2-0.1,0.4-0.2,0.7-0.3l0.9-0.2c0.2-0.1,0.4-0.1,0.5-0.3
		c0.1-0.1,0.1-0.3,0.1-0.5c0-0.2-0.1-0.4-0.2-0.6s-0.3-0.2-0.6-0.2c-0.2,0-0.4,0.1-0.6,0.2s-0.2,0.3-0.2,0.6V43h-1.4V42.9z
		 M74.2,44.5c-0.1,0.1-0.2,0.1-0.3,0.1c-0.3,0.1-0.6,0.2-0.7,0.4C73,45.1,73,45.3,73,45.6c0,0.2,0,0.4,0.1,0.6s0.2,0.3,0.5,0.3
		c0.1,0,0.2,0,0.3-0.1s0.2-0.1,0.3-0.2s0.2-0.2,0.2-0.3c0.1-0.1,0.1-0.3,0.1-0.4v-1.2C74.4,44.3,74.3,44.4,74.2,44.5z"/>
	<path fill="#EC3D2A" d="M78.4,45.6c0,0.3,0.1,0.5,0.2,0.7s0.4,0.3,0.6,0.3c0.2,0,0.4-0.1,0.6-0.2c0.1-0.1,0.2-0.3,0.2-0.6
		c0-0.2-0.1-0.4-0.2-0.5s-0.3-0.2-0.4-0.3l-1.1-0.4c-0.4-0.2-0.8-0.4-1-0.7c-0.2-0.3-0.3-0.6-0.3-1.1c0-0.3,0-0.5,0.1-0.7
		c0.1-0.2,0.2-0.4,0.4-0.6c0.2-0.2,0.4-0.3,0.7-0.4c0.3-0.1,0.6-0.2,1.1-0.2c0.7,0,1.3,0.2,1.6,0.5s0.5,0.8,0.5,1.3V43H80
		c0-0.3-0.1-0.6-0.2-0.7c-0.1-0.2-0.3-0.2-0.6-0.2c-0.2,0-0.4,0.1-0.5,0.2c-0.2,0.1-0.2,0.3-0.2,0.5c0,0.2,0,0.3,0.1,0.4
		c0.1,0.1,0.3,0.2,0.6,0.3l1,0.3c0.5,0.2,0.9,0.4,1.1,0.7s0.3,0.7,0.3,1.1c0,0.3-0.1,0.6-0.2,0.9c-0.1,0.2-0.3,0.4-0.5,0.6
		c-0.2,0.2-0.5,0.3-0.7,0.4c-0.3,0.1-0.6,0.1-0.9,0.1c-0.5,0-0.8,0-1.1-0.1c-0.3-0.1-0.5-0.2-0.7-0.4c-0.2-0.2-0.3-0.4-0.4-0.6
		C77,46.1,77,45.9,77,45.6v-0.2h1.4V45.6z"/>
</g>
<g enable-background="new    ">
	<path d="M88.2,39.1c0.4,0,0.8,0.1,1.1,0.2c0.3,0.1,0.5,0.3,0.7,0.6c0.2,0.2,0.3,0.5,0.4,0.8s0.1,0.6,0.1,0.9c0,0.4-0.1,0.8-0.2,1.1
		c-0.1,0.3-0.3,0.6-0.5,0.8c-0.2,0.2-0.5,0.4-0.8,0.5s-0.7,0.2-1.1,0.2H87v3.3h-1.7v-8.3H88.2z M87.7,42.8c0.3,0,0.6-0.1,0.8-0.3
		c0.2-0.2,0.3-0.5,0.3-0.9c0-0.4-0.1-0.7-0.3-1c-0.2-0.2-0.5-0.3-0.9-0.3H87v2.5H87.7z"/>
	<path d="M92.4,45c0,0.2,0,0.4,0,0.5s0.1,0.3,0.1,0.5c0.1,0.1,0.1,0.2,0.2,0.3c0.1,0.1,0.2,0.1,0.4,0.1c0.3,0,0.5-0.1,0.6-0.3
		c0.1-0.2,0.2-0.5,0.3-0.9h1.4c0,0.7-0.2,1.3-0.6,1.7c-0.4,0.4-0.9,0.6-1.7,0.6c-0.6,0-1-0.1-1.4-0.3c-0.3-0.2-0.6-0.5-0.7-0.8
		s-0.3-0.7-0.3-1.1c0-0.4-0.1-0.8-0.1-1.2c0-0.4,0-0.8,0.1-1.2c0.1-0.4,0.2-0.7,0.4-1c0.2-0.3,0.4-0.5,0.8-0.7
		c0.3-0.2,0.8-0.3,1.3-0.3c0.5,0,0.9,0.1,1.1,0.2c0.3,0.2,0.5,0.4,0.7,0.6c0.2,0.3,0.3,0.6,0.4,1c0.1,0.4,0.1,0.8,0.1,1.3v0.4h-3.2
		V45z M94,42.9c0-0.2-0.1-0.3-0.1-0.5s-0.1-0.2-0.2-0.3s-0.2-0.1-0.4-0.1c-0.2,0-0.3,0-0.4,0.1s-0.2,0.2-0.3,0.3
		c-0.1,0.1-0.1,0.3-0.1,0.4c0,0.1,0,0.3,0,0.4v0.2h1.6C94.1,43.3,94.1,43.1,94,42.9z"/>
	<path d="M98,41.1V42h0c0.2-0.3,0.4-0.5,0.6-0.7c0.2-0.2,0.5-0.3,0.9-0.3c0,0,0.1,0,0.1,0s0.1,0,0.1,0v1.5c-0.1,0-0.2,0-0.3,0
		s-0.2,0-0.3,0c-0.1,0-0.3,0-0.4,0.1c-0.1,0-0.3,0.1-0.4,0.2s-0.2,0.2-0.3,0.3c-0.1,0.1-0.1,0.3-0.1,0.5v3.8h-1.6v-6.3H98z"/>
	<path d="M102,39v1.4h-1.6V39H102z M102,41.1v6.3h-1.6v-6.3H102z"/>
	<path d="M103.1,42.8c0.1-0.4,0.2-0.8,0.4-1c0.2-0.3,0.4-0.5,0.8-0.6s0.7-0.2,1.2-0.2c0.5,0,0.9,0.1,1.2,0.2
		c0.3,0.1,0.6,0.3,0.8,0.6c0.2,0.3,0.3,0.6,0.4,1c0.1,0.4,0.1,0.9,0.1,1.4c0,0.5,0,1-0.1,1.4c-0.1,0.4-0.2,0.8-0.4,1
		c-0.2,0.3-0.4,0.5-0.8,0.6c-0.3,0.1-0.7,0.2-1.2,0.2c-0.5,0-0.9-0.1-1.2-0.2c-0.3-0.1-0.6-0.3-0.8-0.6c-0.2-0.3-0.3-0.6-0.4-1
		s-0.1-0.9-0.1-1.4C102.9,43.7,103,43.3,103.1,42.8z M104.6,45.1c0,0.3,0.1,0.5,0.1,0.7c0.1,0.2,0.1,0.3,0.3,0.5s0.3,0.2,0.5,0.2
		c0.3,0,0.6-0.2,0.7-0.5s0.2-0.9,0.2-1.7s-0.1-1.3-0.2-1.7s-0.4-0.5-0.7-0.5c-0.2,0-0.3,0.1-0.5,0.2c-0.1,0.1-0.2,0.3-0.3,0.5
		c-0.1,0.2-0.1,0.4-0.1,0.7s0,0.6,0,0.9S104.6,44.9,104.6,45.1z"/>
	<path d="M112,46.7c-0.2,0.3-0.4,0.5-0.6,0.6s-0.5,0.2-0.8,0.2c-0.7,0-1.1-0.3-1.5-0.8s-0.5-1.3-0.5-2.5c0-1.2,0.2-2,0.5-2.5
		s0.8-0.8,1.5-0.8c0.3,0,0.6,0.1,0.8,0.2c0.2,0.1,0.4,0.3,0.6,0.6h0v-2.6h1.6v8.3H112L112,46.7L112,46.7z M110.4,45.8
		c0.1,0.3,0.3,0.5,0.7,0.5c0.4,0,0.6-0.2,0.7-0.5s0.2-0.9,0.2-1.5s-0.1-1.2-0.2-1.5s-0.3-0.5-0.7-0.5c-0.4,0-0.6,0.2-0.7,0.5
		s-0.2,0.9-0.2,1.5S110.3,45.5,110.4,45.8z"/>
	<path d="M116.3,39v1.4h-1.6V39H116.3z M116.3,41.1v6.3h-1.6v-6.3H116.3z"/>
	<path d="M118.6,45.6c0,0.3,0.1,0.5,0.2,0.7s0.4,0.3,0.6,0.3c0.2,0,0.4-0.1,0.6-0.2c0.1-0.1,0.2-0.3,0.2-0.6c0-0.2-0.1-0.4-0.2-0.5
		s-0.3-0.2-0.4-0.3l-1.1-0.4c-0.4-0.2-0.8-0.4-1-0.7c-0.2-0.3-0.3-0.6-0.3-1.1c0-0.3,0-0.5,0.1-0.7c0.1-0.2,0.2-0.4,0.4-0.6
		c0.2-0.2,0.4-0.3,0.7-0.4c0.3-0.1,0.6-0.2,1.1-0.2c0.7,0,1.3,0.2,1.6,0.5s0.5,0.8,0.5,1.3V43h-1.4c0-0.3-0.1-0.6-0.2-0.7
		c-0.1-0.2-0.3-0.2-0.6-0.2c-0.2,0-0.4,0.1-0.5,0.2c-0.2,0.1-0.2,0.3-0.2,0.5c0,0.2,0,0.3,0.1,0.4c0.1,0.1,0.3,0.2,0.6,0.3l1,0.3
		c0.5,0.2,0.9,0.4,1.1,0.7s0.3,0.7,0.3,1.1c0,0.3-0.1,0.6-0.2,0.9c-0.1,0.2-0.3,0.4-0.5,0.6c-0.2,0.2-0.5,0.3-0.7,0.4
		c-0.3,0.1-0.6,0.1-0.9,0.1c-0.5,0-0.8,0-1.1-0.1c-0.3-0.1-0.5-0.2-0.7-0.4c-0.2-0.2-0.3-0.4-0.4-0.6c-0.1-0.2-0.1-0.5-0.1-0.8v-0.2
		h1.4V45.6z"/>
	<path d="M124.1,41.1v0.6h0c0.2-0.3,0.4-0.5,0.7-0.6c0.3-0.1,0.6-0.2,0.9-0.2c0.4,0,0.7,0.1,0.9,0.3c0.3,0.2,0.4,0.4,0.5,0.7h0
		c0.1-0.3,0.3-0.6,0.6-0.8c0.3-0.2,0.6-0.3,1-0.3c0.5,0,0.9,0.2,1.2,0.5c0.3,0.3,0.4,0.8,0.4,1.4v4.6h-1.6V43c0-0.3,0-0.5-0.1-0.6
		c-0.1-0.1-0.3-0.2-0.5-0.2c-0.3,0-0.5,0.1-0.6,0.3c-0.2,0.2-0.2,0.4-0.2,0.8v4.1h-1.6V43c0-0.3,0-0.5-0.1-0.6
		c-0.1-0.1-0.3-0.2-0.5-0.2c-0.3,0-0.5,0.1-0.6,0.3c-0.2,0.2-0.2,0.4-0.2,0.8v4.1h-1.6v-6.3H124.1z"/>
	<path d="M131.3,42.8c0.1-0.4,0.2-0.8,0.4-1c0.2-0.3,0.4-0.5,0.8-0.6s0.7-0.2,1.2-0.2c0.5,0,0.9,0.1,1.2,0.2
		c0.3,0.1,0.6,0.3,0.8,0.6c0.2,0.3,0.3,0.6,0.4,1c0.1,0.4,0.1,0.9,0.1,1.4c0,0.5,0,1-0.1,1.4c-0.1,0.4-0.2,0.8-0.4,1
		c-0.2,0.3-0.4,0.5-0.8,0.6c-0.3,0.1-0.7,0.2-1.2,0.2c-0.5,0-0.9-0.1-1.2-0.2c-0.3-0.1-0.6-0.3-0.8-0.6c-0.2-0.3-0.3-0.6-0.4-1
		s-0.1-0.9-0.1-1.4C131.2,43.7,131.2,43.3,131.3,42.8z M132.8,45.1c0,0.3,0.1,0.5,0.1,0.7c0.1,0.2,0.1,0.3,0.3,0.5s0.3,0.2,0.5,0.2
		c0.3,0,0.6-0.2,0.7-0.5s0.2-0.9,0.2-1.7s-0.1-1.3-0.2-1.7s-0.4-0.5-0.7-0.5c-0.2,0-0.3,0.1-0.5,0.2c-0.1,0.1-0.2,0.3-0.3,0.5
		c-0.1,0.2-0.1,0.4-0.1,0.7s0,0.6,0,0.9S132.8,44.9,132.8,45.1z"/>
</g>
<g enable-background="new    ">
	<path fill="#EC3D2A" d="M143.2,46.7c-0.2,0.3-0.4,0.5-0.6,0.6s-0.5,0.2-0.8,0.2c-0.7,0-1.1-0.3-1.5-0.8s-0.5-1.3-0.5-2.5
		c0-1.2,0.2-2,0.5-2.5s0.8-0.8,1.5-0.8c0.3,0,0.6,0.1,0.8,0.2c0.2,0.1,0.4,0.3,0.6,0.6h0v-2.6h1.6v8.3h-1.5L143.2,46.7L143.2,46.7z
		 M141.6,45.8c0.1,0.3,0.3,0.5,0.7,0.5c0.4,0,0.6-0.2,0.7-0.5s0.2-0.9,0.2-1.5s-0.1-1.2-0.2-1.5s-0.3-0.5-0.7-0.5
		c-0.4,0-0.6,0.2-0.7,0.5s-0.2,0.9-0.2,1.5S141.5,45.5,141.6,45.8z"/>
	<path fill="#EC3D2A" d="M147.2,45c0,0.2,0,0.4,0,0.5s0.1,0.3,0.1,0.5c0.1,0.1,0.1,0.2,0.2,0.3c0.1,0.1,0.2,0.1,0.4,0.1
		c0.3,0,0.5-0.1,0.6-0.3c0.1-0.2,0.2-0.5,0.3-0.9h1.4c0,0.7-0.2,1.3-0.6,1.7c-0.4,0.4-0.9,0.6-1.7,0.6c-0.6,0-1-0.1-1.4-0.3
		c-0.3-0.2-0.6-0.5-0.7-0.8s-0.3-0.7-0.3-1.1c0-0.4-0.1-0.8-0.1-1.2c0-0.4,0-0.8,0.1-1.2c0.1-0.4,0.2-0.7,0.4-1
		c0.2-0.3,0.4-0.5,0.8-0.7c0.3-0.2,0.8-0.3,1.3-0.3c0.5,0,0.9,0.1,1.1,0.2c0.3,0.2,0.5,0.4,0.7,0.6c0.2,0.3,0.3,0.6,0.3,1
		c0.1,0.4,0.1,0.8,0.1,1.3v0.4h-3.2V45z M148.8,42.9c0-0.2-0.1-0.3-0.1-0.5s-0.1-0.2-0.2-0.3s-0.2-0.1-0.4-0.1c-0.2,0-0.3,0-0.4,0.1
		s-0.2,0.2-0.3,0.3c-0.1,0.1-0.1,0.3-0.1,0.4c0,0.1,0,0.3,0,0.4v0.2h1.6C148.9,43.3,148.8,43.1,148.8,42.9z"/>
	<path fill="#EC3D2A" d="M156.9,39.1c0.6,0,1.1,0.1,1.4,0.3c0.4,0.2,0.6,0.5,0.8,0.8s0.3,0.8,0.4,1.3c0.1,0.5,0.1,1.1,0.1,1.7
		c0,0.7,0,1.4-0.1,1.9c-0.1,0.5-0.2,1-0.5,1.3c-0.2,0.4-0.5,0.6-0.9,0.8c-0.4,0.2-0.8,0.3-1.4,0.3h-2.6v-8.3H156.9z M156.6,46.2
		c0.3,0,0.5-0.1,0.7-0.2c0.2-0.1,0.3-0.3,0.4-0.5c0.1-0.2,0.2-0.5,0.2-0.9c0-0.4,0.1-0.9,0.1-1.4c0-0.5,0-0.9,0-1.2
		c0-0.4-0.1-0.7-0.2-0.9c-0.1-0.2-0.2-0.4-0.4-0.5c-0.2-0.1-0.4-0.2-0.8-0.2h-0.7v5.9H156.6z"/>
	<path fill="#EC3D2A" d="M160.7,42.9c0-0.4,0.1-0.7,0.2-0.9c0.1-0.2,0.3-0.4,0.5-0.6s0.4-0.3,0.7-0.3c0.3-0.1,0.6-0.1,0.9-0.1
		c0.5,0,0.9,0,1.2,0.1c0.3,0.1,0.5,0.2,0.7,0.4c0.2,0.2,0.3,0.4,0.3,0.6c0.1,0.2,0.1,0.5,0.1,0.8v3.3c0,0.3,0,0.5,0,0.7
		c0,0.2,0.1,0.3,0.2,0.5h-1.5c-0.1-0.1-0.1-0.2-0.1-0.3s-0.1-0.2-0.1-0.3h0c-0.2,0.3-0.4,0.5-0.6,0.6s-0.6,0.1-1,0.1
		c-0.3,0-0.5,0-0.7-0.1s-0.4-0.2-0.5-0.4c-0.1-0.2-0.2-0.4-0.3-0.6s-0.1-0.4-0.1-0.6c0-0.3,0-0.6,0.1-0.8s0.2-0.4,0.3-0.5
		c0.1-0.2,0.3-0.3,0.5-0.4c0.2-0.1,0.4-0.2,0.7-0.3l0.9-0.2c0.2-0.1,0.4-0.1,0.5-0.3c0.1-0.1,0.1-0.3,0.1-0.5c0-0.2-0.1-0.4-0.2-0.6
		c-0.1-0.1-0.3-0.2-0.6-0.2c-0.2,0-0.4,0.1-0.6,0.2s-0.2,0.3-0.2,0.6V43h-1.4V42.9z M163.3,44.5c-0.1,0.1-0.2,0.1-0.3,0.1
		c-0.3,0.1-0.6,0.2-0.7,0.4c-0.1,0.2-0.2,0.4-0.2,0.7c0,0.2,0,0.4,0.1,0.6c0.1,0.2,0.2,0.3,0.5,0.3c0.1,0,0.2,0,0.3-0.1
		c0.1,0,0.2-0.1,0.3-0.2c0.1-0.1,0.2-0.2,0.2-0.3c0.1-0.1,0.1-0.3,0.1-0.4v-1.2C163.6,44.3,163.4,44.4,163.3,44.5z"/>
	<path fill="#EC3D2A" d="M168.3,39.3v1.8h0.9v1.1h-0.9v3.4c0,0.2,0,0.4,0.1,0.5c0.1,0.1,0.2,0.2,0.5,0.2c0.1,0,0.1,0,0.2,0
		s0.1,0,0.2,0v1.1c-0.2,0-0.4,0-0.5,0c-0.2,0-0.3,0-0.5,0c-0.3,0-0.6,0-0.8-0.1c-0.2,0-0.4-0.1-0.5-0.3c-0.1-0.1-0.2-0.3-0.2-0.5
		c0-0.2-0.1-0.5-0.1-0.8v-3.6h-0.8v-1.1h0.8v-1.8H168.3z"/>
	<path fill="#EC3D2A" d="M169.7,42.8c0.1-0.4,0.2-0.8,0.4-1c0.2-0.3,0.4-0.5,0.8-0.6c0.3-0.1,0.7-0.2,1.2-0.2c0.5,0,0.9,0.1,1.2,0.2
		c0.3,0.1,0.6,0.3,0.8,0.6c0.2,0.3,0.3,0.6,0.4,1c0.1,0.4,0.1,0.9,0.1,1.4c0,0.5,0,1-0.1,1.4c-0.1,0.4-0.2,0.8-0.4,1
		c-0.2,0.3-0.4,0.5-0.8,0.6c-0.3,0.1-0.7,0.2-1.2,0.2c-0.5,0-0.9-0.1-1.2-0.2c-0.3-0.1-0.6-0.3-0.8-0.6c-0.2-0.3-0.3-0.6-0.4-1
		c-0.1-0.4-0.1-0.9-0.1-1.4C169.6,43.7,169.6,43.3,169.7,42.8z M171.2,45.1c0,0.3,0.1,0.5,0.1,0.7c0.1,0.2,0.1,0.3,0.3,0.5
		c0.1,0.1,0.3,0.2,0.5,0.2c0.3,0,0.6-0.2,0.7-0.5s0.2-0.9,0.2-1.7s-0.1-1.3-0.2-1.7s-0.3-0.5-0.7-0.5c-0.2,0-0.3,0.1-0.5,0.2
		c-0.1,0.1-0.2,0.3-0.3,0.5c-0.1,0.2-0.1,0.4-0.1,0.7s0,0.6,0,0.9S171.2,44.9,171.2,45.1z"/>
	<path fill="#EC3D2A" d="M176.6,45.6c0,0.3,0.1,0.5,0.2,0.7s0.4,0.3,0.6,0.3c0.2,0,0.4-0.1,0.6-0.2c0.1-0.1,0.2-0.3,0.2-0.6
		c0-0.2-0.1-0.4-0.2-0.5c-0.1-0.1-0.3-0.2-0.4-0.3l-1.1-0.4c-0.4-0.2-0.8-0.4-1-0.7c-0.2-0.3-0.3-0.6-0.3-1.1c0-0.3,0-0.5,0.1-0.7
		c0.1-0.2,0.2-0.4,0.4-0.6s0.4-0.3,0.7-0.4c0.3-0.1,0.6-0.2,1.1-0.2c0.7,0,1.3,0.2,1.6,0.5c0.3,0.3,0.5,0.8,0.5,1.3V43h-1.4
		c0-0.3-0.1-0.6-0.2-0.7c-0.1-0.2-0.3-0.2-0.6-0.2c-0.2,0-0.4,0.1-0.5,0.2c-0.2,0.1-0.2,0.3-0.2,0.5c0,0.2,0,0.3,0.1,0.4
		c0.1,0.1,0.3,0.2,0.6,0.3l1,0.3c0.5,0.2,0.9,0.4,1.1,0.7s0.3,0.7,0.3,1.1c0,0.3-0.1,0.6-0.2,0.9c-0.1,0.2-0.3,0.4-0.5,0.6
		c-0.2,0.2-0.5,0.3-0.7,0.4c-0.3,0.1-0.6,0.1-0.9,0.1c-0.5,0-0.8,0-1.1-0.1c-0.3-0.1-0.5-0.2-0.7-0.4c-0.2-0.2-0.3-0.4-0.4-0.6
		c-0.1-0.2-0.1-0.5-0.1-0.8v-0.2h1.4V45.6z"/>
</g>
<g enable-background="new    ">
	<path d="M184.8,40.6l-0.2,1.9h0c0.2-0.2,0.4-0.4,0.6-0.5c0.2-0.1,0.6-0.1,0.9-0.1c0.4,0,0.7,0.1,1,0.2c0.3,0.2,0.5,0.4,0.6,0.6
		c0.2,0.2,0.3,0.5,0.3,0.8s0.1,0.6,0.1,1c0,0.5,0,0.9-0.1,1.2c-0.1,0.4-0.2,0.7-0.4,1c-0.2,0.3-0.5,0.5-0.8,0.6
		c-0.3,0.1-0.8,0.2-1.3,0.2c-0.5,0-0.9-0.1-1.3-0.2c-0.3-0.1-0.6-0.3-0.7-0.6s-0.3-0.5-0.3-0.7c-0.1-0.3-0.1-0.5-0.1-0.8V45h1.6
		c0,0.1,0,0.3,0,0.4c0,0.2,0.1,0.3,0.1,0.4c0.1,0.1,0.1,0.2,0.3,0.3c0.1,0.1,0.3,0.1,0.4,0.1c0.3,0,0.6-0.1,0.8-0.4
		c0.2-0.3,0.2-0.7,0.2-1.2c0-0.3,0-0.6,0-0.9c0-0.2-0.1-0.4-0.2-0.5c-0.1-0.1-0.2-0.2-0.3-0.3c-0.1-0.1-0.3-0.1-0.5-0.1
		c-0.2,0-0.4,0.1-0.6,0.2c-0.1,0.1-0.2,0.3-0.2,0.6h-1.5l0.3-4.5h4.3v1.3H184.8z"/>
	<path d="M192.3,44.7H189v-1.4h3.3V44.7z"/>
	<path d="M198.1,40.6c-0.3,0.5-0.6,1-0.9,1.6s-0.5,1.1-0.7,1.7c-0.2,0.6-0.4,1.2-0.5,1.8c-0.1,0.6-0.2,1.2-0.3,1.8h-1.8
		c0.1-0.5,0.2-1,0.3-1.6c0.1-0.5,0.3-1.1,0.5-1.7s0.5-1.1,0.8-1.7c0.3-0.6,0.6-1.1,1-1.7H193v-1.4h5.1V40.6z"/>
	<path d="M203.2,41.1v0.6h0c0.2-0.3,0.4-0.5,0.7-0.6c0.3-0.1,0.6-0.2,0.9-0.2c0.4,0,0.7,0.1,0.9,0.3c0.3,0.2,0.4,0.4,0.5,0.7h0
		c0.1-0.3,0.3-0.6,0.6-0.8c0.3-0.2,0.6-0.3,1-0.3c0.5,0,0.9,0.2,1.2,0.5c0.3,0.3,0.4,0.8,0.4,1.4v4.6h-1.6V43c0-0.3,0-0.5-0.1-0.6
		c-0.1-0.1-0.3-0.2-0.5-0.2c-0.3,0-0.5,0.1-0.6,0.3c-0.2,0.2-0.2,0.4-0.2,0.8v4.1h-1.6V43c0-0.3,0-0.5-0.1-0.6
		c-0.1-0.1-0.3-0.2-0.5-0.2c-0.3,0-0.5,0.1-0.6,0.3c-0.2,0.2-0.2,0.4-0.2,0.8v4.1h-1.6v-6.3H203.2z"/>
	<path d="M210.5,42.9c0-0.4,0.1-0.7,0.2-0.9c0.1-0.2,0.3-0.4,0.5-0.6s0.4-0.3,0.7-0.3c0.3-0.1,0.6-0.1,0.9-0.1c0.5,0,0.9,0,1.2,0.1
		c0.3,0.1,0.5,0.2,0.7,0.4c0.2,0.2,0.3,0.4,0.3,0.6c0.1,0.2,0.1,0.5,0.1,0.8v3.3c0,0.3,0,0.5,0,0.7c0,0.2,0.1,0.3,0.2,0.5h-1.5
		c-0.1-0.1-0.1-0.2-0.1-0.3s-0.1-0.2-0.1-0.3h0c-0.2,0.3-0.4,0.5-0.6,0.6s-0.6,0.1-1,0.1c-0.3,0-0.5,0-0.7-0.1s-0.4-0.2-0.5-0.4
		c-0.1-0.2-0.2-0.4-0.3-0.6s-0.1-0.4-0.1-0.6c0-0.3,0-0.6,0.1-0.8s0.2-0.4,0.3-0.5c0.1-0.2,0.3-0.3,0.5-0.4c0.2-0.1,0.4-0.2,0.7-0.3
		l0.9-0.2c0.2-0.1,0.4-0.1,0.5-0.3c0.1-0.1,0.1-0.3,0.1-0.5c0-0.2-0.1-0.4-0.2-0.6c-0.1-0.1-0.3-0.2-0.6-0.2c-0.2,0-0.4,0.1-0.6,0.2
		s-0.2,0.3-0.2,0.6V43h-1.4V42.9z M213.1,44.5c-0.1,0.1-0.2,0.1-0.3,0.1c-0.3,0.1-0.6,0.2-0.7,0.4c-0.1,0.2-0.2,0.4-0.2,0.7
		c0,0.2,0,0.4,0.1,0.6c0.1,0.2,0.2,0.3,0.5,0.3c0.1,0,0.2,0,0.3-0.1c0.1,0,0.2-0.1,0.3-0.2c0.1-0.1,0.2-0.2,0.2-0.3
		c0.1-0.1,0.1-0.3,0.1-0.4v-1.2C213.4,44.3,213.3,44.4,213.1,44.5z"/>
	<path d="M216.6,48.3c0.3,0,0.5-0.1,0.6-0.2c0.1-0.2,0.2-0.4,0.2-0.6l-1.8-6.3h1.7l0.9,4.3h0l0.8-4.3h1.6l-1.5,5.9
		c-0.1,0.5-0.3,0.9-0.4,1.3c-0.1,0.3-0.3,0.6-0.5,0.7c-0.2,0.2-0.4,0.3-0.6,0.3c-0.2,0.1-0.6,0.1-0.9,0.1h-0.7v-1.2
		C216.3,48.2,216.4,48.3,216.6,48.3z"/>
	<path d="M221.3,42.8c0.1-0.4,0.2-0.8,0.4-1c0.2-0.3,0.4-0.5,0.8-0.6c0.3-0.1,0.7-0.2,1.2-0.2c0.5,0,0.9,0.1,1.2,0.2
		c0.3,0.1,0.6,0.3,0.8,0.6c0.2,0.3,0.3,0.6,0.4,1c0.1,0.4,0.1,0.9,0.1,1.4c0,0.5,0,1-0.1,1.4c-0.1,0.4-0.2,0.8-0.4,1
		c-0.2,0.3-0.4,0.5-0.8,0.6c-0.3,0.1-0.7,0.2-1.2,0.2c-0.5,0-0.9-0.1-1.2-0.2c-0.3-0.1-0.6-0.3-0.8-0.6c-0.2-0.3-0.3-0.6-0.4-1
		c-0.1-0.4-0.1-0.9-0.1-1.4C221.1,43.7,221.2,43.3,221.3,42.8z M222.8,45.1c0,0.3,0.1,0.5,0.1,0.7c0.1,0.2,0.1,0.3,0.3,0.5
		c0.1,0.1,0.3,0.2,0.5,0.2c0.3,0,0.6-0.2,0.7-0.5s0.2-0.9,0.2-1.7s-0.1-1.3-0.2-1.7s-0.3-0.5-0.7-0.5c-0.2,0-0.3,0.1-0.5,0.2
		c-0.1,0.1-0.2,0.3-0.3,0.5c-0.1,0.2-0.1,0.4-0.1,0.7s0,0.6,0,0.9S222.7,44.9,222.8,45.1z"/>
	<path d="M229.4,47.4c0-0.4,0-0.7,0.1-1c0.1-0.3,0.2-0.6,0.3-0.9s0.3-0.6,0.6-0.8c0.2-0.3,0.5-0.6,0.8-0.8l0.7-0.6
		c0.2-0.2,0.3-0.3,0.4-0.5c0.1-0.1,0.2-0.3,0.3-0.4c0.1-0.1,0.1-0.3,0.1-0.5c0-0.2,0-0.4,0-0.6c0-0.7-0.3-1-0.8-1
		c-0.2,0-0.4,0-0.5,0.1c-0.1,0.1-0.2,0.2-0.3,0.4c-0.1,0.1-0.1,0.3-0.1,0.5c0,0.2,0,0.4,0,0.6h-1.6v-0.3c0-0.8,0.2-1.4,0.6-1.8
		s1.1-0.6,1.9-0.6c0.8,0,1.5,0.2,1.9,0.6c0.4,0.4,0.6,0.9,0.6,1.7c0,0.3,0,0.5-0.1,0.7c0,0.2-0.1,0.4-0.2,0.7
		c-0.1,0.2-0.2,0.4-0.4,0.6c-0.2,0.2-0.4,0.4-0.6,0.6l-0.9,0.9c-0.2,0.2-0.4,0.4-0.6,0.7c-0.1,0.2-0.2,0.4-0.3,0.6h3.1v1.3H229.4z"
		/>
	<path d="M235.1,41.9c0-0.5,0.1-1,0.3-1.4s0.4-0.7,0.8-1c0.3-0.2,0.8-0.4,1.4-0.4c0.5,0,0.9,0.1,1.3,0.2c0.3,0.1,0.6,0.4,0.8,0.7
		c0.2,0.3,0.3,0.7,0.4,1.2s0.1,1.1,0.1,1.9c0,0.6,0,1.1-0.1,1.7c0,0.5-0.1,1-0.3,1.4s-0.4,0.7-0.8,1c-0.3,0.2-0.8,0.4-1.4,0.4
		c-0.5,0-0.9-0.1-1.2-0.2c-0.3-0.1-0.6-0.4-0.8-0.7c-0.2-0.3-0.3-0.7-0.4-1.2c-0.1-0.5-0.1-1.1-0.1-1.9C235,43,235,42.4,235.1,41.9z
		 M236.7,45.2c0,0.3,0.1,0.6,0.1,0.8c0.1,0.2,0.2,0.3,0.3,0.4c0.1,0.1,0.3,0.1,0.4,0.1c0.2,0,0.3,0,0.5-0.1c0.1-0.1,0.2-0.2,0.3-0.5
		c0.1-0.2,0.1-0.5,0.1-0.9s0-0.8,0-1.3v-0.9c0-0.5,0-0.9,0-1.3s-0.1-0.6-0.1-0.8s-0.2-0.3-0.3-0.4c-0.1-0.1-0.3-0.1-0.4-0.1
		c-0.2,0-0.3,0-0.5,0.1c-0.1,0.1-0.2,0.2-0.3,0.5c-0.1,0.2-0.1,0.5-0.1,0.9c0,0.4,0,0.8,0,1.3v0.9C236.7,44.4,236.7,44.9,236.7,45.2
		z"/>
	<path d="M242.5,41.6h-1.6v-1.1h0.2c0.6,0,1-0.1,1.3-0.3c0.3-0.2,0.5-0.5,0.6-1h1.2v8.3h-1.7V41.6z"/>
	<path d="M249.5,40.5c-0.1-0.2-0.3-0.3-0.6-0.3c-0.2,0-0.4,0.1-0.5,0.2c-0.1,0.1-0.2,0.3-0.3,0.4c-0.1,0.2-0.1,0.4-0.1,0.7
		c0,0.3,0,0.5,0,0.8v0.4h0c0.1-0.2,0.3-0.4,0.6-0.5c0.3-0.1,0.6-0.2,1-0.2c0.4,0,0.7,0.1,0.9,0.2s0.5,0.3,0.6,0.5
		c0.2,0.2,0.3,0.5,0.4,0.8c0.1,0.3,0.1,0.7,0.1,1c0,1-0.2,1.7-0.6,2.2c-0.4,0.5-1.1,0.7-2,0.7c-0.6,0-1-0.1-1.4-0.3
		c-0.3-0.2-0.6-0.5-0.8-0.8c-0.2-0.4-0.3-0.8-0.4-1.2c-0.1-0.5-0.1-1-0.1-1.5c0-0.6,0-1.1,0.1-1.7s0.1-1,0.3-1.5
		c0.2-0.4,0.4-0.8,0.8-1s0.9-0.4,1.6-0.4c0.3,0,0.6,0,0.9,0.1c0.3,0.1,0.5,0.2,0.7,0.3c0.2,0.2,0.4,0.4,0.5,0.6
		c0.1,0.3,0.2,0.6,0.2,1h-1.6C249.6,40.9,249.6,40.7,249.5,40.5z M248,45.5c0,0.2,0.1,0.4,0.1,0.5c0.1,0.1,0.2,0.3,0.3,0.3
		c0.1,0.1,0.3,0.1,0.5,0.1c0.2,0,0.4,0,0.5-0.1c0.1-0.1,0.2-0.2,0.3-0.3c0.1-0.1,0.1-0.3,0.1-0.5c0-0.2,0-0.4,0-0.6
		c0-0.6-0.1-1-0.2-1.2c-0.1-0.2-0.4-0.4-0.7-0.4c-0.3,0-0.6,0.1-0.7,0.4c-0.1,0.2-0.2,0.6-0.2,1.2C247.9,45.1,247.9,45.3,248,45.5z"
		/>
	<path d="M253.8,47.1c0,0.3,0,0.6-0.1,0.8c0,0.3-0.1,0.5-0.2,0.7c-0.1,0.2-0.3,0.3-0.5,0.5s-0.5,0.2-0.8,0.2v-0.8
		c0.2,0,0.4-0.1,0.5-0.3c0.1-0.2,0.2-0.4,0.2-0.6v-0.2h-0.6v-1.8h1.5V47.1z"/>
	<path d="M259.9,39.1l1.2,5.9h0l1.2-5.9h2.5v8.3h-1.5v-6.6h0l-1.5,6.6h-1.3l-1.5-6.6h0v6.6h-1.5v-8.3H259.9z"/>
	<path d="M265.9,42.9c0-0.4,0.1-0.7,0.2-0.9c0.1-0.2,0.3-0.4,0.5-0.6s0.4-0.3,0.7-0.3c0.3-0.1,0.6-0.1,0.9-0.1c0.5,0,0.9,0,1.2,0.1
		c0.3,0.1,0.5,0.2,0.7,0.4c0.2,0.2,0.3,0.4,0.3,0.6c0.1,0.2,0.1,0.5,0.1,0.8v3.3c0,0.3,0,0.5,0,0.7c0,0.2,0.1,0.3,0.2,0.5h-1.5
		c-0.1-0.1-0.1-0.2-0.1-0.3s-0.1-0.2-0.1-0.3h0c-0.2,0.3-0.4,0.5-0.6,0.6s-0.6,0.1-1,0.1c-0.3,0-0.5,0-0.7-0.1s-0.4-0.2-0.5-0.4
		c-0.1-0.2-0.2-0.4-0.3-0.6s-0.1-0.4-0.1-0.6c0-0.3,0-0.6,0.1-0.8s0.2-0.4,0.3-0.5c0.1-0.2,0.3-0.3,0.5-0.4c0.2-0.1,0.4-0.2,0.7-0.3
		l0.9-0.2c0.2-0.1,0.4-0.1,0.5-0.3c0.1-0.1,0.1-0.3,0.1-0.5c0-0.2-0.1-0.4-0.2-0.6c-0.1-0.1-0.3-0.2-0.6-0.2c-0.2,0-0.4,0.1-0.6,0.2
		s-0.2,0.3-0.2,0.6V43h-1.4V42.9z M268.5,44.5c-0.1,0.1-0.2,0.1-0.3,0.1c-0.3,0.1-0.6,0.2-0.7,0.4c-0.1,0.2-0.2,0.4-0.2,0.7
		c0,0.2,0,0.4,0.1,0.6c0.1,0.2,0.2,0.3,0.5,0.3c0.1,0,0.2,0,0.3-0.1c0.1,0,0.2-0.1,0.3-0.2c0.1-0.1,0.2-0.2,0.2-0.3
		c0.1-0.1,0.1-0.3,0.1-0.4v-1.2C268.8,44.3,268.6,44.4,268.5,44.5z"/>
	<path d="M274.8,46.7c-0.2,0.3-0.4,0.5-0.6,0.6s-0.5,0.2-0.8,0.2c-0.7,0-1.1-0.3-1.5-0.8s-0.5-1.3-0.5-2.5c0-1.2,0.2-2,0.5-2.5
		s0.8-0.8,1.5-0.8c0.3,0,0.6,0.1,0.8,0.2c0.2,0.1,0.4,0.3,0.6,0.6h0v-2.6h1.6v8.3h-1.5L274.8,46.7L274.8,46.7z M273.2,45.8
		c0.1,0.3,0.3,0.5,0.7,0.5c0.4,0,0.6-0.2,0.7-0.5c0.1-0.3,0.2-0.9,0.2-1.5s-0.1-1.2-0.2-1.5c-0.1-0.3-0.3-0.5-0.7-0.5
		c-0.3,0-0.6,0.2-0.7,0.5c-0.1,0.3-0.2,0.9-0.2,1.5S273.1,45.5,273.2,45.8z"/>
	<path d="M278.9,41.1V42h0c0.2-0.3,0.4-0.5,0.6-0.7c0.2-0.2,0.5-0.3,0.9-0.3c0,0,0.1,0,0.1,0s0.1,0,0.1,0v1.5c-0.1,0-0.2,0-0.2,0
		c-0.1,0-0.2,0-0.3,0c-0.1,0-0.3,0-0.4,0.1c-0.1,0-0.3,0.1-0.4,0.2c-0.1,0.1-0.2,0.2-0.3,0.3c-0.1,0.1-0.1,0.3-0.1,0.5v3.8h-1.6
		v-6.3H278.9z"/>
	<path d="M282.9,39v1.4h-1.6V39H282.9z M282.9,41.1v6.3h-1.6v-6.3H282.9z"/>
	<path d="M287.3,46.7c-0.2,0.3-0.4,0.5-0.6,0.6s-0.5,0.2-0.8,0.2c-0.7,0-1.1-0.3-1.5-0.8s-0.5-1.3-0.5-2.5c0-1.2,0.2-2,0.5-2.5
		s0.8-0.8,1.5-0.8c0.3,0,0.6,0.1,0.8,0.2c0.2,0.1,0.4,0.3,0.6,0.6h0v-2.6h1.6v8.3h-1.5L287.3,46.7L287.3,46.7z M285.7,45.8
		c0.1,0.3,0.3,0.5,0.7,0.5c0.4,0,0.6-0.2,0.7-0.5c0.1-0.3,0.2-0.9,0.2-1.5s-0.1-1.2-0.2-1.5c-0.1-0.3-0.3-0.5-0.7-0.5
		c-0.3,0-0.6,0.2-0.7,0.5c-0.1,0.3-0.2,0.9-0.2,1.5S285.6,45.5,285.7,45.8z"/>
</g>
<g enable-background="new    ">
	<path d="M31.9,56.3h-2.4v2h2.3l0.1-0.8H33v1.9h-5.6v-0.9l0.8-0.1v-5.1l-0.8-0.1v-0.9h0.8H33v1.9h-1.1l-0.1-0.8h-2.3v1.8h2.4V56.3z"
		/>
	<path d="M34.1,59.4v-0.9l0.8-0.1v-5.1l-0.8-0.1v-0.9h0.8h1.4h0.8v0.9l-0.8,0.1v5h2l0.1-0.9h1.1v2H34.1z"/>
	<path d="M46.6,52.3c0.8,0,1.5,0.2,1.9,0.6c0.5,0.4,0.7,1,0.7,1.6c0,0.7-0.2,1.2-0.7,1.6s-1.1,0.6-1.9,0.6h-1.2v1.6l0.8,0.1v0.9
		h-2.9v-0.9l0.8-0.1v-5.1l-0.8-0.1v-0.9H44H46.6z M45.4,55.7h1.2c0.4,0,0.7-0.1,0.9-0.3c0.2-0.2,0.3-0.5,0.3-0.8
		c0-0.3-0.1-0.6-0.3-0.8c-0.2-0.2-0.5-0.3-0.9-0.3h-1.2V55.7z"/>
	<path d="M56.6,55.9c0,1-0.3,1.9-0.9,2.6s-1.4,1-2.3,1c-1,0-1.7-0.3-2.3-1s-0.9-1.5-0.9-2.6v-0.1c0-1,0.3-1.9,0.9-2.6s1.4-1,2.3-1
		c1,0,1.7,0.3,2.3,1s0.9,1.5,0.9,2.6V55.9z M55.2,55.8c0-0.7-0.2-1.3-0.5-1.8s-0.8-0.7-1.4-0.7s-1,0.2-1.3,0.7s-0.4,1.1-0.4,1.8v0.1
		c0,0.7,0.1,1.4,0.4,1.8c0.3,0.5,0.7,0.7,1.3,0.7c0.6,0,1.1-0.2,1.4-0.7c0.3-0.5,0.5-1.1,0.5-1.8V55.8z"/>
	<path d="M60.8,52.3c0.9,0,1.6,0.3,2.1,0.8c0.6,0.6,0.8,1.3,0.8,2.1v1.2c0,0.9-0.3,1.6-0.8,2.1c-0.6,0.6-1.3,0.8-2.1,0.8h-3.2v-0.9
		l0.8-0.1v-5.1l-0.8-0.1v-0.9h0.8H60.8z M59.8,53.4v4.9h0.9c0.5,0,0.9-0.2,1.2-0.5s0.4-0.8,0.4-1.4v-1.2c0-0.5-0.1-1-0.4-1.3
		s-0.7-0.5-1.2-0.5H59.8z"/>
	<path d="M69.5,56.3h-2.4v2h2.3l0.1-0.8h1.1v1.9h-5.6v-0.9l0.8-0.1v-5.1l-0.8-0.1v-0.9h0.8h4.9v1.9h-1.1l-0.1-0.8h-2.3v1.8h2.4V56.3
		z"/>
	<path d="M74.9,52.3c0.8,0,1.4,0.2,1.9,0.6c0.5,0.4,0.7,0.9,0.7,1.5c0,0.4-0.1,0.7-0.3,0.9s-0.5,0.5-0.8,0.6
		c0.4,0.1,0.7,0.3,0.9,0.6c0.2,0.3,0.3,0.6,0.3,1.1V58c0,0.2,0,0.3,0.1,0.4c0.1,0.1,0.2,0.1,0.3,0.2l0.2,0v0.9h-0.7
		c-0.5,0-0.8-0.1-1-0.4s-0.3-0.6-0.3-1v-0.4c0-0.3-0.1-0.6-0.3-0.8c-0.2-0.2-0.4-0.3-0.8-0.3h-1.2v1.9l0.8,0.1v0.9h-2.9v-0.9
		l0.8-0.1v-5.1l-0.8-0.1v-0.9h0.8H74.9z M73.9,55.4h1c0.4,0,0.7-0.1,0.9-0.3s0.3-0.4,0.3-0.7s-0.1-0.6-0.3-0.8
		c-0.2-0.2-0.5-0.3-0.9-0.3h-1V55.4z"/>
	<path d="M86.5,56.3H84v2h2.3l0.1-0.8h1.1v1.9h-5.6v-0.9l0.8-0.1v-5.1l-0.8-0.1v-0.9h0.8h4.9v1.9h-1.1l-0.1-0.8H84v1.8h2.4V56.3z"/>
	<path d="M94.1,54.6H93l-0.2-1c-0.1-0.1-0.3-0.1-0.5-0.2s-0.5-0.1-0.8-0.1c-0.4,0-0.7,0.1-0.9,0.2c-0.2,0.2-0.3,0.4-0.3,0.6
		c0,0.2,0.1,0.4,0.3,0.6c0.2,0.2,0.6,0.3,1.2,0.5c0.8,0.2,1.4,0.5,1.8,0.9s0.6,0.8,0.6,1.4c0,0.6-0.2,1.1-0.7,1.4s-1.1,0.5-1.9,0.5
		c-0.6,0-1.1-0.1-1.5-0.3s-0.8-0.4-1.1-0.7V57H90l0.2,1c0.1,0.1,0.3,0.2,0.6,0.3c0.2,0.1,0.5,0.1,0.8,0.1c0.4,0,0.7-0.1,0.9-0.2
		s0.3-0.4,0.3-0.6c0-0.3-0.1-0.5-0.3-0.7s-0.5-0.3-1-0.5c-0.8-0.2-1.5-0.5-1.9-0.9s-0.6-0.8-0.6-1.4c0-0.6,0.2-1,0.7-1.4
		c0.5-0.4,1.1-0.6,1.8-0.6c0.5,0,1,0.1,1.5,0.2s0.8,0.4,1.1,0.7V54.6z"/>
	<path d="M101.4,52.3v1.9h-1.1l-0.1-0.8h-1.3v5l0.8,0.1v0.9h-2.9v-0.9l0.8-0.1v-5h-1.3l-0.1,0.8h-1.1v-1.9H101.4z"/>
	<path d="M101.3,58.5l0.5-0.1l2.2-6.2h1.5l2.1,6.2l0.5,0.1v0.9h-2.4v-0.9l0.5-0.1l-0.3-1h-2.3l-0.3,1l0.5,0.1v0.9h-2.4V58.5z
		 M104.8,50.5h1.5l0,0l-1.3,1.3h-1.1L104.8,50.5z M103.9,56.4h1.6l-0.8-2.5h0L103.9,56.4z"/>
	<path d="M116.4,56.3H114v2h2.3l0.1-0.8h1.1v1.9h-5.6v-0.9l0.8-0.1v-5.1l-0.8-0.1v-0.9h0.8h4.9v1.9h-1.1l-0.1-0.8H114v1.8h2.4V56.3z
		"/>
	<path d="M125.9,52.3v0.9l-0.8,0.1v6.1h-1.4l-2.9-4.8l0,0v3.8l0.8,0.1v0.9h-2.9v-0.9l0.8-0.1v-5.1l-0.8-0.1v-0.9h0.8h1.4l2.9,4.8
		l0,0v-3.8l-0.8-0.1v-0.9h2.2H125.9z"/>
	<path d="M129.6,59.4v-0.9l0.8-0.1v-5.1l-0.8-0.1v-0.9h0.8h1.4h0.8v0.9l-0.8,0.1v5h2l0.1-0.9h1.1v2H129.6z"/>
	<path d="M142.3,55.9c0,1-0.3,1.9-0.9,2.6s-1.4,1-2.3,1c-1,0-1.7-0.3-2.3-1s-0.9-1.5-0.9-2.6v-0.1c0-1,0.3-1.9,0.9-2.6s1.4-1,2.3-1
		c1,0,1.7,0.3,2.3,1s0.9,1.5,0.9,2.6V55.9z M140.9,55.8c0-0.7-0.2-1.3-0.5-1.8s-0.8-0.7-1.4-0.7s-1,0.2-1.3,0.7s-0.4,1.1-0.4,1.8
		v0.1c0,0.7,0.1,1.4,0.4,1.8c0.3,0.5,0.7,0.7,1.3,0.7c0.6,0,1.1-0.2,1.4-0.7c0.3-0.5,0.5-1.1,0.5-1.8V55.8z"/>
	<path d="M148.7,54.6h-1.1l-0.2-1c-0.1-0.1-0.3-0.1-0.5-0.2s-0.5-0.1-0.8-0.1c-0.4,0-0.7,0.1-0.9,0.2c-0.2,0.2-0.3,0.4-0.3,0.6
		c0,0.2,0.1,0.4,0.3,0.6c0.2,0.2,0.6,0.3,1.2,0.5c0.8,0.2,1.4,0.5,1.8,0.9s0.6,0.8,0.6,1.4c0,0.6-0.2,1.1-0.7,1.4s-1.1,0.5-1.9,0.5
		c-0.6,0-1.1-0.1-1.5-0.3s-0.8-0.4-1.1-0.7V57h1.1l0.2,1c0.1,0.1,0.3,0.2,0.6,0.3c0.2,0.1,0.5,0.1,0.8,0.1c0.4,0,0.7-0.1,0.9-0.2
		s0.3-0.4,0.3-0.6c0-0.3-0.1-0.5-0.3-0.7s-0.5-0.3-1-0.5c-0.8-0.2-1.5-0.5-1.9-0.9s-0.6-0.8-0.6-1.4c0-0.6,0.2-1,0.7-1.4
		c0.5-0.4,1.1-0.6,1.8-0.6c0.5,0,1,0.1,1.5,0.2s0.8,0.4,1.1,0.7V54.6z"/>
	<path d="M155.8,52.3c0.9,0,1.6,0.3,2.1,0.8c0.6,0.6,0.8,1.3,0.8,2.1v1.2c0,0.9-0.3,1.6-0.8,2.1c-0.6,0.6-1.3,0.8-2.1,0.8h-3.2v-0.9
		l0.8-0.1v-5.1l-0.8-0.1v-0.9h0.8H155.8z M154.8,53.4v4.9h0.9c0.5,0,0.9-0.2,1.2-0.5s0.4-0.8,0.4-1.4v-1.2c0-0.5-0.1-1-0.4-1.3
		s-0.7-0.5-1.2-0.5H154.8z"/>
	<path d="M159.5,58.5l0.5-0.1l2.2-6.2h1.5l2.1,6.2l0.5,0.1v0.9h-2.4v-0.9l0.5-0.1l-0.3-1h-2.3l-0.3,1l0.5,0.1v0.9h-2.4V58.5z
		 M162.1,56.4h1.6l-0.8-2.5h0L162.1,56.4z"/>
	<path d="M172.7,52.3v1.9h-1.1l-0.1-0.8h-1.3v5l0.8,0.1v0.9h-2.9v-0.9l0.8-0.1v-5h-1.3l-0.1,0.8h-1.1v-1.9H172.7z"/>
	<path d="M180,55.9c0,1-0.3,1.9-0.9,2.6s-1.4,1-2.3,1c-1,0-1.7-0.3-2.3-1c-0.6-0.7-0.9-1.5-0.9-2.6v-0.1c0-1,0.3-1.9,0.9-2.6
		s1.4-1,2.3-1c1,0,1.7,0.3,2.3,1c0.6,0.7,0.9,1.5,0.9,2.6V55.9z M178.5,55.8c0-0.7-0.2-1.3-0.5-1.8s-0.8-0.7-1.4-0.7s-1,0.2-1.3,0.7
		c-0.3,0.5-0.4,1.1-0.4,1.8v0.1c0,0.7,0.1,1.4,0.4,1.8c0.3,0.5,0.7,0.7,1.3,0.7c0.6,0,1.1-0.2,1.4-0.7c0.3-0.5,0.5-1.1,0.5-1.8V55.8
		z"/>
	<path d="M186.3,54.6h-1.1l-0.2-1c-0.1-0.1-0.3-0.1-0.5-0.2s-0.5-0.1-0.8-0.1c-0.4,0-0.7,0.1-0.9,0.2c-0.2,0.2-0.3,0.4-0.3,0.6
		c0,0.2,0.1,0.4,0.3,0.6c0.2,0.2,0.6,0.3,1.2,0.5c0.8,0.2,1.4,0.5,1.8,0.9c0.4,0.4,0.6,0.8,0.6,1.4c0,0.6-0.2,1.1-0.7,1.4
		s-1.1,0.5-1.9,0.5c-0.6,0-1.1-0.1-1.5-0.3c-0.5-0.2-0.8-0.4-1.1-0.7V57h1.1l0.2,1c0.1,0.1,0.3,0.2,0.6,0.3c0.2,0.1,0.5,0.1,0.8,0.1
		c0.4,0,0.7-0.1,0.9-0.2c0.2-0.2,0.3-0.4,0.3-0.6c0-0.3-0.1-0.5-0.3-0.7c-0.2-0.2-0.5-0.3-1-0.5c-0.8-0.2-1.5-0.5-1.9-0.9
		s-0.6-0.8-0.6-1.4c0-0.6,0.2-1,0.7-1.4c0.5-0.4,1.1-0.6,1.8-0.6c0.5,0,1,0.1,1.5,0.2s0.8,0.4,1.1,0.7V54.6z"/>
	<path d="M189.1,59.2c0,0.3-0.1,0.7-0.3,1.1c-0.2,0.4-0.4,0.7-0.7,0.9l-0.7-0.4c0.1-0.2,0.2-0.5,0.3-0.7c0.1-0.2,0.1-0.5,0.1-0.8
		v-1.1h1.3L189.1,59.2z"/>
</g>
<g enable-background="new    ">
	<path fill="#EC3D2A" d="M195.9,57.4h-0.9l-0.4,2h-0.9l0.4-2h-1.1v-0.8h1.2l0.2-1.4h-1.1v-0.8h1.3l0.4-2h0.9l-0.4,2h0.9l0.4-2h0.9
		l-0.4,2h1.1v0.8h-1.2l-0.2,1.4h1.1v0.8h-1.2l-0.4,2h-0.9L195.9,57.4z M195.1,56.6h0.9l0.2-1.4h-0.9L195.1,56.6z"/>
	<path fill="#EC3D2A" d="M204.7,52.3v0.9l-0.8,0.1v4c0,0.7-0.2,1.2-0.7,1.6c-0.4,0.4-1,0.6-1.7,0.6c-0.7,0-1.3-0.2-1.8-0.5
		s-0.6-0.9-0.6-1.6l0,0h1.4c0,0.4,0.1,0.6,0.3,0.8c0.2,0.2,0.4,0.3,0.7,0.3c0.3,0,0.5-0.1,0.7-0.3c0.2-0.2,0.3-0.5,0.3-0.8v-4
		l-0.8-0.1v-0.9h2.2H204.7z"/>
	<path fill="#EC3D2A" d="M208.9,52.3c0.8,0,1.5,0.2,1.9,0.6c0.5,0.4,0.7,1,0.7,1.6c0,0.7-0.2,1.2-0.7,1.6c-0.5,0.4-1.1,0.6-1.9,0.6
		h-1.2v1.6l0.8,0.1v0.9h-2.9v-0.9l0.8-0.1v-5.1l-0.8-0.1v-0.9h0.8H208.9z M207.7,55.7h1.2c0.4,0,0.7-0.1,0.9-0.3
		c0.2-0.2,0.3-0.5,0.3-0.8c0-0.3-0.1-0.6-0.3-0.8c-0.2-0.2-0.5-0.3-0.9-0.3h-1.2V55.7z"/>
	<path fill="#EC3D2A" d="M215.6,52.3c0.9,0,1.6,0.3,2.1,0.8c0.6,0.6,0.8,1.3,0.8,2.1v1.2c0,0.9-0.3,1.6-0.8,2.1
		c-0.6,0.6-1.3,0.8-2.1,0.8h-3.2v-0.9l0.8-0.1v-5.1l-0.8-0.1v-0.9h0.8H215.6z M214.6,53.4v4.9h0.9c0.5,0,0.9-0.2,1.2-0.5
		s0.4-0.8,0.4-1.4v-1.2c0-0.5-0.1-1-0.4-1.3s-0.7-0.5-1.2-0.5H214.6z"/>
	<path fill="#EC3D2A" d="M219.7,58.5l1.2-0.1v-4.8h-1.2v-0.8l2.6-0.5v6.1l1.2,0.1v0.9h-3.8V58.5z"/>
	<path fill="#EC3D2A" d="M227.5,52.2c0.3,0,0.5,0,0.7,0.1c0.2,0.1,0.5,0.1,0.7,0.2l-0.2,1c-0.2-0.1-0.4-0.1-0.6-0.2
		c-0.2,0-0.4-0.1-0.6-0.1c-0.4,0-0.8,0.2-1,0.5c-0.3,0.3-0.4,0.8-0.4,1.4l0,0c0.2-0.2,0.4-0.3,0.6-0.4c0.2-0.1,0.5-0.1,0.8-0.1
		c0.6,0,1.1,0.2,1.5,0.7c0.4,0.5,0.5,1,0.5,1.7c0,0.7-0.2,1.3-0.7,1.8s-1,0.7-1.7,0.7c-0.7,0-1.4-0.3-1.8-0.8
		c-0.5-0.5-0.7-1.2-0.7-2.1v-1.2c0-1,0.3-1.8,0.8-2.3C226,52.5,226.7,52.2,227.5,52.2z M227.2,55.7c-0.3,0-0.5,0-0.7,0.1
		s-0.3,0.2-0.4,0.3v0.5c0,0.6,0.1,1,0.3,1.3c0.2,0.3,0.5,0.5,0.8,0.5c0.3,0,0.5-0.1,0.7-0.4c0.2-0.3,0.3-0.6,0.3-1
		c0-0.4-0.1-0.7-0.3-1S227.5,55.7,227.2,55.7z"/>
</g>
<rect x="3.4" y="34.2" fill="none" stroke="#1A1A1A" stroke-miterlimit="10" width="18" height="31.3"/>
<rect x="2.4" y="42.5" fill="none" width="22.2" height="18.7"/>
<g enable-background="new    ">
	<path fill="#313131" d="M6,43.3v1.4h0c0.3-0.6,0.6-1.1,1-1.4C7.4,43.1,7.9,43,8.5,43c1.1,0,2,0.6,2.5,1.7c0.5,1.1,0.8,2.9,0.8,5.4
		c0,2.5-0.3,4.3-0.8,5.4C10.4,56.5,9.6,57,8.5,57c-0.5,0-1-0.1-1.3-0.4c-0.4-0.2-0.7-0.6-1-1.2h0v5.6H3.3V43.3H6z M6.4,53.3
		c0.2,0.7,0.6,1.1,1.2,1.1c0.6,0,1-0.4,1.2-1.1C8.9,52.6,9,51.5,9,50c0-1.5-0.1-2.6-0.3-3.3c-0.2-0.7-0.6-1.1-1.2-1.1
		c-0.6,0-1,0.4-1.2,1.1c-0.2,0.7-0.3,1.8-0.3,3.3C6.1,51.5,6.2,52.6,6.4,53.3z"/>
</g>
<g enable-background="new    ">
	<path fill="#EA3F2D" d="M18.8,55.3c-0.3,0.6-0.6,1.1-1,1.3S16.9,57,16.4,57c-1.1,0-2-0.5-2.5-1.6c-0.5-1.1-0.8-2.9-0.8-5.4
		c0-2.5,0.3-4.3,0.8-5.4c0.5-1.1,1.4-1.7,2.5-1.7c0.5,0,1,0.1,1.3,0.4s0.7,0.7,1,1.2h0v-5.6h2.8v17.9h-2.6L18.8,55.3L18.8,55.3z
		 M16.1,53.3c0.2,0.7,0.6,1.1,1.2,1.1c0.6,0,1-0.4,1.2-1.1c0.2-0.7,0.3-1.8,0.3-3.3c0-1.5-0.1-2.6-0.3-3.3c-0.2-0.7-0.6-1.1-1.2-1.1
		c-0.6,0-1,0.4-1.2,1.1c-0.2,0.7-0.3,1.8-0.3,3.3C15.8,51.5,15.9,52.6,16.1,53.3z"/>
</g>
</svg>
